<ttFont>
    <TTGlyph name=".notdef" xMin="49" yMin="0" xMax="883" yMax="1305">
      <contour>
        <pt x="883" y="0" on="1"/>
        <pt x="49" y="0" on="1"/>
        <pt x="49" y="1305" on="1"/>
        <pt x="883" y="1305" on="1"/>
      </contour>
      <contour>
        <pt x="256" y="186" on="1"/>
        <pt x="676" y="186" on="1"/>
        <pt x="676" y="1118" on="1"/>
        <pt x="256" y="1118" on="1"/>
      </contour>
    </TTGlyph>
    <TTGlyph name="A" xMin="-59" yMin="0" xMax="993" yMax="1305">
      <contour>
        <pt x="776" y="0" on="1"/>
        <pt x="682" y="311" on="1"/>
        <pt x="250" y="311" on="1"/>
        <pt x="158" y="0" on="1"/>
        <pt x="-59" y="0" on="1"/>
        <pt x="348" y="1305" on="1"/>
        <pt x="586" y="1305" on="1"/>
        <pt x="993" y="0" on="1"/>
      </contour>
      <contour>
        <pt x="305" y="494" on="1"/>
        <pt x="627" y="494" on="1"/>
        <pt x="467" y="1032" on="1"/>
      </contour>
    </TTGlyph>
    <TTGlyph name="AE" xMin="-63" yMin="0" xMax="932" yMax="1305">
      <contour>
        <pt x="395" y="0" on="1"/>
        <pt x="395" y="311" on="1"/>
        <pt x="225" y="311" on="1"/>
        <pt x="150" y="0" on="1"/>
        <pt x="-63" y="0" on="1"/>
        <pt x="301" y="1305" on="1"/>
        <pt x="932" y="1305" on="1"/>
        <pt x="932" y="1118" on="1"/>
        <pt x="602" y="1118" on="1"/>
        <pt x="602" y="758" on="1"/>
        <pt x="883" y="758" on="1"/>
        <pt x="883" y="571" on="1"/>
        <pt x="602" y="571" on="1"/>
        <pt x="602" y="186" on="1"/>
        <pt x="932" y="186" on="1"/>
        <pt x="932" y="0" on="1"/>
      </contour>
      <contour>
        <pt x="268" y="494" on="1"/>
        <pt x="395" y="494" on="1"/>
        <pt x="395" y="1010" on="1"/>
      </contour>
    </TTGlyph>
    <TTGlyph name="AEacute" xMin="-63" yMin="0" xMax="932" yMax="1780">
      <component glyphName="AE" x="0" y="0" flags="0x204"/>
      <component glyphName="acute" x="0" y="375" flags="0x4"/>
    </TTGlyph>
    <TTGlyph name="Aacute" xMin="-59" yMin="0" xMax="993" yMax="1776">
      <component glyphName="A" x="0" y="0" flags="0x204"/>
      <component glyphName="acute" x="0" y="371" flags="0x4"/>
    </TTGlyph>
    <TTGlyph name="Abreve" xMin="-59" yMin="0" xMax="993" yMax="1657">
      <component glyphName="A" x="0" y="0" flags="0x204"/>
      <component glyphName="breve" x="0" y="371" flags="0x4"/>
    </TTGlyph>
    <TTGlyph name="Acircumflex" xMin="-59" yMin="0" xMax="993" yMax="1770">
      <component glyphName="A" x="0" y="0" flags="0x204"/>
      <component glyphName="circumflex" x="0" y="371" flags="0x4"/>
    </TTGlyph>
    <TTGlyph name="Adieresis" xMin="-59" yMin="0" xMax="993" yMax="1676">
      <component glyphName="A" x="0" y="0" flags="0x204"/>
      <component glyphName="dieresis" x="0" y="371" flags="0x4"/>
    </TTGlyph>
    <TTGlyph name="Agrave" xMin="-59" yMin="0" xMax="993" yMax="1776">
      <component glyphName="A" x="0" y="0" flags="0x204"/>
      <component glyphName="grave" x="0" y="371" flags="0x4"/>
    </TTGlyph>
    <TTGlyph name="Alpha" xMin="-59" yMin="0" xMax="993" yMax="1305">
      <contour>
        <pt x="776" y="0" on="1"/>
        <pt x="682" y="311" on="1"/>
        <pt x="250" y="311" on="1"/>
        <pt x="158" y="0" on="1"/>
        <pt x="-59" y="0" on="1"/>
        <pt x="348" y="1305" on="1"/>
        <pt x="586" y="1305" on="1"/>
        <pt x="993" y="0" on="1"/>
      </contour>
      <contour>
        <pt x="305" y="494" on="1"/>
        <pt x="627" y="494" on="1"/>
        <pt x="467" y="1032" on="1"/>
      </contour>
    </TTGlyph>
    <TTGlyph name="Alphatonos" xMin="-59" yMin="0" xMax="993" yMax="1675">
      <component glyphName="Alpha" x="0" y="0" flags="0x200"/>
      <component glyphName="tonos" x="-372" y="0" flags="0x0"/>
    </TTGlyph>
    <TTGlyph name="Amacron" xMin="-59" yMin="0" xMax="993" yMax="1590">
      <component glyphName="A" x="0" y="0" flags="0x204"/>
      <component glyphName="macron" x="0" y="371" flags="0x4"/>
    </TTGlyph>
    <TTGlyph name="Aogonek" xMin="-59" yMin="-379" xMax="1106" yMax="1305">
      <contour>
        <pt x="1106" y="-379" on="1"/>
        <pt x="971" y="-379" on="0"/>
        <pt x="813" y="-260" on="0"/>
        <pt x="813" y="-141" on="1"/>
        <pt x="813" y="-100" on="0"/>
        <pt x="842" y="-29" on="0"/>
        <pt x="866" y="0" on="1"/>
        <pt x="776" y="0" on="1"/>
        <pt x="682" y="311" on="1"/>
        <pt x="250" y="311" on="1"/>
        <pt x="158" y="0" on="1"/>
        <pt x="-59" y="0" on="1"/>
        <pt x="348" y="1305" on="1"/>
        <pt x="586" y="1305" on="1"/>
        <pt x="993" y="0" on="1"/>
        <pt x="954" y="-43" on="0"/>
        <pt x="954" y="-104" on="1"/>
        <pt x="954" y="-168" on="0"/>
        <pt x="1042" y="-231" on="0"/>
        <pt x="1106" y="-231" on="1"/>
      </contour>
      <contour>
        <pt x="305" y="494" on="1"/>
        <pt x="627" y="494" on="1"/>
        <pt x="467" y="1032" on="1"/>
      </contour>
    </TTGlyph>
    <TTGlyph name="Aring" xMin="-59" yMin="0" xMax="993" yMax="1675">
      <contour>
        <pt x="242" y="1450" on="1"/>
        <pt x="242" y="1497" on="0"/>
        <pt x="276" y="1579" on="0"/>
        <pt x="338" y="1640" on="0"/>
        <pt x="420" y="1675" on="0"/>
        <pt x="467" y="1675" on="1"/>
        <pt x="514" y="1675" on="0"/>
        <pt x="596" y="1640" on="0"/>
        <pt x="657" y="1579" on="0"/>
        <pt x="692" y="1497" on="0"/>
        <pt x="692" y="1450" on="1"/>
        <pt x="692" y="1393" on="0"/>
        <pt x="641" y="1296" on="0"/>
        <pt x="598" y="1266" on="1"/>
        <pt x="993" y="0" on="1"/>
        <pt x="776" y="0" on="1"/>
        <pt x="682" y="311" on="1"/>
        <pt x="250" y="311" on="1"/>
        <pt x="158" y="0" on="1"/>
        <pt x="-59" y="0" on="1"/>
        <pt x="336" y="1266" on="1"/>
        <pt x="293" y="1296" on="0"/>
        <pt x="242" y="1393" on="0"/>
      </contour>
      <contour>
        <pt x="305" y="494" on="1"/>
        <pt x="627" y="494" on="1"/>
        <pt x="467" y="1032" on="1"/>
      </contour>
      <contour>
        <pt x="375" y="1450" on="1"/>
        <pt x="375" y="1411" on="0"/>
        <pt x="428" y="1358" on="0"/>
        <pt x="467" y="1358" on="1"/>
        <pt x="506" y="1358" on="0"/>
        <pt x="559" y="1411" on="0"/>
        <pt x="559" y="1450" on="1"/>
        <pt x="559" y="1489" on="0"/>
        <pt x="506" y="1542" on="0"/>
        <pt x="467" y="1542" on="1"/>
        <pt x="428" y="1542" on="0"/>
        <pt x="375" y="1489" on="0"/>
      </contour>
    </TTGlyph>
    <TTGlyph name="Atilde" xMin="-59" yMin="0" xMax="993" yMax="1686">
      <component glyphName="A" x="0" y="0" flags="0x204"/>
      <component glyphName="tilde" x="0" y="371" flags="0x4"/>
    </TTGlyph>
    <TTGlyph name="B" xMin="49" yMin="0" xMax="930" yMax="1305">
      <contour>
        <pt x="930" y="358" on="1"/>
        <pt x="930" y="180" on="0"/>
        <pt x="688" y="0" on="0"/>
        <pt x="465" y="0" on="1"/>
        <pt x="49" y="0" on="1"/>
        <pt x="49" y="1305" on="1"/>
        <pt x="442" y="1305" on="1"/>
        <pt x="524" y="1305" on="0"/>
        <pt x="682" y="1278" on="0"/>
        <pt x="807" y="1204" on="0"/>
        <pt x="885" y="1071" on="0"/>
        <pt x="885" y="965" on="1"/>
        <pt x="885" y="866" on="0"/>
        <pt x="784" y="702" on="0"/>
        <pt x="682" y="666" on="1"/>
        <pt x="807" y="627" on="0"/>
        <pt x="930" y="487" on="0"/>
      </contour>
      <contour>
        <pt x="680" y="938" on="1"/>
        <pt x="680" y="995" on="0"/>
        <pt x="637" y="1067" on="0"/>
        <pt x="569" y="1106" on="0"/>
        <pt x="485" y="1118" on="0"/>
        <pt x="442" y="1118" on="1"/>
        <pt x="256" y="1118" on="1"/>
        <pt x="256" y="758" on="1"/>
        <pt x="442" y="758" on="1"/>
        <pt x="485" y="758" on="0"/>
        <pt x="569" y="770" on="0"/>
        <pt x="637" y="809" on="0"/>
        <pt x="680" y="881" on="0"/>
      </contour>
      <contour>
        <pt x="725" y="379" on="1"/>
        <pt x="725" y="477" on="0"/>
        <pt x="588" y="571" on="0"/>
        <pt x="465" y="571" on="1"/>
        <pt x="256" y="571" on="1"/>
        <pt x="256" y="186" on="1"/>
        <pt x="465" y="186" on="1"/>
        <pt x="588" y="186" on="0"/>
        <pt x="725" y="281" on="0"/>
      </contour>
    </TTGlyph>
    <TTGlyph name="Beta" xMin="49" yMin="0" xMax="930" yMax="1305">
      <contour>
        <pt x="930" y="358" on="1"/>
        <pt x="930" y="180" on="0"/>
        <pt x="688" y="0" on="0"/>
        <pt x="465" y="0" on="1"/>
        <pt x="49" y="0" on="1"/>
        <pt x="49" y="1305" on="1"/>
        <pt x="442" y="1305" on="1"/>
        <pt x="524" y="1305" on="0"/>
        <pt x="682" y="1278" on="0"/>
        <pt x="807" y="1204" on="0"/>
        <pt x="885" y="1071" on="0"/>
        <pt x="885" y="965" on="1"/>
        <pt x="885" y="866" on="0"/>
        <pt x="784" y="702" on="0"/>
        <pt x="682" y="666" on="1"/>
        <pt x="807" y="627" on="0"/>
        <pt x="930" y="487" on="0"/>
      </contour>
      <contour>
        <pt x="680" y="938" on="1"/>
        <pt x="680" y="995" on="0"/>
        <pt x="637" y="1067" on="0"/>
        <pt x="569" y="1106" on="0"/>
        <pt x="485" y="1118" on="0"/>
        <pt x="442" y="1118" on="1"/>
        <pt x="256" y="1118" on="1"/>
        <pt x="256" y="758" on="1"/>
        <pt x="442" y="758" on="1"/>
        <pt x="485" y="758" on="0"/>
        <pt x="569" y="770" on="0"/>
        <pt x="637" y="809" on="0"/>
        <pt x="680" y="881" on="0"/>
      </contour>
      <contour>
        <pt x="725" y="379" on="1"/>
        <pt x="725" y="477" on="0"/>
        <pt x="588" y="571" on="0"/>
        <pt x="465" y="571" on="1"/>
        <pt x="256" y="571" on="1"/>
        <pt x="256" y="186" on="1"/>
        <pt x="465" y="186" on="1"/>
        <pt x="588" y="186" on="0"/>
        <pt x="725" y="281" on="0"/>
      </contour>
    </TTGlyph>
    <TTGlyph name="C" xMin="-20" yMin="-23" xMax="952" yMax="1327">
      <contour>
        <pt x="952" y="399" on="1"/>
        <pt x="928" y="303" on="0"/>
        <pt x="848" y="147" on="0"/>
        <pt x="733" y="37" on="0"/>
        <pt x="580" y="-23" on="0"/>
        <pt x="481" y="-23" on="1"/>
        <pt x="344" y="-23" on="0"/>
        <pt x="154" y="90" on="0"/>
        <pt x="33" y="279" on="0"/>
        <pt x="-20" y="522" on="0"/>
        <pt x="-20" y="653" on="1"/>
        <pt x="-20" y="784" on="0"/>
        <pt x="33" y="1028" on="0"/>
        <pt x="152" y="1214" on="0"/>
        <pt x="336" y="1327" on="0"/>
        <pt x="469" y="1327" on="1"/>
        <pt x="512" y="1327" on="0"/>
        <pt x="600" y="1305" on="0"/>
        <pt x="676" y="1260" on="0"/>
        <pt x="733" y="1194" on="0"/>
        <pt x="745" y="1151" on="1"/>
        <pt x="745" y="1305" on="1"/>
        <pt x="932" y="1305" on="1"/>
        <pt x="932" y="811" on="1"/>
        <pt x="745" y="811" on="1"/>
        <pt x="745" y="872" on="0"/>
        <pt x="715" y="991" on="0"/>
        <pt x="649" y="1083" on="0"/>
        <pt x="549" y="1141" on="0"/>
        <pt x="481" y="1141" on="1"/>
        <pt x="393" y="1141" on="0"/>
        <pt x="281" y="1055" on="0"/>
        <pt x="213" y="915" on="0"/>
        <pt x="186" y="741" on="0"/>
        <pt x="186" y="653" on="1"/>
        <pt x="186" y="565" on="0"/>
        <pt x="213" y="389" on="0"/>
        <pt x="279" y="250" on="0"/>
        <pt x="393" y="164" on="0"/>
        <pt x="481" y="164" on="1"/>
        <pt x="608" y="164" on="0"/>
        <pt x="745" y="326" on="0"/>
        <pt x="786" y="463" on="1"/>
      </contour>
    </TTGlyph>
    <TTGlyph name="Cacute" xMin="-20" yMin="-23" xMax="952" yMax="1780">
      <component glyphName="C" x="0" y="0" flags="0x204"/>
      <component glyphName="acute" x="0" y="375" flags="0x4"/>
    </TTGlyph>
    <TTGlyph name="Ccaron" xMin="-20" yMin="-23" xMax="952" yMax="1774">
      <component glyphName="C" x="0" y="0" flags="0x204"/>
      <component glyphName="caron" x="0" y="375" flags="0x4"/>
    </TTGlyph>
    <TTGlyph name="Ccedilla" xMin="-20" yMin="-371" xMax="952" yMax="1327">
      <contour>
        <pt x="952" y="399" on="1"/>
        <pt x="909" y="236" on="0"/>
        <pt x="735" y="16" on="0"/>
        <pt x="590" y="-12" on="1"/>
        <pt x="590" y="-41" on="1"/>
        <pt x="590" y="-111" on="0"/>
        <pt x="543" y="-231" on="0"/>
        <pt x="453" y="-319" on="0"/>
        <pt x="324" y="-371" on="0"/>
        <pt x="242" y="-371" on="1"/>
        <pt x="242" y="-193" on="1"/>
        <pt x="330" y="-193" on="0"/>
        <pt x="414" y="-113" on="0"/>
        <pt x="414" y="-41" on="1"/>
        <pt x="414" y="-18" on="1"/>
        <pt x="295" y="-4" on="0"/>
        <pt x="131" y="117" on="0"/>
        <pt x="27" y="301" on="0"/>
        <pt x="-20" y="530" on="0"/>
        <pt x="-20" y="653" on="1"/>
        <pt x="-20" y="784" on="0"/>
        <pt x="33" y="1028" on="0"/>
        <pt x="152" y="1214" on="0"/>
        <pt x="336" y="1327" on="0"/>
        <pt x="469" y="1327" on="1"/>
        <pt x="512" y="1327" on="0"/>
        <pt x="600" y="1305" on="0"/>
        <pt x="676" y="1260" on="0"/>
        <pt x="733" y="1194" on="0"/>
        <pt x="745" y="1151" on="1"/>
        <pt x="745" y="1305" on="1"/>
        <pt x="932" y="1305" on="1"/>
        <pt x="932" y="811" on="1"/>
        <pt x="745" y="811" on="1"/>
        <pt x="745" y="872" on="0"/>
        <pt x="715" y="991" on="0"/>
        <pt x="649" y="1083" on="0"/>
        <pt x="549" y="1141" on="0"/>
        <pt x="481" y="1141" on="1"/>
        <pt x="393" y="1141" on="0"/>
        <pt x="281" y="1055" on="0"/>
        <pt x="213" y="915" on="0"/>
        <pt x="186" y="741" on="0"/>
        <pt x="186" y="653" on="1"/>
        <pt x="186" y="565" on="0"/>
        <pt x="213" y="389" on="0"/>
        <pt x="279" y="250" on="0"/>
        <pt x="393" y="164" on="0"/>
        <pt x="481" y="164" on="1"/>
        <pt x="608" y="164" on="0"/>
        <pt x="745" y="326" on="0"/>
        <pt x="786" y="463" on="1"/>
      </contour>
    </TTGlyph>
    <TTGlyph name="Ccircumflex" xMin="-20" yMin="-23" xMax="952" yMax="1774">
      <component glyphName="C" x="0" y="0" flags="0x204"/>
      <component glyphName="circumflex" x="0" y="375" flags="0x4"/>
    </TTGlyph>
    <TTGlyph name="Cdotaccent" xMin="-20" yMin="-23" xMax="952" yMax="1676">
      <component glyphName="C" x="0" y="0" flags="0x204"/>
      <component glyphName="dotaccent" x="0" y="371" flags="0x4"/>
    </TTGlyph>
    <TTGlyph name="Chi" xMin="-23" yMin="0" xMax="952" yMax="1305">
      <contour>
        <pt x="952" y="0" on="1"/>
        <pt x="526" y="0" on="1"/>
        <pt x="526" y="186" on="1"/>
        <pt x="600" y="186" on="1"/>
        <pt x="463" y="481" on="1"/>
        <pt x="326" y="186" on="1"/>
        <pt x="399" y="186" on="1"/>
        <pt x="399" y="0" on="1"/>
        <pt x="-23" y="0" on="1"/>
        <pt x="-23" y="186" on="1"/>
        <pt x="90" y="186" on="1"/>
        <pt x="344" y="659" on="1"/>
        <pt x="94" y="1118" on="1"/>
        <pt x="0" y="1118" on="1"/>
        <pt x="0" y="1305" on="1"/>
        <pt x="414" y="1305" on="1"/>
        <pt x="414" y="1118" on="1"/>
        <pt x="330" y="1118" on="1"/>
        <pt x="463" y="829" on="1"/>
        <pt x="598" y="1118" on="1"/>
        <pt x="516" y="1118" on="1"/>
        <pt x="516" y="1305" on="1"/>
        <pt x="932" y="1305" on="1"/>
        <pt x="932" y="1118" on="1"/>
        <pt x="831" y="1118" on="1"/>
        <pt x="582" y="659" on="1"/>
        <pt x="836" y="186" on="1"/>
        <pt x="952" y="186" on="1"/>
      </contour>
    </TTGlyph>
    <TTGlyph name="D" xMin="49" yMin="0" xMax="975" yMax="1305">
      <contour>
        <pt x="975" y="653" on="1"/>
        <pt x="975" y="522" on="0"/>
        <pt x="920" y="285" on="0"/>
        <pt x="799" y="106" on="0"/>
        <pt x="608" y="0" on="0"/>
        <pt x="473" y="0" on="1"/>
        <pt x="49" y="0" on="1"/>
        <pt x="49" y="1305" on="1"/>
        <pt x="473" y="1305" on="1"/>
        <pt x="606" y="1305" on="0"/>
        <pt x="797" y="1198" on="0"/>
        <pt x="918" y="1020" on="0"/>
        <pt x="975" y="784" on="0"/>
      </contour>
      <contour>
        <pt x="768" y="653" on="1"/>
        <pt x="768" y="879" on="0"/>
        <pt x="614" y="1118" on="0"/>
        <pt x="473" y="1118" on="1"/>
        <pt x="256" y="1118" on="1"/>
        <pt x="256" y="186" on="1"/>
        <pt x="473" y="186" on="1"/>
        <pt x="614" y="186" on="0"/>
        <pt x="768" y="430" on="0"/>
      </contour>
    </TTGlyph>
    <TTGlyph name="Dcaron" xMin="49" yMin="0" xMax="975" yMax="1774">
      <component glyphName="D" x="0" y="0" flags="0x204"/>
      <component glyphName="caron" x="0" y="375" flags="0x4"/>
    </TTGlyph>
    <TTGlyph name="Dcroat" xMin="-117" yMin="0" xMax="975" yMax="1305">
      <component glyphName="Eth" x="0" y="0" flags="0x204"/>
    </TTGlyph>
    <TTGlyph name="Delta" xMin="-59" yMin="0" xMax="993" yMax="1305">
      <contour>
        <pt x="-59" y="0" on="1"/>
        <pt x="348" y="1305" on="1"/>
        <pt x="586" y="1305" on="1"/>
        <pt x="993" y="0" on="1"/>
      </contour>
      <contour>
        <pt x="213" y="184" on="1"/>
        <pt x="721" y="184" on="1"/>
        <pt x="467" y="1032" on="1"/>
      </contour>
    </TTGlyph>
    <TTGlyph name="E" xMin="49" yMin="0" xMax="883" yMax="1305">
      <contour>
        <pt x="883" y="0" on="1"/>
        <pt x="49" y="0" on="1"/>
        <pt x="49" y="1305" on="1"/>
        <pt x="883" y="1305" on="1"/>
        <pt x="883" y="1118" on="1"/>
        <pt x="256" y="1118" on="1"/>
        <pt x="256" y="758" on="1"/>
        <pt x="745" y="758" on="1"/>
        <pt x="745" y="571" on="1"/>
        <pt x="256" y="571" on="1"/>
        <pt x="256" y="186" on="1"/>
        <pt x="883" y="186" on="1"/>
      </contour>
    </TTGlyph>
    <TTGlyph name="Eacute" xMin="49" yMin="0" xMax="883" yMax="1776">
      <component glyphName="E" x="0" y="0" flags="0x204"/>
      <component glyphName="acute" x="0" y="371" flags="0x4"/>
    </TTGlyph>
    <TTGlyph name="Ebreve" xMin="49" yMin="0" xMax="883" yMax="1657">
      <component glyphName="E" x="0" y="0" flags="0x204"/>
      <component glyphName="breve" x="0" y="371" flags="0x4"/>
    </TTGlyph>
    <TTGlyph name="Ecaron" xMin="49" yMin="0" xMax="883" yMax="1770">
      <component glyphName="E" x="0" y="0" flags="0x204"/>
      <component glyphName="caron" x="0" y="371" flags="0x4"/>
    </TTGlyph>
    <TTGlyph name="Ecircumflex" xMin="49" yMin="0" xMax="883" yMax="1770">
      <component glyphName="E" x="0" y="0" flags="0x204"/>
      <component glyphName="circumflex" x="0" y="371" flags="0x4"/>
    </TTGlyph>
    <TTGlyph name="Edieresis" xMin="49" yMin="0" xMax="883" yMax="1676">
      <component glyphName="E" x="0" y="0" flags="0x204"/>
      <component glyphName="dieresis" x="0" y="371" flags="0x4"/>
    </TTGlyph>
    <TTGlyph name="Edotaccent" xMin="49" yMin="0" xMax="883" yMax="1676">
      <component glyphName="E" x="0" y="0" flags="0x204"/>
      <component glyphName="dotaccent" x="0" y="371" flags="0x4"/>
    </TTGlyph>
    <TTGlyph name="Egrave" xMin="49" yMin="0" xMax="883" yMax="1776">
      <component glyphName="E" x="0" y="0" flags="0x204"/>
      <component glyphName="grave" x="0" y="371" flags="0x4"/>
    </TTGlyph>
    <TTGlyph name="Emacron" xMin="49" yMin="0" xMax="883" yMax="1590">
      <component glyphName="E" x="0" y="0" flags="0x204"/>
      <component glyphName="macron" x="0" y="371" flags="0x4"/>
    </TTGlyph>
    <TTGlyph name="Eng" xMin="49" yMin="-395" xMax="883" yMax="1305">
      <contour>
        <pt x="883" y="125" on="1"/>
        <pt x="883" y="-123" on="0"/>
        <pt x="672" y="-395" on="0"/>
        <pt x="455" y="-395" on="1"/>
        <pt x="270" y="-395" on="0"/>
        <pt x="147" y="-291" on="1"/>
        <pt x="272" y="-135" on="1"/>
        <pt x="342" y="-209" on="0"/>
        <pt x="455" y="-209" on="1"/>
        <pt x="543" y="-209" on="0"/>
        <pt x="637" y="-113" on="0"/>
        <pt x="657" y="-41" on="1"/>
        <pt x="256" y="946" on="1"/>
        <pt x="256" y="0" on="1"/>
        <pt x="49" y="0" on="1"/>
        <pt x="49" y="1305" on="1"/>
        <pt x="309" y="1305" on="1"/>
        <pt x="676" y="406" on="1"/>
        <pt x="676" y="1305" on="1"/>
        <pt x="883" y="1305" on="1"/>
      </contour>
    </TTGlyph>
    <TTGlyph name="Eogonek" xMin="49" yMin="-379" xMax="995" yMax="1305">
      <contour>
        <pt x="995" y="-379" on="1"/>
        <pt x="860" y="-379" on="0"/>
        <pt x="702" y="-260" on="0"/>
        <pt x="702" y="-141" on="1"/>
        <pt x="702" y="-100" on="0"/>
        <pt x="731" y="-29" on="0"/>
        <pt x="756" y="0" on="1"/>
        <pt x="49" y="0" on="1"/>
        <pt x="49" y="1305" on="1"/>
        <pt x="883" y="1305" on="1"/>
        <pt x="883" y="1118" on="1"/>
        <pt x="256" y="1118" on="1"/>
        <pt x="256" y="758" on="1"/>
        <pt x="745" y="758" on="1"/>
        <pt x="745" y="571" on="1"/>
        <pt x="256" y="571" on="1"/>
        <pt x="256" y="186" on="1"/>
        <pt x="883" y="186" on="1"/>
        <pt x="883" y="0" on="1"/>
        <pt x="844" y="-43" on="0"/>
        <pt x="844" y="-104" on="1"/>
        <pt x="844" y="-168" on="0"/>
        <pt x="932" y="-231" on="0"/>
        <pt x="995" y="-231" on="1"/>
      </contour>
    </TTGlyph>
    <TTGlyph name="Epsilon" xMin="49" yMin="0" xMax="883" yMax="1305">
      <contour>
        <pt x="883" y="0" on="1"/>
        <pt x="49" y="0" on="1"/>
        <pt x="49" y="1305" on="1"/>
        <pt x="883" y="1305" on="1"/>
        <pt x="883" y="1118" on="1"/>
        <pt x="256" y="1118" on="1"/>
        <pt x="256" y="758" on="1"/>
        <pt x="745" y="758" on="1"/>
        <pt x="745" y="571" on="1"/>
        <pt x="256" y="571" on="1"/>
        <pt x="256" y="186" on="1"/>
        <pt x="883" y="186" on="1"/>
      </contour>
    </TTGlyph>
    <TTGlyph name="Epsilontonos" xMin="-185" yMin="0" xMax="883" yMax="1675">
      <component glyphName="tonos" x="-558" y="0" flags="0x200"/>
      <component glyphName="Epsilon" x="0" y="0" flags="0x0"/>
    </TTGlyph>
    <TTGlyph name="Eta" xMin="49" yMin="0" xMax="883" yMax="1305">
      <contour>
        <pt x="883" y="0" on="1"/>
        <pt x="676" y="0" on="1"/>
        <pt x="676" y="571" on="1"/>
        <pt x="256" y="571" on="1"/>
        <pt x="256" y="0" on="1"/>
        <pt x="49" y="0" on="1"/>
        <pt x="49" y="1305" on="1"/>
        <pt x="256" y="1305" on="1"/>
        <pt x="256" y="758" on="1"/>
        <pt x="676" y="758" on="1"/>
        <pt x="676" y="1305" on="1"/>
        <pt x="883" y="1305" on="1"/>
      </contour>
    </TTGlyph>
    <TTGlyph name="Etatonos" xMin="-185" yMin="0" xMax="883" yMax="1675">
      <component glyphName="tonos" x="-558" y="0" flags="0x200"/>
      <component glyphName="Eta" x="0" y="0" flags="0x0"/>
    </TTGlyph>
    <TTGlyph name="Eth" xMin="-117" yMin="0" xMax="975" yMax="1305">
      <contour>
        <pt x="-117" y="758" on="1"/>
        <pt x="49" y="758" on="1"/>
        <pt x="49" y="1305" on="1"/>
        <pt x="473" y="1305" on="1"/>
        <pt x="606" y="1305" on="0"/>
        <pt x="797" y="1198" on="0"/>
        <pt x="918" y="1020" on="0"/>
        <pt x="975" y="784" on="0"/>
        <pt x="975" y="653" on="1"/>
        <pt x="975" y="522" on="0"/>
        <pt x="920" y="285" on="0"/>
        <pt x="799" y="106" on="0"/>
        <pt x="608" y="0" on="0"/>
        <pt x="473" y="0" on="1"/>
        <pt x="49" y="0" on="1"/>
        <pt x="49" y="571" on="1"/>
        <pt x="-117" y="571" on="1"/>
      </contour>
      <contour>
        <pt x="768" y="653" on="1"/>
        <pt x="768" y="879" on="0"/>
        <pt x="614" y="1118" on="0"/>
        <pt x="473" y="1118" on="1"/>
        <pt x="256" y="1118" on="1"/>
        <pt x="256" y="758" on="1"/>
        <pt x="440" y="758" on="1"/>
        <pt x="440" y="571" on="1"/>
        <pt x="256" y="571" on="1"/>
        <pt x="256" y="186" on="1"/>
        <pt x="473" y="186" on="1"/>
        <pt x="614" y="186" on="0"/>
        <pt x="768" y="430" on="0"/>
      </contour>
    </TTGlyph>
    <TTGlyph name="Euro" xMin="0" yMin="-23" xMax="952" yMax="1327">
      <contour>
        <pt x="0" y="907" on="1"/>
        <pt x="172" y="907" on="1"/>
        <pt x="188" y="995" on="0"/>
        <pt x="252" y="1149" on="0"/>
        <pt x="348" y="1264" on="0"/>
        <pt x="479" y="1327" on="0"/>
        <pt x="563" y="1327" on="1"/>
        <pt x="645" y="1327" on="0"/>
        <pt x="772" y="1266" on="0"/>
        <pt x="868" y="1155" on="0"/>
        <pt x="932" y="999" on="0"/>
        <pt x="952" y="903" on="1"/>
        <pt x="770" y="866" on="1"/>
        <pt x="745" y="1006" on="0"/>
        <pt x="657" y="1141" on="0"/>
        <pt x="565" y="1141" on="1"/>
        <pt x="485" y="1141" on="0"/>
        <pt x="397" y="1006" on="0"/>
        <pt x="377" y="907" on="1"/>
        <pt x="559" y="907" on="1"/>
        <pt x="559" y="733" on="1"/>
        <pt x="358" y="733" on="1"/>
        <pt x="356" y="713" on="0"/>
        <pt x="356" y="674" on="0"/>
        <pt x="356" y="653" on="1"/>
        <pt x="356" y="631" on="0"/>
        <pt x="356" y="592" on="0"/>
        <pt x="358" y="571" on="1"/>
        <pt x="559" y="571" on="1"/>
        <pt x="559" y="397" on="1"/>
        <pt x="377" y="397" on="1"/>
        <pt x="397" y="297" on="0"/>
        <pt x="485" y="164" on="0"/>
        <pt x="565" y="164" on="1"/>
        <pt x="655" y="164" on="0"/>
        <pt x="741" y="299" on="0"/>
        <pt x="770" y="436" on="1"/>
        <pt x="952" y="399" on="1"/>
        <pt x="932" y="303" on="0"/>
        <pt x="868" y="147" on="0"/>
        <pt x="772" y="37" on="0"/>
        <pt x="645" y="-23" on="0"/>
        <pt x="563" y="-23" on="1"/>
        <pt x="479" y="-23" on="0"/>
        <pt x="348" y="41" on="0"/>
        <pt x="252" y="154" on="0"/>
        <pt x="188" y="307" on="0"/>
        <pt x="172" y="397" on="1"/>
        <pt x="0" y="397" on="1"/>
        <pt x="0" y="571" on="1"/>
        <pt x="152" y="571" on="1"/>
        <pt x="150" y="592" on="0"/>
        <pt x="150" y="631" on="0"/>
        <pt x="150" y="653" on="1"/>
        <pt x="150" y="674" on="0"/>
        <pt x="150" y="713" on="0"/>
        <pt x="152" y="733" on="1"/>
        <pt x="0" y="733" on="1"/>
      </contour>
    </TTGlyph>
    <TTGlyph name="F" xMin="49" yMin="0" xMax="883" yMax="1305">
      <contour>
        <pt x="883" y="1118" on="1"/>
        <pt x="256" y="1118" on="1"/>
        <pt x="256" y="758" on="1"/>
        <pt x="745" y="758" on="1"/>
        <pt x="745" y="571" on="1"/>
        <pt x="256" y="571" on="1"/>
        <pt x="256" y="0" on="1"/>
        <pt x="49" y="0" on="1"/>
        <pt x="49" y="1305" on="1"/>
        <pt x="883" y="1305" on="1"/>
      </contour>
    </TTGlyph>
    <TTGlyph name="G" xMin="-20" yMin="-23" xMax="983" yMax="1327">
      <contour>
        <pt x="983" y="649" on="1"/>
        <pt x="983" y="516" on="0"/>
        <pt x="930" y="274" on="0"/>
        <pt x="809" y="88" on="0"/>
        <pt x="618" y="-23" on="0"/>
        <pt x="481" y="-23" on="1"/>
        <pt x="344" y="-23" on="0"/>
        <pt x="154" y="90" on="0"/>
        <pt x="33" y="276" on="0"/>
        <pt x="-20" y="520" on="0"/>
        <pt x="-20" y="651" on="1"/>
        <pt x="-20" y="782" on="0"/>
        <pt x="33" y="1026" on="0"/>
        <pt x="154" y="1214" on="0"/>
        <pt x="344" y="1327" on="0"/>
        <pt x="481" y="1327" on="1"/>
        <pt x="520" y="1327" on="0"/>
        <pt x="602" y="1305" on="0"/>
        <pt x="676" y="1260" on="0"/>
        <pt x="733" y="1194" on="0"/>
        <pt x="745" y="1151" on="1"/>
        <pt x="745" y="1305" on="1"/>
        <pt x="932" y="1305" on="1"/>
        <pt x="932" y="842" on="1"/>
        <pt x="745" y="842" on="1"/>
        <pt x="745" y="903" on="0"/>
        <pt x="707" y="1012" on="0"/>
        <pt x="637" y="1094" on="0"/>
        <pt x="539" y="1141" on="0"/>
        <pt x="481" y="1141" on="1"/>
        <pt x="393" y="1141" on="0"/>
        <pt x="281" y="1053" on="0"/>
        <pt x="213" y="913" on="0"/>
        <pt x="186" y="739" on="0"/>
        <pt x="186" y="651" on="1"/>
        <pt x="186" y="563" on="0"/>
        <pt x="213" y="389" on="0"/>
        <pt x="279" y="250" on="0"/>
        <pt x="393" y="164" on="0"/>
        <pt x="481" y="164" on="1"/>
        <pt x="608" y="164" on="0"/>
        <pt x="764" y="326" on="0"/>
        <pt x="793" y="496" on="1"/>
        <pt x="518" y="496" on="1"/>
        <pt x="518" y="682" on="1"/>
        <pt x="983" y="682" on="1"/>
      </contour>
    </TTGlyph>
    <TTGlyph name="Gamma" xMin="49" yMin="0" xMax="932" yMax="1305">
      <contour>
        <pt x="49" y="1305" on="1"/>
        <pt x="932" y="1305" on="1"/>
        <pt x="932" y="1118" on="1"/>
        <pt x="256" y="1118" on="1"/>
        <pt x="256" y="0" on="1"/>
        <pt x="49" y="0" on="1"/>
      </contour>
    </TTGlyph>
    <TTGlyph name="Gbreve" xMin="-20" yMin="-23" xMax="983" yMax="1657">
      <component glyphName="G" x="0" y="0" flags="0x204"/>
      <component glyphName="breve" x="0" y="371" flags="0x4"/>
    </TTGlyph>
    <TTGlyph name="Gcircumflex" xMin="-20" yMin="-23" xMax="983" yMax="1770">
      <component glyphName="G" x="0" y="0" flags="0x204"/>
      <component glyphName="circumflex" x="0" y="371" flags="0x4"/>
    </TTGlyph>
    <TTGlyph name="Gcommaaccent" xMin="-20" yMin="-373" xMax="983" yMax="1327">
      <component glyphName="G" x="0" y="0" flags="0x204"/>
      <component glyphName="commaaccent" x="0" y="0" flags="0x4"/>
    </TTGlyph>
    <TTGlyph name="Gdotaccent" xMin="-20" yMin="-23" xMax="983" yMax="1676">
      <component glyphName="G" x="0" y="0" flags="0x204"/>
      <component glyphName="dotaccent" x="0" y="371" flags="0x4"/>
    </TTGlyph>
    <TTGlyph name="H" xMin="49" yMin="0" xMax="883" yMax="1305">
      <contour>
        <pt x="883" y="0" on="1"/>
        <pt x="676" y="0" on="1"/>
        <pt x="676" y="571" on="1"/>
        <pt x="256" y="571" on="1"/>
        <pt x="256" y="0" on="1"/>
        <pt x="49" y="0" on="1"/>
        <pt x="49" y="1305" on="1"/>
        <pt x="256" y="1305" on="1"/>
        <pt x="256" y="758" on="1"/>
        <pt x="676" y="758" on="1"/>
        <pt x="676" y="1305" on="1"/>
        <pt x="883" y="1305" on="1"/>
      </contour>
    </TTGlyph>
    <TTGlyph name="Hbar" xMin="-137" yMin="0" xMax="1069" yMax="1305">
      <contour>
        <pt x="883" y="1118" on="1"/>
        <pt x="1069" y="1118" on="1"/>
        <pt x="1069" y="944" on="1"/>
        <pt x="883" y="944" on="1"/>
        <pt x="883" y="0" on="1"/>
        <pt x="676" y="0" on="1"/>
        <pt x="676" y="571" on="1"/>
        <pt x="256" y="571" on="1"/>
        <pt x="256" y="0" on="1"/>
        <pt x="49" y="0" on="1"/>
        <pt x="49" y="944" on="1"/>
        <pt x="-137" y="944" on="1"/>
        <pt x="-137" y="1118" on="1"/>
        <pt x="49" y="1118" on="1"/>
        <pt x="49" y="1305" on="1"/>
        <pt x="256" y="1305" on="1"/>
        <pt x="256" y="1118" on="1"/>
        <pt x="676" y="1118" on="1"/>
        <pt x="676" y="1305" on="1"/>
        <pt x="883" y="1305" on="1"/>
      </contour>
      <contour>
        <pt x="676" y="758" on="1"/>
        <pt x="676" y="944" on="1"/>
        <pt x="256" y="944" on="1"/>
        <pt x="256" y="758" on="1"/>
      </contour>
    </TTGlyph>
    <TTGlyph name="Hcircumflex" xMin="49" yMin="0" xMax="883" yMax="1770">
      <component glyphName="H" x="0" y="0" flags="0x204"/>
      <component glyphName="circumflex" x="0" y="371" flags="0x4"/>
    </TTGlyph>
    <TTGlyph name="I" xMin="156" yMin="0" xMax="782" yMax="1305">
      <contour>
        <pt x="782" y="0" on="1"/>
        <pt x="156" y="0" on="1"/>
        <pt x="156" y="186" on="1"/>
        <pt x="362" y="186" on="1"/>
        <pt x="362" y="1118" on="1"/>
        <pt x="156" y="1118" on="1"/>
        <pt x="156" y="1305" on="1"/>
        <pt x="782" y="1305" on="1"/>
        <pt x="782" y="1118" on="1"/>
        <pt x="569" y="1118" on="1"/>
        <pt x="569" y="186" on="1"/>
        <pt x="782" y="186" on="1"/>
      </contour>
    </TTGlyph>
    <TTGlyph name="IJ" xMin="-30" yMin="-395" xMax="952" yMax="1305">
      <contour>
        <pt x="342" y="-135" on="1"/>
        <pt x="412" y="-209" on="0"/>
        <pt x="524" y="-209" on="1"/>
        <pt x="592" y="-209" on="0"/>
        <pt x="678" y="-154" on="0"/>
        <pt x="727" y="-61" on="0"/>
        <pt x="745" y="59" on="0"/>
        <pt x="745" y="125" on="1"/>
        <pt x="745" y="1305" on="1"/>
        <pt x="952" y="1305" on="1"/>
        <pt x="952" y="125" on="1"/>
        <pt x="952" y="-123" on="0"/>
        <pt x="741" y="-395" on="0"/>
        <pt x="524" y="-395" on="1"/>
        <pt x="340" y="-395" on="0"/>
        <pt x="217" y="-291" on="1"/>
      </contour>
      <contour>
        <pt x="596" y="0" on="1"/>
        <pt x="-30" y="0" on="1"/>
        <pt x="-30" y="186" on="1"/>
        <pt x="176" y="186" on="1"/>
        <pt x="176" y="1118" on="1"/>
        <pt x="-30" y="1118" on="1"/>
        <pt x="-30" y="1305" on="1"/>
        <pt x="596" y="1305" on="1"/>
        <pt x="596" y="1118" on="1"/>
        <pt x="383" y="1118" on="1"/>
        <pt x="383" y="186" on="1"/>
        <pt x="596" y="186" on="1"/>
      </contour>
    </TTGlyph>
    <TTGlyph name="Iacute" xMin="156" yMin="0" xMax="782" yMax="1776">
      <component glyphName="I" x="0" y="0" flags="0x204"/>
      <component glyphName="acute" x="0" y="371" flags="0x4"/>
    </TTGlyph>
    <TTGlyph name="Ibreve" xMin="139" yMin="0" xMax="795" yMax="1657">
      <component glyphName="I" x="0" y="0" flags="0x204"/>
      <component glyphName="breve" x="0" y="371" flags="0x4"/>
    </TTGlyph>
    <TTGlyph name="Icircumflex" xMin="143" yMin="0" xMax="791" yMax="1770">
      <component glyphName="I" x="0" y="0" flags="0x204"/>
      <component glyphName="circumflex" x="0" y="371" flags="0x4"/>
    </TTGlyph>
    <TTGlyph name="Idieresis" xMin="154" yMin="0" xMax="782" yMax="1676">
      <component glyphName="I" x="0" y="0" flags="0x204"/>
      <component glyphName="dieresis" x="0" y="371" flags="0x4"/>
    </TTGlyph>
    <TTGlyph name="Idotaccent" xMin="156" yMin="0" xMax="782" yMax="1676">
      <component glyphName="I" x="0" y="0" flags="0x204"/>
      <component glyphName="dotaccent" x="0" y="371" flags="0x4"/>
    </TTGlyph>
    <TTGlyph name="Igrave" xMin="156" yMin="0" xMax="782" yMax="1776">
      <component glyphName="I" x="0" y="0" flags="0x204"/>
      <component glyphName="grave" x="0" y="371" flags="0x4"/>
    </TTGlyph>
    <TTGlyph name="Imacron" xMin="156" yMin="0" xMax="782" yMax="1590">
      <component glyphName="I" x="0" y="0" flags="0x204"/>
      <component glyphName="macron" x="0" y="371" flags="0x4"/>
    </TTGlyph>
    <TTGlyph name="Iogonek" xMin="156" yMin="-379" xMax="895" yMax="1305">
      <contour>
        <pt x="895" y="-379" on="1"/>
        <pt x="760" y="-379" on="0"/>
        <pt x="602" y="-260" on="0"/>
        <pt x="602" y="-141" on="1"/>
        <pt x="602" y="-100" on="0"/>
        <pt x="631" y="-29" on="0"/>
        <pt x="655" y="0" on="1"/>
        <pt x="156" y="0" on="1"/>
        <pt x="156" y="186" on="1"/>
        <pt x="362" y="186" on="1"/>
        <pt x="362" y="1118" on="1"/>
        <pt x="156" y="1118" on="1"/>
        <pt x="156" y="1305" on="1"/>
        <pt x="782" y="1305" on="1"/>
        <pt x="782" y="1118" on="1"/>
        <pt x="569" y="1118" on="1"/>
        <pt x="569" y="186" on="1"/>
        <pt x="782" y="186" on="1"/>
        <pt x="782" y="0" on="1"/>
        <pt x="743" y="-43" on="0"/>
        <pt x="743" y="-104" on="1"/>
        <pt x="743" y="-168" on="0"/>
        <pt x="831" y="-231" on="0"/>
        <pt x="895" y="-231" on="1"/>
      </contour>
    </TTGlyph>
    <TTGlyph name="Iota" xMin="156" yMin="0" xMax="782" yMax="1305">
      <contour>
        <pt x="782" y="0" on="1"/>
        <pt x="156" y="0" on="1"/>
        <pt x="156" y="186" on="1"/>
        <pt x="362" y="186" on="1"/>
        <pt x="362" y="1118" on="1"/>
        <pt x="156" y="1118" on="1"/>
        <pt x="156" y="1305" on="1"/>
        <pt x="782" y="1305" on="1"/>
        <pt x="782" y="1118" on="1"/>
        <pt x="569" y="1118" on="1"/>
        <pt x="569" y="186" on="1"/>
        <pt x="782" y="186" on="1"/>
      </contour>
    </TTGlyph>
    <TTGlyph name="Iotadieresis" xMin="154" yMin="0" xMax="782" yMax="1676">
      <component glyphName="Iota" x="0" y="0" flags="0x204"/>
      <component glyphName="dieresis" x="0" y="371" flags="0x4"/>
    </TTGlyph>
    <TTGlyph name="Iotatonos" xMin="0" yMin="0" xMax="782" yMax="1675">
      <contour>
        <pt x="782" y="0" on="1"/>
        <pt x="156" y="0" on="1"/>
        <pt x="156" y="186" on="1"/>
        <pt x="362" y="186" on="1"/>
        <pt x="362" y="1118" on="1"/>
        <pt x="238" y="1118" on="1"/>
        <pt x="238" y="1305" on="1"/>
        <pt x="782" y="1305" on="1"/>
        <pt x="782" y="1118" on="1"/>
        <pt x="569" y="1118" on="1"/>
        <pt x="569" y="186" on="1"/>
        <pt x="782" y="186" on="1"/>
      </contour>
      <contour>
        <pt x="245" y="1675" on="1"/>
        <pt x="162" y="1118" on="1"/>
        <pt x="0" y="1118" on="1"/>
        <pt x="0" y="1675" on="1"/>
      </contour>
    </TTGlyph>
    <TTGlyph name="Itilde" xMin="49" yMin="0" xMax="874" yMax="1686">
      <component glyphName="I" x="0" y="0" flags="0x204"/>
      <component glyphName="tilde" x="0" y="371" flags="0x4"/>
    </TTGlyph>
    <TTGlyph name="J" xMin="-2" yMin="-23" xMax="883" yMax="1305">
      <contour>
        <pt x="883" y="498" on="1"/>
        <pt x="883" y="250" on="0"/>
        <pt x="672" y="-23" on="0"/>
        <pt x="455" y="-23" on="1"/>
        <pt x="281" y="-23" on="0"/>
        <pt x="45" y="160" on="0"/>
        <pt x="-2" y="342" on="1"/>
        <pt x="184" y="412" on="1"/>
        <pt x="213" y="295" on="0"/>
        <pt x="344" y="164" on="0"/>
        <pt x="455" y="164" on="1"/>
        <pt x="522" y="164" on="0"/>
        <pt x="608" y="219" on="0"/>
        <pt x="657" y="311" on="0"/>
        <pt x="676" y="432" on="0"/>
        <pt x="676" y="498" on="1"/>
        <pt x="676" y="1305" on="1"/>
        <pt x="883" y="1305" on="1"/>
      </contour>
    </TTGlyph>
    <TTGlyph name="Jcircumflex" xMin="-2" yMin="-23" xMax="883" yMax="1770">
      <component glyphName="J" x="0" y="0" flags="0x204"/>
      <component glyphName="circumflex" x="0" y="371" flags="0x4"/>
    </TTGlyph>
    <TTGlyph name="K" xMin="49" yMin="0" xMax="928" yMax="1305">
      <contour>
        <pt x="926" y="0" on="1"/>
        <pt x="684" y="0" on="1"/>
        <pt x="342" y="608" on="1"/>
        <pt x="256" y="506" on="1"/>
        <pt x="256" y="0" on="1"/>
        <pt x="49" y="0" on="1"/>
        <pt x="49" y="1305" on="1"/>
        <pt x="256" y="1305" on="1"/>
        <pt x="256" y="793" on="1"/>
        <pt x="662" y="1305" on="1"/>
        <pt x="928" y="1305" on="1"/>
        <pt x="473" y="764" on="1"/>
      </contour>
    </TTGlyph>
    <TTGlyph name="Kappa" xMin="49" yMin="0" xMax="928" yMax="1305">
      <contour>
        <pt x="926" y="0" on="1"/>
        <pt x="684" y="0" on="1"/>
        <pt x="342" y="608" on="1"/>
        <pt x="256" y="506" on="1"/>
        <pt x="256" y="0" on="1"/>
        <pt x="49" y="0" on="1"/>
        <pt x="49" y="1305" on="1"/>
        <pt x="256" y="1305" on="1"/>
        <pt x="256" y="793" on="1"/>
        <pt x="662" y="1305" on="1"/>
        <pt x="928" y="1305" on="1"/>
        <pt x="473" y="764" on="1"/>
      </contour>
    </TTGlyph>
    <TTGlyph name="Kcommaaccent" xMin="49" yMin="-373" xMax="928" yMax="1305">
      <component glyphName="K" x="0" y="0" flags="0x204"/>
      <component glyphName="commaaccent" x="0" y="0" flags="0x4"/>
    </TTGlyph>
    <TTGlyph name="L" xMin="49" yMin="0" xMax="883" yMax="1305">
      <contour>
        <pt x="883" y="0" on="1"/>
        <pt x="49" y="0" on="1"/>
        <pt x="49" y="1305" on="1"/>
        <pt x="256" y="1305" on="1"/>
        <pt x="256" y="186" on="1"/>
        <pt x="883" y="186" on="1"/>
      </contour>
    </TTGlyph>
    <TTGlyph name="Lacute" xMin="49" yMin="0" xMax="883" yMax="1776">
      <component glyphName="L" x="0" y="0" flags="0x204"/>
      <component glyphName="acute" x="0" y="371" flags="0x4"/>
    </TTGlyph>
    <TTGlyph name="Lambda" xMin="-59" yMin="0" xMax="991" yMax="1305">
      <contour>
        <pt x="774" y="0" on="1"/>
        <pt x="467" y="1032" on="1"/>
        <pt x="158" y="0" on="1"/>
        <pt x="-59" y="0" on="1"/>
        <pt x="348" y="1305" on="1"/>
        <pt x="584" y="1305" on="1"/>
        <pt x="991" y="0" on="1"/>
      </contour>
    </TTGlyph>
    <TTGlyph name="Lcaron" xMin="49" yMin="0" xMax="883" yMax="1305">
      <component glyphName="L" x="0" y="0" flags="0x204"/>
      <component glyphName="tonos" x="186" y="-370" flags="0x4"/>
    </TTGlyph>
    <TTGlyph name="Lcommaaccent" xMin="49" yMin="-373" xMax="883" yMax="1305">
      <component glyphName="L" x="0" y="0" flags="0x204"/>
      <component glyphName="commaaccent" x="0" y="0" flags="0x4"/>
    </TTGlyph>
    <TTGlyph name="Ldot" xMin="49" yMin="0" xMax="883" yMax="1305">
      <component glyphName="L" x="0" y="0" flags="0x204"/>
      <component glyphName="periodcentered" x="219" y="141" flags="0x4"/>
    </TTGlyph>
    <TTGlyph name="Lslash" xMin="-125" yMin="0" xMax="883" yMax="1305">
      <contour>
        <pt x="883" y="0" on="1"/>
        <pt x="49" y="0" on="1"/>
        <pt x="49" y="520" on="1"/>
        <pt x="-125" y="463" on="1"/>
        <pt x="-125" y="651" on="1"/>
        <pt x="49" y="709" on="1"/>
        <pt x="49" y="1305" on="1"/>
        <pt x="256" y="1305" on="1"/>
        <pt x="256" y="776" on="1"/>
        <pt x="434" y="838" on="1"/>
        <pt x="434" y="649" on="1"/>
        <pt x="256" y="588" on="1"/>
        <pt x="256" y="186" on="1"/>
        <pt x="883" y="186" on="1"/>
      </contour>
    </TTGlyph>
    <TTGlyph name="M" xMin="49" yMin="0" xMax="883" yMax="1305">
      <contour>
        <pt x="883" y="0" on="1"/>
        <pt x="676" y="0" on="1"/>
        <pt x="676" y="883" on="1"/>
        <pt x="545" y="414" on="1"/>
        <pt x="385" y="414" on="1"/>
        <pt x="256" y="883" on="1"/>
        <pt x="256" y="0" on="1"/>
        <pt x="49" y="0" on="1"/>
        <pt x="49" y="1305" on="1"/>
        <pt x="295" y="1305" on="1"/>
        <pt x="465" y="715" on="1"/>
        <pt x="635" y="1305" on="1"/>
        <pt x="883" y="1305" on="1"/>
      </contour>
    </TTGlyph>
    <TTGlyph name="Mu" xMin="49" yMin="0" xMax="883" yMax="1305">
      <contour>
        <pt x="883" y="0" on="1"/>
        <pt x="676" y="0" on="1"/>
        <pt x="676" y="883" on="1"/>
        <pt x="545" y="414" on="1"/>
        <pt x="385" y="414" on="1"/>
        <pt x="256" y="883" on="1"/>
        <pt x="256" y="0" on="1"/>
        <pt x="49" y="0" on="1"/>
        <pt x="49" y="1305" on="1"/>
        <pt x="295" y="1305" on="1"/>
        <pt x="465" y="715" on="1"/>
        <pt x="635" y="1305" on="1"/>
        <pt x="883" y="1305" on="1"/>
      </contour>
    </TTGlyph>
    <TTGlyph name="N" xMin="49" yMin="0" xMax="883" yMax="1305">
      <contour>
        <pt x="883" y="0" on="1"/>
        <pt x="643" y="0" on="1"/>
        <pt x="256" y="946" on="1"/>
        <pt x="256" y="0" on="1"/>
        <pt x="49" y="0" on="1"/>
        <pt x="49" y="1305" on="1"/>
        <pt x="309" y="1305" on="1"/>
        <pt x="676" y="406" on="1"/>
        <pt x="676" y="1305" on="1"/>
        <pt x="883" y="1305" on="1"/>
      </contour>
    </TTGlyph>
    <TTGlyph name="Nacute" xMin="49" yMin="0" xMax="883" yMax="1776">
      <component glyphName="N" x="0" y="0" flags="0x204"/>
      <component glyphName="acute" x="0" y="371" flags="0x4"/>
    </TTGlyph>
    <TTGlyph name="Ncaron" xMin="49" yMin="0" xMax="883" yMax="1770">
      <component glyphName="N" x="0" y="0" flags="0x204"/>
      <component glyphName="caron" x="0" y="371" flags="0x4"/>
    </TTGlyph>
    <TTGlyph name="Ncommaaccent" xMin="49" yMin="-373" xMax="883" yMax="1305">
      <component glyphName="N" x="0" y="0" flags="0x204"/>
      <component glyphName="commaaccent" x="0" y="0" flags="0x4"/>
    </TTGlyph>
    <TTGlyph name="Ntilde" xMin="49" yMin="0" xMax="883" yMax="1686">
      <component glyphName="N" x="0" y="0" flags="0x204"/>
      <component glyphName="tilde" x="0" y="371" flags="0x4"/>
    </TTGlyph>
    <TTGlyph name="Nu" xMin="49" yMin="0" xMax="883" yMax="1305">
      <contour>
        <pt x="883" y="0" on="1"/>
        <pt x="643" y="0" on="1"/>
        <pt x="256" y="946" on="1"/>
        <pt x="256" y="0" on="1"/>
        <pt x="49" y="0" on="1"/>
        <pt x="49" y="1305" on="1"/>
        <pt x="309" y="1305" on="1"/>
        <pt x="676" y="406" on="1"/>
        <pt x="676" y="1305" on="1"/>
        <pt x="883" y="1305" on="1"/>
      </contour>
    </TTGlyph>
    <TTGlyph name="O" xMin="-33" yMin="-23" xMax="967" yMax="1327">
      <contour>
        <pt x="-33" y="653" on="1"/>
        <pt x="-33" y="784" on="0"/>
        <pt x="23" y="1028" on="0"/>
        <pt x="141" y="1214" on="0"/>
        <pt x="332" y="1327" on="0"/>
        <pt x="467" y="1327" on="1"/>
        <pt x="602" y="1327" on="0"/>
        <pt x="793" y="1214" on="0"/>
        <pt x="913" y="1028" on="0"/>
        <pt x="967" y="784" on="0"/>
        <pt x="967" y="653" on="1"/>
        <pt x="967" y="522" on="0"/>
        <pt x="913" y="279" on="0"/>
        <pt x="795" y="90" on="0"/>
        <pt x="604" y="-23" on="0"/>
        <pt x="467" y="-23" on="1"/>
        <pt x="330" y="-23" on="0"/>
        <pt x="139" y="90" on="0"/>
        <pt x="20" y="279" on="0"/>
        <pt x="-33" y="522" on="0"/>
      </contour>
      <contour>
        <pt x="174" y="653" on="1"/>
        <pt x="174" y="565" on="0"/>
        <pt x="201" y="389" on="0"/>
        <pt x="266" y="250" on="0"/>
        <pt x="379" y="164" on="0"/>
        <pt x="467" y="164" on="1"/>
        <pt x="555" y="164" on="0"/>
        <pt x="668" y="250" on="0"/>
        <pt x="733" y="389" on="0"/>
        <pt x="760" y="565" on="0"/>
        <pt x="760" y="653" on="1"/>
        <pt x="760" y="741" on="0"/>
        <pt x="733" y="915" on="0"/>
        <pt x="668" y="1055" on="0"/>
        <pt x="553" y="1141" on="0"/>
        <pt x="467" y="1141" on="1"/>
        <pt x="324" y="1141" on="0"/>
        <pt x="174" y="883" on="0"/>
      </contour>
    </TTGlyph>
    <TTGlyph name="OE" xMin="-16" yMin="-23" xMax="932" yMax="1327">
      <contour>
        <pt x="932" y="0" on="1"/>
        <pt x="459" y="0" on="1"/>
        <pt x="459" y="123" on="1"/>
        <pt x="406" y="-23" on="0"/>
        <pt x="276" y="-23" on="1"/>
        <pt x="-16" y="-23" on="0"/>
        <pt x="-16" y="651" on="1"/>
        <pt x="-16" y="1327" on="0"/>
        <pt x="276" y="1327" on="1"/>
        <pt x="340" y="1327" on="0"/>
        <pt x="432" y="1249" on="0"/>
        <pt x="459" y="1178" on="1"/>
        <pt x="459" y="1305" on="1"/>
        <pt x="932" y="1305" on="1"/>
        <pt x="932" y="1118" on="1"/>
        <pt x="596" y="1118" on="1"/>
        <pt x="596" y="758" on="1"/>
        <pt x="842" y="758" on="1"/>
        <pt x="842" y="571" on="1"/>
        <pt x="596" y="571" on="1"/>
        <pt x="596" y="186" on="1"/>
        <pt x="932" y="186" on="1"/>
      </contour>
      <contour>
        <pt x="395" y="651" on="1"/>
        <pt x="395" y="760" on="0"/>
        <pt x="387" y="940" on="0"/>
        <pt x="367" y="1069" on="0"/>
        <pt x="326" y="1141" on="0"/>
        <pt x="295" y="1141" on="1"/>
        <pt x="264" y="1141" on="0"/>
        <pt x="223" y="1069" on="0"/>
        <pt x="199" y="940" on="0"/>
        <pt x="190" y="760" on="0"/>
        <pt x="190" y="651" on="1"/>
        <pt x="190" y="543" on="0"/>
        <pt x="199" y="362" on="0"/>
        <pt x="223" y="233" on="0"/>
        <pt x="264" y="164" on="0"/>
        <pt x="295" y="164" on="1"/>
        <pt x="326" y="164" on="0"/>
        <pt x="367" y="233" on="0"/>
        <pt x="387" y="362" on="0"/>
        <pt x="395" y="543" on="0"/>
      </contour>
    </TTGlyph>
    <TTGlyph name="Oacute" xMin="-33" yMin="-23" xMax="967" yMax="1776">
      <component glyphName="O" x="0" y="0" flags="0x204"/>
      <component glyphName="acute" x="0" y="371" flags="0x4"/>
    </TTGlyph>
    <TTGlyph name="Obreve" xMin="-33" yMin="-23" xMax="967" yMax="1657">
      <component glyphName="O" x="0" y="0" flags="0x204"/>
      <component glyphName="breve" x="0" y="371" flags="0x4"/>
    </TTGlyph>
    <TTGlyph name="Ocircumflex" xMin="-33" yMin="-23" xMax="967" yMax="1770">
      <component glyphName="O" x="0" y="0" flags="0x204"/>
      <component glyphName="circumflex" x="0" y="371" flags="0x4"/>
    </TTGlyph>
    <TTGlyph name="Odieresis" xMin="-33" yMin="-23" xMax="967" yMax="1676">
      <component glyphName="O" x="0" y="0" flags="0x204"/>
      <component glyphName="dieresis" x="0" y="371" flags="0x4"/>
    </TTGlyph>
    <TTGlyph name="Ograve" xMin="-33" yMin="-23" xMax="967" yMax="1776">
      <component glyphName="O" x="0" y="0" flags="0x204"/>
      <component glyphName="grave" x="0" y="371" flags="0x4"/>
    </TTGlyph>
    <TTGlyph name="Ohungarumlaut" xMin="-33" yMin="-23" xMax="967" yMax="1770">
      <component glyphName="O" x="0" y="0" flags="0x204"/>
      <component glyphName="hungarumlaut" x="0" y="371" flags="0x4"/>
    </TTGlyph>
    <TTGlyph name="Omacron" xMin="-33" yMin="-23" xMax="967" yMax="1590">
      <component glyphName="O" x="0" y="0" flags="0x204"/>
      <component glyphName="macron" x="0" y="371" flags="0x4"/>
    </TTGlyph>
    <TTGlyph name="Omega" xMin="-20" yMin="0" xMax="952" yMax="1327">
      <contour>
        <pt x="952" y="741" on="1"/>
        <pt x="952" y="596" on="0"/>
        <pt x="848" y="324" on="0"/>
        <pt x="723" y="231" on="1"/>
        <pt x="723" y="186" on="1"/>
        <pt x="932" y="186" on="1"/>
        <pt x="932" y="0" on="1"/>
        <pt x="559" y="0" on="1"/>
        <pt x="559" y="358" on="1"/>
        <pt x="614" y="383" on="0"/>
        <pt x="686" y="467" on="0"/>
        <pt x="729" y="571" on="0"/>
        <pt x="745" y="688" on="0"/>
        <pt x="745" y="741" on="1"/>
        <pt x="745" y="811" on="0"/>
        <pt x="715" y="954" on="0"/>
        <pt x="649" y="1069" on="0"/>
        <pt x="543" y="1141" on="0"/>
        <pt x="467" y="1141" on="1"/>
        <pt x="393" y="1141" on="0"/>
        <pt x="289" y="1069" on="0"/>
        <pt x="219" y="954" on="0"/>
        <pt x="186" y="811" on="0"/>
        <pt x="186" y="741" on="1"/>
        <pt x="186" y="688" on="0"/>
        <pt x="203" y="571" on="0"/>
        <pt x="246" y="467" on="0"/>
        <pt x="317" y="383" on="0"/>
        <pt x="373" y="358" on="1"/>
        <pt x="373" y="0" on="1"/>
        <pt x="0" y="0" on="1"/>
        <pt x="0" y="186" on="1"/>
        <pt x="213" y="186" on="1"/>
        <pt x="213" y="231" on="1"/>
        <pt x="92" y="317" on="0"/>
        <pt x="-20" y="592" on="0"/>
        <pt x="-20" y="741" on="1"/>
        <pt x="-20" y="854" on="0"/>
        <pt x="43" y="1067" on="0"/>
        <pt x="166" y="1229" on="0"/>
        <pt x="348" y="1327" on="0"/>
        <pt x="467" y="1327" on="1"/>
        <pt x="586" y="1327" on="0"/>
        <pt x="766" y="1229" on="0"/>
        <pt x="889" y="1067" on="0"/>
        <pt x="952" y="854" on="0"/>
      </contour>
    </TTGlyph>
    <TTGlyph name="Omegatonos" xMin="-185" yMin="0" xMax="952" yMax="1675">
      <component glyphName="tonos" x="-558" y="0" flags="0x200"/>
      <component glyphName="Omega" x="0" y="0" flags="0x0"/>
    </TTGlyph>
    <TTGlyph name="Omicron" xMin="-33" yMin="-23" xMax="967" yMax="1327">
      <contour>
        <pt x="-33" y="653" on="1"/>
        <pt x="-33" y="784" on="0"/>
        <pt x="23" y="1028" on="0"/>
        <pt x="141" y="1214" on="0"/>
        <pt x="332" y="1327" on="0"/>
        <pt x="467" y="1327" on="1"/>
        <pt x="602" y="1327" on="0"/>
        <pt x="793" y="1214" on="0"/>
        <pt x="913" y="1028" on="0"/>
        <pt x="967" y="784" on="0"/>
        <pt x="967" y="653" on="1"/>
        <pt x="967" y="522" on="0"/>
        <pt x="913" y="279" on="0"/>
        <pt x="795" y="90" on="0"/>
        <pt x="604" y="-23" on="0"/>
        <pt x="467" y="-23" on="1"/>
        <pt x="330" y="-23" on="0"/>
        <pt x="139" y="90" on="0"/>
        <pt x="20" y="279" on="0"/>
        <pt x="-33" y="522" on="0"/>
      </contour>
      <contour>
        <pt x="174" y="653" on="1"/>
        <pt x="174" y="565" on="0"/>
        <pt x="201" y="389" on="0"/>
        <pt x="266" y="250" on="0"/>
        <pt x="379" y="164" on="0"/>
        <pt x="467" y="164" on="1"/>
        <pt x="555" y="164" on="0"/>
        <pt x="668" y="250" on="0"/>
        <pt x="733" y="389" on="0"/>
        <pt x="760" y="565" on="0"/>
        <pt x="760" y="653" on="1"/>
        <pt x="760" y="741" on="0"/>
        <pt x="733" y="915" on="0"/>
        <pt x="668" y="1055" on="0"/>
        <pt x="553" y="1141" on="0"/>
        <pt x="467" y="1141" on="1"/>
        <pt x="324" y="1141" on="0"/>
        <pt x="174" y="883" on="0"/>
      </contour>
    </TTGlyph>
    <TTGlyph name="Omicrontonos" xMin="-185" yMin="-23" xMax="967" yMax="1675">
      <component glyphName="tonos" x="-558" y="0" flags="0x200"/>
      <component glyphName="Omicron" x="0" y="0" flags="0x0"/>
    </TTGlyph>
    <TTGlyph name="Oslash" xMin="-41" yMin="-23" xMax="979" yMax="1327">
      <contour>
        <pt x="-33" y="653" on="1"/>
        <pt x="-33" y="784" on="0"/>
        <pt x="23" y="1028" on="0"/>
        <pt x="141" y="1214" on="0"/>
        <pt x="332" y="1327" on="0"/>
        <pt x="467" y="1327" on="1"/>
        <pt x="600" y="1327" on="0"/>
        <pt x="786" y="1223" on="0"/>
        <pt x="846" y="1133" on="1"/>
        <pt x="979" y="1266" on="1"/>
        <pt x="979" y="1044" on="1"/>
        <pt x="918" y="983" on="1"/>
        <pt x="967" y="831" on="0"/>
        <pt x="967" y="653" on="1"/>
        <pt x="967" y="522" on="0"/>
        <pt x="913" y="279" on="0"/>
        <pt x="795" y="90" on="0"/>
        <pt x="604" y="-23" on="0"/>
        <pt x="467" y="-23" on="1"/>
        <pt x="338" y="-23" on="0"/>
        <pt x="156" y="74" on="0"/>
        <pt x="96" y="158" on="1"/>
        <pt x="-41" y="20" on="1"/>
        <pt x="-41" y="242" on="1"/>
        <pt x="20" y="303" on="1"/>
        <pt x="-8" y="381" on="0"/>
        <pt x="-33" y="559" on="0"/>
      </contour>
      <contour>
        <pt x="174" y="653" on="1"/>
        <pt x="174" y="606" on="0"/>
        <pt x="178" y="516" on="0"/>
        <pt x="186" y="471" on="1"/>
        <pt x="700" y="985" on="1"/>
        <pt x="666" y="1055" on="0"/>
        <pt x="553" y="1141" on="0"/>
        <pt x="467" y="1141" on="1"/>
        <pt x="324" y="1141" on="0"/>
        <pt x="174" y="883" on="0"/>
      </contour>
      <contour>
        <pt x="467" y="164" on="1"/>
        <pt x="555" y="164" on="0"/>
        <pt x="668" y="250" on="0"/>
        <pt x="733" y="389" on="0"/>
        <pt x="760" y="565" on="0"/>
        <pt x="760" y="653" on="1"/>
        <pt x="760" y="694" on="0"/>
        <pt x="754" y="772" on="0"/>
        <pt x="750" y="813" on="1"/>
        <pt x="242" y="303" on="1"/>
        <pt x="276" y="240" on="0"/>
        <pt x="383" y="164" on="0"/>
      </contour>
    </TTGlyph>
    <TTGlyph name="Oslashacute" xMin="-41" yMin="-23" xMax="979" yMax="1780">
      <component glyphName="Oslash" x="0" y="0" flags="0x204"/>
      <component glyphName="acute" x="0" y="375" flags="0x4"/>
    </TTGlyph>
    <TTGlyph name="Otilde" xMin="-33" yMin="-23" xMax="967" yMax="1686">
      <component glyphName="O" x="0" y="0" flags="0x204"/>
      <component glyphName="tilde" x="0" y="371" flags="0x4"/>
    </TTGlyph>
    <TTGlyph name="P" xMin="49" yMin="0" xMax="932" yMax="1305">
      <contour>
        <pt x="932" y="915" on="1"/>
        <pt x="932" y="719" on="0"/>
        <pt x="694" y="528" on="0"/>
        <pt x="481" y="528" on="1"/>
        <pt x="256" y="528" on="1"/>
        <pt x="256" y="0" on="1"/>
        <pt x="49" y="0" on="1"/>
        <pt x="49" y="1305" on="1"/>
        <pt x="479" y="1305" on="1"/>
        <pt x="694" y="1305" on="0"/>
        <pt x="932" y="1108" on="0"/>
      </contour>
      <contour>
        <pt x="725" y="918" on="1"/>
        <pt x="725" y="1018" on="0"/>
        <pt x="594" y="1118" on="0"/>
        <pt x="481" y="1118" on="1"/>
        <pt x="256" y="1118" on="1"/>
        <pt x="256" y="715" on="1"/>
        <pt x="481" y="715" on="1"/>
        <pt x="594" y="715" on="0"/>
        <pt x="725" y="815" on="0"/>
      </contour>
    </TTGlyph>
    <TTGlyph name="Phi" xMin="-20" yMin="0" xMax="956" yMax="1305">
      <contour>
        <pt x="956" y="666" on="1"/>
        <pt x="956" y="569" on="0"/>
        <pt x="901" y="408" on="0"/>
        <pt x="799" y="285" on="0"/>
        <pt x="655" y="201" on="0"/>
        <pt x="567" y="186" on="1"/>
        <pt x="567" y="0" on="1"/>
        <pt x="362" y="0" on="1"/>
        <pt x="362" y="186" on="1"/>
        <pt x="186" y="219" on="0"/>
        <pt x="-20" y="475" on="0"/>
        <pt x="-20" y="666" on="1"/>
        <pt x="-20" y="760" on="0"/>
        <pt x="33" y="920" on="0"/>
        <pt x="133" y="1044" on="0"/>
        <pt x="274" y="1128" on="0"/>
        <pt x="362" y="1145" on="1"/>
        <pt x="362" y="1305" on="1"/>
        <pt x="567" y="1305" on="1"/>
        <pt x="567" y="1147" on="1"/>
        <pt x="655" y="1130" on="0"/>
        <pt x="799" y="1049" on="0"/>
        <pt x="901" y="922" on="0"/>
        <pt x="956" y="760" on="0"/>
      </contour>
      <contour>
        <pt x="750" y="666" on="1"/>
        <pt x="750" y="768" on="0"/>
        <pt x="653" y="922" on="0"/>
        <pt x="567" y="952" on="1"/>
        <pt x="567" y="379" on="1"/>
        <pt x="653" y="410" on="0"/>
        <pt x="750" y="561" on="0"/>
      </contour>
      <contour>
        <pt x="186" y="666" on="1"/>
        <pt x="186" y="563" on="0"/>
        <pt x="276" y="412" on="0"/>
        <pt x="362" y="381" on="1"/>
        <pt x="362" y="950" on="1"/>
        <pt x="276" y="920" on="0"/>
        <pt x="186" y="766" on="0"/>
      </contour>
    </TTGlyph>
    <TTGlyph name="Pi" xMin="49" yMin="0" xMax="883" yMax="1305">
      <contour>
        <pt x="883" y="0" on="1"/>
        <pt x="676" y="0" on="1"/>
        <pt x="676" y="1118" on="1"/>
        <pt x="256" y="1118" on="1"/>
        <pt x="256" y="0" on="1"/>
        <pt x="49" y="0" on="1"/>
        <pt x="49" y="1305" on="1"/>
        <pt x="883" y="1305" on="1"/>
      </contour>
    </TTGlyph>
    <TTGlyph name="Psi" xMin="0" yMin="0" xMax="932" yMax="1305">
      <contour>
        <pt x="932" y="856" on="1"/>
        <pt x="932" y="729" on="0"/>
        <pt x="883" y="543" on="0"/>
        <pt x="788" y="414" on="0"/>
        <pt x="653" y="338" on="0"/>
        <pt x="569" y="326" on="1"/>
        <pt x="569" y="0" on="1"/>
        <pt x="362" y="0" on="1"/>
        <pt x="362" y="326" on="1"/>
        <pt x="193" y="352" on="0"/>
        <pt x="0" y="606" on="0"/>
        <pt x="0" y="856" on="1"/>
        <pt x="0" y="1305" on="1"/>
        <pt x="207" y="1305" on="1"/>
        <pt x="207" y="856" on="1"/>
        <pt x="207" y="731" on="0"/>
        <pt x="279" y="553" on="0"/>
        <pt x="362" y="518" on="1"/>
        <pt x="362" y="1305" on="1"/>
        <pt x="569" y="1305" on="1"/>
        <pt x="569" y="518" on="1"/>
        <pt x="653" y="553" on="0"/>
        <pt x="727" y="729" on="0"/>
        <pt x="727" y="856" on="1"/>
        <pt x="727" y="1305" on="1"/>
        <pt x="932" y="1305" on="1"/>
      </contour>
    </TTGlyph>
    <TTGlyph name="Q" xMin="-33" yMin="-373" xMax="967" yMax="1327">
      <contour>
        <pt x="-33" y="653" on="1"/>
        <pt x="-33" y="784" on="0"/>
        <pt x="23" y="1028" on="0"/>
        <pt x="141" y="1214" on="0"/>
        <pt x="332" y="1327" on="0"/>
        <pt x="467" y="1327" on="1"/>
        <pt x="602" y="1327" on="0"/>
        <pt x="793" y="1214" on="0"/>
        <pt x="913" y="1028" on="0"/>
        <pt x="967" y="784" on="0"/>
        <pt x="967" y="653" on="1"/>
        <pt x="967" y="532" on="0"/>
        <pt x="924" y="309" on="0"/>
        <pt x="825" y="129" on="0"/>
        <pt x="672" y="4" on="0"/>
        <pt x="561" y="-14" on="1"/>
        <pt x="571" y="-113" on="0"/>
        <pt x="715" y="-186" on="0"/>
        <pt x="848" y="-186" on="1"/>
        <pt x="866" y="-186" on="0"/>
        <pt x="909" y="-184" on="0"/>
        <pt x="932" y="-184" on="1"/>
        <pt x="932" y="-369" on="1"/>
        <pt x="903" y="-371" on="0"/>
        <pt x="850" y="-373" on="0"/>
        <pt x="825" y="-373" on="1"/>
        <pt x="623" y="-373" on="0"/>
        <pt x="371" y="-188" on="0"/>
        <pt x="346" y="-8" on="1"/>
        <pt x="244" y="16" on="0"/>
        <pt x="98" y="141" on="0"/>
        <pt x="8" y="319" on="0"/>
        <pt x="-33" y="537" on="0"/>
      </contour>
      <contour>
        <pt x="174" y="653" on="1"/>
        <pt x="174" y="565" on="0"/>
        <pt x="201" y="389" on="0"/>
        <pt x="266" y="250" on="0"/>
        <pt x="379" y="164" on="0"/>
        <pt x="467" y="164" on="1"/>
        <pt x="555" y="164" on="0"/>
        <pt x="668" y="250" on="0"/>
        <pt x="733" y="389" on="0"/>
        <pt x="760" y="565" on="0"/>
        <pt x="760" y="653" on="1"/>
        <pt x="760" y="741" on="0"/>
        <pt x="733" y="915" on="0"/>
        <pt x="668" y="1055" on="0"/>
        <pt x="553" y="1141" on="0"/>
        <pt x="467" y="1141" on="1"/>
        <pt x="324" y="1141" on="0"/>
        <pt x="174" y="883" on="0"/>
      </contour>
    </TTGlyph>
    <TTGlyph name="R" xMin="49" yMin="0" xMax="950" yMax="1305">
      <contour>
        <pt x="950" y="0" on="1"/>
        <pt x="688" y="0" on="1"/>
        <pt x="350" y="528" on="1"/>
        <pt x="256" y="528" on="1"/>
        <pt x="256" y="0" on="1"/>
        <pt x="49" y="0" on="1"/>
        <pt x="49" y="1305" on="1"/>
        <pt x="479" y="1305" on="1"/>
        <pt x="694" y="1305" on="0"/>
        <pt x="932" y="1108" on="0"/>
        <pt x="932" y="915" on="1"/>
        <pt x="932" y="829" on="0"/>
        <pt x="879" y="698" on="0"/>
        <pt x="782" y="604" on="0"/>
        <pt x="653" y="549" on="0"/>
        <pt x="578" y="539" on="1"/>
      </contour>
      <contour>
        <pt x="725" y="918" on="1"/>
        <pt x="725" y="1018" on="0"/>
        <pt x="594" y="1118" on="0"/>
        <pt x="479" y="1118" on="1"/>
        <pt x="256" y="1118" on="1"/>
        <pt x="256" y="715" on="1"/>
        <pt x="479" y="715" on="1"/>
        <pt x="594" y="715" on="0"/>
        <pt x="725" y="815" on="0"/>
      </contour>
    </TTGlyph>
    <TTGlyph name="Racute" xMin="49" yMin="0" xMax="950" yMax="1776">
      <component glyphName="R" x="0" y="0" flags="0x204"/>
      <component glyphName="acute" x="0" y="371" flags="0x4"/>
    </TTGlyph>
    <TTGlyph name="Rcaron" xMin="49" yMin="0" xMax="950" yMax="1770">
      <component glyphName="R" x="0" y="0" flags="0x204"/>
      <component glyphName="caron" x="0" y="371" flags="0x4"/>
    </TTGlyph>
    <TTGlyph name="Rcommaaccent" xMin="49" yMin="-373" xMax="950" yMax="1305">
      <component glyphName="R" x="0" y="0" flags="0x204"/>
      <component glyphName="commaaccent" x="0" y="0" flags="0x4"/>
    </TTGlyph>
    <TTGlyph name="Rho" xMin="49" yMin="0" xMax="932" yMax="1305">
      <contour>
        <pt x="932" y="915" on="1"/>
        <pt x="932" y="719" on="0"/>
        <pt x="694" y="528" on="0"/>
        <pt x="481" y="528" on="1"/>
        <pt x="256" y="528" on="1"/>
        <pt x="256" y="0" on="1"/>
        <pt x="49" y="0" on="1"/>
        <pt x="49" y="1305" on="1"/>
        <pt x="479" y="1305" on="1"/>
        <pt x="694" y="1305" on="0"/>
        <pt x="932" y="1108" on="0"/>
      </contour>
      <contour>
        <pt x="725" y="918" on="1"/>
        <pt x="725" y="1018" on="0"/>
        <pt x="594" y="1118" on="0"/>
        <pt x="481" y="1118" on="1"/>
        <pt x="256" y="1118" on="1"/>
        <pt x="256" y="715" on="1"/>
        <pt x="481" y="715" on="1"/>
        <pt x="594" y="715" on="0"/>
        <pt x="725" y="815" on="0"/>
      </contour>
    </TTGlyph>
    <TTGlyph name="S" xMin="27" yMin="-23" xMax="899" yMax="1327">
      <contour>
        <pt x="899" y="358" on="1"/>
        <pt x="899" y="268" on="0"/>
        <pt x="838" y="127" on="0"/>
        <pt x="733" y="29" on="0"/>
        <pt x="588" y="-23" on="0"/>
        <pt x="506" y="-23" on="1"/>
        <pt x="414" y="-23" on="0"/>
        <pt x="266" y="43" on="0"/>
        <pt x="213" y="119" on="1"/>
        <pt x="213" y="0" on="1"/>
        <pt x="27" y="0" on="1"/>
        <pt x="27" y="426" on="1"/>
        <pt x="213" y="426" on="1"/>
        <pt x="213" y="362" on="0"/>
        <pt x="258" y="264" on="0"/>
        <pt x="332" y="197" on="0"/>
        <pt x="430" y="162" on="0"/>
        <pt x="485" y="162" on="1"/>
        <pt x="578" y="162" on="0"/>
        <pt x="692" y="248" on="0"/>
        <pt x="692" y="342" on="1"/>
        <pt x="692" y="391" on="0"/>
        <pt x="657" y="461" on="0"/>
        <pt x="592" y="516" on="0"/>
        <pt x="498" y="557" on="0"/>
        <pt x="438" y="580" on="1"/>
        <pt x="367" y="604" on="0"/>
        <pt x="225" y="664" on="0"/>
        <pt x="113" y="752" on="0"/>
        <pt x="43" y="881" on="0"/>
        <pt x="43" y="979" on="1"/>
        <pt x="43" y="1065" on="0"/>
        <pt x="106" y="1194" on="0"/>
        <pt x="211" y="1282" on="0"/>
        <pt x="350" y="1327" on="0"/>
        <pt x="428" y="1327" on="1"/>
        <pt x="518" y="1327" on="0"/>
        <pt x="647" y="1251" on="0"/>
        <pt x="682" y="1188" on="1"/>
        <pt x="682" y="1305" on="1"/>
        <pt x="868" y="1305" on="1"/>
        <pt x="868" y="899" on="1"/>
        <pt x="682" y="899" on="1"/>
        <pt x="682" y="1014" on="0"/>
        <pt x="561" y="1143" on="0"/>
        <pt x="459" y="1143" on="1"/>
        <pt x="369" y="1143" on="0"/>
        <pt x="250" y="1059" on="0"/>
        <pt x="250" y="983" on="1"/>
        <pt x="250" y="944" on="0"/>
        <pt x="281" y="889" on="0"/>
        <pt x="340" y="844" on="0"/>
        <pt x="430" y="805" on="0"/>
        <pt x="489" y="782" on="1"/>
        <pt x="563" y="756" on="0"/>
        <pt x="709" y="690" on="0"/>
        <pt x="825" y="594" on="0"/>
        <pt x="899" y="457" on="0"/>
      </contour>
    </TTGlyph>
    <TTGlyph name="SF010000" xMin="365" yMin="-373" xMax="1118" yMax="754">
      <contour>
        <pt x="365" y="754" on="1"/>
        <pt x="1118" y="754" on="1"/>
        <pt x="1118" y="551" on="1"/>
        <pt x="567" y="551" on="1"/>
        <pt x="567" y="-373" on="1"/>
        <pt x="365" y="-373" on="1"/>
      </contour>
    </TTGlyph>
    <TTGlyph name="SF020000" xMin="365" yMin="551" xMax="1118" yMax="1675">
      <contour>
        <pt x="365" y="1675" on="1"/>
        <pt x="567" y="1675" on="1"/>
        <pt x="567" y="754" on="1"/>
        <pt x="1118" y="754" on="1"/>
        <pt x="1118" y="551" on="1"/>
        <pt x="365" y="551" on="1"/>
      </contour>
    </TTGlyph>
    <TTGlyph name="SF030000" xMin="0" yMin="-373" xMax="567" yMax="754">
      <contour>
        <pt x="0" y="551" on="1"/>
        <pt x="0" y="754" on="1"/>
        <pt x="567" y="754" on="1"/>
        <pt x="567" y="-373" on="1"/>
        <pt x="365" y="-373" on="1"/>
        <pt x="365" y="551" on="1"/>
      </contour>
    </TTGlyph>
    <TTGlyph name="SF040000" xMin="0" yMin="551" xMax="567" yMax="1675">
      <contour>
        <pt x="0" y="551" on="1"/>
        <pt x="0" y="754" on="1"/>
        <pt x="365" y="754" on="1"/>
        <pt x="365" y="1675" on="1"/>
        <pt x="567" y="1675" on="1"/>
        <pt x="567" y="551" on="1"/>
      </contour>
    </TTGlyph>
    <TTGlyph name="SF050000" xMin="0" yMin="-373" xMax="1118" yMax="1675">
      <contour>
        <pt x="0" y="551" on="1"/>
        <pt x="0" y="754" on="1"/>
        <pt x="365" y="754" on="1"/>
        <pt x="365" y="1675" on="1"/>
        <pt x="567" y="1675" on="1"/>
        <pt x="567" y="754" on="1"/>
        <pt x="1118" y="754" on="1"/>
        <pt x="1118" y="551" on="1"/>
        <pt x="567" y="551" on="1"/>
        <pt x="567" y="-373" on="1"/>
        <pt x="365" y="-373" on="1"/>
        <pt x="365" y="551" on="1"/>
      </contour>
    </TTGlyph>
    <TTGlyph name="SF060000" xMin="0" yMin="-373" xMax="1118" yMax="754">
      <contour>
        <pt x="0" y="551" on="1"/>
        <pt x="0" y="754" on="1"/>
        <pt x="1118" y="754" on="1"/>
        <pt x="1118" y="551" on="1"/>
        <pt x="567" y="551" on="1"/>
        <pt x="567" y="-373" on="1"/>
        <pt x="365" y="-373" on="1"/>
        <pt x="365" y="551" on="1"/>
      </contour>
    </TTGlyph>
    <TTGlyph name="SF070000" xMin="0" yMin="551" xMax="1118" yMax="1675">
      <contour>
        <pt x="0" y="551" on="1"/>
        <pt x="0" y="754" on="1"/>
        <pt x="365" y="754" on="1"/>
        <pt x="365" y="1675" on="1"/>
        <pt x="567" y="1675" on="1"/>
        <pt x="567" y="754" on="1"/>
        <pt x="1118" y="754" on="1"/>
        <pt x="1118" y="551" on="1"/>
      </contour>
    </TTGlyph>
    <TTGlyph name="SF080000" xMin="365" yMin="-373" xMax="1118" yMax="1675">
      <contour>
        <pt x="365" y="1675" on="1"/>
        <pt x="567" y="1675" on="1"/>
        <pt x="567" y="754" on="1"/>
        <pt x="1118" y="754" on="1"/>
        <pt x="1118" y="551" on="1"/>
        <pt x="567" y="551" on="1"/>
        <pt x="567" y="-373" on="1"/>
        <pt x="365" y="-373" on="1"/>
      </contour>
    </TTGlyph>
    <TTGlyph name="SF090000" xMin="0" yMin="-373" xMax="567" yMax="1675">
      <contour>
        <pt x="567" y="-373" on="1"/>
        <pt x="365" y="-373" on="1"/>
        <pt x="365" y="551" on="1"/>
        <pt x="0" y="551" on="1"/>
        <pt x="0" y="754" on="1"/>
        <pt x="365" y="754" on="1"/>
        <pt x="365" y="1675" on="1"/>
        <pt x="567" y="1675" on="1"/>
      </contour>
    </TTGlyph>
    <TTGlyph name="SF100000" xMin="0" yMin="551" xMax="1118" yMax="754">
      <contour>
        <pt x="0" y="551" on="1"/>
        <pt x="0" y="754" on="1"/>
        <pt x="1118" y="754" on="1"/>
        <pt x="1118" y="551" on="1"/>
      </contour>
    </TTGlyph>
    <TTGlyph name="SF110000" xMin="365" yMin="-373" xMax="567" yMax="1675">
      <contour>
        <pt x="365" y="1675" on="1"/>
        <pt x="567" y="1675" on="1"/>
        <pt x="567" y="-373" on="1"/>
        <pt x="365" y="-373" on="1"/>
      </contour>
    </TTGlyph>
    <TTGlyph name="SF190000" xMin="0" yMin="-373" xMax="567" yMax="1675">
      <contour>
        <pt x="0" y="737" on="1"/>
        <pt x="0" y="940" on="1"/>
        <pt x="365" y="940" on="1"/>
        <pt x="365" y="1675" on="1"/>
        <pt x="567" y="1675" on="1"/>
        <pt x="567" y="737" on="1"/>
      </contour>
      <contour>
        <pt x="567" y="567" on="1"/>
        <pt x="567" y="-373" on="1"/>
        <pt x="365" y="-373" on="1"/>
        <pt x="365" y="365" on="1"/>
        <pt x="0" y="365" on="1"/>
        <pt x="0" y="567" on="1"/>
      </contour>
    </TTGlyph>
    <TTGlyph name="SF200000" xMin="0" yMin="-373" xMax="754" yMax="1675">
      <contour>
        <pt x="381" y="-373" on="1"/>
        <pt x="178" y="-373" on="1"/>
        <pt x="178" y="551" on="1"/>
        <pt x="0" y="551" on="1"/>
        <pt x="0" y="754" on="1"/>
        <pt x="178" y="754" on="1"/>
        <pt x="178" y="1675" on="1"/>
        <pt x="381" y="1675" on="1"/>
      </contour>
      <contour>
        <pt x="551" y="1675" on="1"/>
        <pt x="754" y="1675" on="1"/>
        <pt x="754" y="-373" on="1"/>
        <pt x="551" y="-373" on="1"/>
      </contour>
    </TTGlyph>
    <TTGlyph name="SF210000" xMin="0" yMin="-373" xMax="754" yMax="754">
      <contour>
        <pt x="381" y="754" on="1"/>
        <pt x="381" y="381" on="1"/>
        <pt x="754" y="381" on="1"/>
        <pt x="754" y="-373" on="1"/>
        <pt x="551" y="-373" on="1"/>
        <pt x="551" y="178" on="1"/>
        <pt x="381" y="178" on="1"/>
        <pt x="381" y="-373" on="1"/>
        <pt x="178" y="-373" on="1"/>
        <pt x="178" y="551" on="1"/>
        <pt x="0" y="551" on="1"/>
        <pt x="0" y="754" on="1"/>
      </contour>
    </TTGlyph>
    <TTGlyph name="SF220000" xMin="0" yMin="-373" xMax="567" yMax="940">
      <contour>
        <pt x="0" y="365" on="1"/>
        <pt x="0" y="567" on="1"/>
        <pt x="178" y="567" on="1"/>
        <pt x="178" y="737" on="1"/>
        <pt x="0" y="737" on="1"/>
        <pt x="0" y="940" on="1"/>
        <pt x="381" y="940" on="1"/>
        <pt x="381" y="567" on="1"/>
        <pt x="567" y="567" on="1"/>
        <pt x="567" y="-373" on="1"/>
        <pt x="365" y="-373" on="1"/>
        <pt x="365" y="365" on="1"/>
      </contour>
    </TTGlyph>
    <TTGlyph name="SF230000" xMin="0" yMin="-373" xMax="754" yMax="1675">
      <contour>
        <pt x="0" y="737" on="1"/>
        <pt x="0" y="938" on="1"/>
        <pt x="178" y="938" on="1"/>
        <pt x="178" y="1675" on="1"/>
        <pt x="381" y="1675" on="1"/>
        <pt x="381" y="737" on="1"/>
      </contour>
      <contour>
        <pt x="381" y="567" on="1"/>
        <pt x="381" y="-373" on="1"/>
        <pt x="178" y="-373" on="1"/>
        <pt x="178" y="365" on="1"/>
        <pt x="0" y="365" on="1"/>
        <pt x="0" y="567" on="1"/>
      </contour>
      <contour>
        <pt x="551" y="1675" on="1"/>
        <pt x="754" y="1675" on="1"/>
        <pt x="754" y="-373" on="1"/>
        <pt x="551" y="-373" on="1"/>
      </contour>
    </TTGlyph>
    <TTGlyph name="SF240000" xMin="178" yMin="-373" xMax="754" yMax="1675">
      <contour>
        <pt x="381" y="-373" on="1"/>
        <pt x="178" y="-373" on="1"/>
        <pt x="178" y="1675" on="1"/>
        <pt x="381" y="1675" on="1"/>
      </contour>
      <contour>
        <pt x="551" y="1675" on="1"/>
        <pt x="754" y="1675" on="1"/>
        <pt x="754" y="-373" on="1"/>
        <pt x="551" y="-373" on="1"/>
      </contour>
    </TTGlyph>
    <TTGlyph name="SF250000" xMin="0" yMin="-373" xMax="754" yMax="940">
      <contour>
        <pt x="551" y="737" on="1"/>
        <pt x="0" y="737" on="1"/>
        <pt x="0" y="940" on="1"/>
        <pt x="754" y="940" on="1"/>
        <pt x="754" y="-373" on="1"/>
        <pt x="551" y="-373" on="1"/>
      </contour>
      <contour>
        <pt x="381" y="567" on="1"/>
        <pt x="381" y="-373" on="1"/>
        <pt x="178" y="-373" on="1"/>
        <pt x="178" y="365" on="1"/>
        <pt x="0" y="365" on="1"/>
        <pt x="0" y="567" on="1"/>
      </contour>
    </TTGlyph>
    <TTGlyph name="SF260000" xMin="0" yMin="365" xMax="754" yMax="1675">
      <contour>
        <pt x="0" y="737" on="1"/>
        <pt x="0" y="940" on="1"/>
        <pt x="178" y="940" on="1"/>
        <pt x="178" y="1675" on="1"/>
        <pt x="381" y="1675" on="1"/>
        <pt x="381" y="737" on="1"/>
      </contour>
      <contour>
        <pt x="551" y="567" on="1"/>
        <pt x="551" y="1675" on="1"/>
        <pt x="754" y="1675" on="1"/>
        <pt x="754" y="365" on="1"/>
        <pt x="0" y="365" on="1"/>
        <pt x="0" y="567" on="1"/>
      </contour>
    </TTGlyph>
    <TTGlyph name="SF270000" xMin="0" yMin="551" xMax="754" yMax="1675">
      <contour>
        <pt x="0" y="551" on="1"/>
        <pt x="0" y="754" on="1"/>
        <pt x="178" y="754" on="1"/>
        <pt x="178" y="1675" on="1"/>
        <pt x="381" y="1675" on="1"/>
        <pt x="381" y="1126" on="1"/>
        <pt x="551" y="1126" on="1"/>
        <pt x="551" y="1675" on="1"/>
        <pt x="754" y="1675" on="1"/>
        <pt x="754" y="924" on="1"/>
        <pt x="381" y="924" on="1"/>
        <pt x="381" y="551" on="1"/>
      </contour>
    </TTGlyph>
    <TTGlyph name="SF280000" xMin="-8" yMin="365" xMax="567" yMax="1675">
      <contour>
        <pt x="-8" y="567" on="1"/>
        <pt x="-8" y="737" on="1"/>
        <pt x="0" y="737" on="1"/>
        <pt x="0" y="940" on="1"/>
        <pt x="365" y="940" on="1"/>
        <pt x="365" y="1675" on="1"/>
        <pt x="567" y="1675" on="1"/>
        <pt x="567" y="737" on="1"/>
        <pt x="195" y="737" on="1"/>
        <pt x="195" y="365" on="1"/>
        <pt x="0" y="365" on="1"/>
        <pt x="0" y="567" on="1"/>
      </contour>
    </TTGlyph>
    <TTGlyph name="SF360000" xMin="365" yMin="-373" xMax="1118" yMax="1675">
      <contour>
        <pt x="365" y="737" on="1"/>
        <pt x="365" y="1675" on="1"/>
        <pt x="567" y="1675" on="1"/>
        <pt x="567" y="940" on="1"/>
        <pt x="1118" y="940" on="1"/>
        <pt x="1118" y="737" on="1"/>
      </contour>
      <contour>
        <pt x="1118" y="567" on="1"/>
        <pt x="1118" y="365" on="1"/>
        <pt x="567" y="365" on="1"/>
        <pt x="567" y="-373" on="1"/>
        <pt x="365" y="-373" on="1"/>
        <pt x="365" y="567" on="1"/>
      </contour>
    </TTGlyph>
    <TTGlyph name="SF370000" xMin="178" yMin="-373" xMax="1118" yMax="1675">
      <contour>
        <pt x="381" y="-373" on="1"/>
        <pt x="178" y="-373" on="1"/>
        <pt x="178" y="1675" on="1"/>
        <pt x="381" y="1675" on="1"/>
      </contour>
      <contour>
        <pt x="551" y="1675" on="1"/>
        <pt x="754" y="1675" on="1"/>
        <pt x="754" y="754" on="1"/>
        <pt x="1118" y="754" on="1"/>
        <pt x="1118" y="551" on="1"/>
        <pt x="754" y="551" on="1"/>
        <pt x="754" y="-373" on="1"/>
        <pt x="551" y="-373" on="1"/>
      </contour>
    </TTGlyph>
    <TTGlyph name="SF380000" xMin="178" yMin="365" xMax="1118" yMax="1675">
      <contour>
        <pt x="178" y="365" on="1"/>
        <pt x="178" y="1675" on="1"/>
        <pt x="381" y="1675" on="1"/>
        <pt x="381" y="567" on="1"/>
        <pt x="1118" y="567" on="1"/>
        <pt x="1118" y="365" on="1"/>
      </contour>
      <contour>
        <pt x="551" y="737" on="1"/>
        <pt x="551" y="1675" on="1"/>
        <pt x="754" y="1675" on="1"/>
        <pt x="754" y="940" on="1"/>
        <pt x="1118" y="940" on="1"/>
        <pt x="1118" y="737" on="1"/>
      </contour>
    </TTGlyph>
    <TTGlyph name="SF390000" xMin="178" yMin="-373" xMax="1118" yMax="940">
      <contour>
        <pt x="381" y="737" on="1"/>
        <pt x="381" y="-373" on="1"/>
        <pt x="178" y="-373" on="1"/>
        <pt x="178" y="940" on="1"/>
        <pt x="1118" y="940" on="1"/>
        <pt x="1118" y="737" on="1"/>
      </contour>
      <contour>
        <pt x="1118" y="567" on="1"/>
        <pt x="1118" y="365" on="1"/>
        <pt x="754" y="365" on="1"/>
        <pt x="754" y="-373" on="1"/>
        <pt x="551" y="-373" on="1"/>
        <pt x="551" y="567" on="1"/>
      </contour>
    </TTGlyph>
    <TTGlyph name="SF400000" xMin="0" yMin="365" xMax="1118" yMax="1675">
      <contour>
        <pt x="0" y="737" on="1"/>
        <pt x="0" y="940" on="1"/>
        <pt x="178" y="940" on="1"/>
        <pt x="178" y="1675" on="1"/>
        <pt x="381" y="1675" on="1"/>
        <pt x="381" y="737" on="1"/>
      </contour>
      <contour>
        <pt x="551" y="737" on="1"/>
        <pt x="551" y="1675" on="1"/>
        <pt x="754" y="1675" on="1"/>
        <pt x="754" y="940" on="1"/>
        <pt x="1118" y="940" on="1"/>
        <pt x="1118" y="737" on="1"/>
      </contour>
      <contour>
        <pt x="1118" y="567" on="1"/>
        <pt x="1118" y="365" on="1"/>
        <pt x="0" y="365" on="1"/>
        <pt x="0" y="567" on="1"/>
      </contour>
    </TTGlyph>
    <TTGlyph name="SF410000" xMin="0" yMin="-373" xMax="1118" yMax="940">
      <contour>
        <pt x="381" y="567" on="1"/>
        <pt x="381" y="-373" on="1"/>
        <pt x="178" y="-373" on="1"/>
        <pt x="178" y="365" on="1"/>
        <pt x="0" y="365" on="1"/>
        <pt x="0" y="567" on="1"/>
      </contour>
      <contour>
        <pt x="1118" y="940" on="1"/>
        <pt x="1118" y="737" on="1"/>
        <pt x="0" y="737" on="1"/>
        <pt x="0" y="940" on="1"/>
      </contour>
      <contour>
        <pt x="1118" y="567" on="1"/>
        <pt x="1118" y="365" on="1"/>
        <pt x="754" y="365" on="1"/>
        <pt x="754" y="-373" on="1"/>
        <pt x="551" y="-373" on="1"/>
        <pt x="551" y="567" on="1"/>
      </contour>
    </TTGlyph>
    <TTGlyph name="SF420000" xMin="178" yMin="-373" xMax="1118" yMax="1675">
      <contour>
        <pt x="381" y="-373" on="1"/>
        <pt x="178" y="-373" on="1"/>
        <pt x="178" y="1675" on="1"/>
        <pt x="381" y="1675" on="1"/>
      </contour>
      <contour>
        <pt x="551" y="737" on="1"/>
        <pt x="551" y="1675" on="1"/>
        <pt x="754" y="1675" on="1"/>
        <pt x="754" y="940" on="1"/>
        <pt x="1118" y="940" on="1"/>
        <pt x="1118" y="737" on="1"/>
      </contour>
      <contour>
        <pt x="1118" y="567" on="1"/>
        <pt x="1118" y="365" on="1"/>
        <pt x="754" y="365" on="1"/>
        <pt x="754" y="-373" on="1"/>
        <pt x="551" y="-373" on="1"/>
        <pt x="551" y="567" on="1"/>
      </contour>
    </TTGlyph>
    <TTGlyph name="SF430000" xMin="0" yMin="365" xMax="1118" yMax="940">
      <contour>
        <pt x="1118" y="940" on="1"/>
        <pt x="1118" y="737" on="1"/>
        <pt x="0" y="737" on="1"/>
        <pt x="0" y="940" on="1"/>
      </contour>
      <contour>
        <pt x="1118" y="567" on="1"/>
        <pt x="1118" y="365" on="1"/>
        <pt x="0" y="365" on="1"/>
        <pt x="0" y="567" on="1"/>
      </contour>
    </TTGlyph>
    <TTGlyph name="SF440000" xMin="0" yMin="-373" xMax="1118" yMax="1675">
      <contour>
        <pt x="0" y="737" on="1"/>
        <pt x="0" y="940" on="1"/>
        <pt x="178" y="940" on="1"/>
        <pt x="178" y="1675" on="1"/>
        <pt x="381" y="1675" on="1"/>
        <pt x="381" y="737" on="1"/>
      </contour>
      <contour>
        <pt x="383" y="567" on="1"/>
        <pt x="383" y="-373" on="1"/>
        <pt x="180" y="-373" on="1"/>
        <pt x="180" y="365" on="1"/>
        <pt x="0" y="365" on="1"/>
        <pt x="0" y="567" on="1"/>
      </contour>
      <contour>
        <pt x="551" y="737" on="1"/>
        <pt x="551" y="1675" on="1"/>
        <pt x="754" y="1675" on="1"/>
        <pt x="754" y="940" on="1"/>
        <pt x="1118" y="940" on="1"/>
        <pt x="1118" y="737" on="1"/>
      </contour>
      <contour>
        <pt x="1118" y="567" on="1"/>
        <pt x="1118" y="365" on="1"/>
        <pt x="748" y="365" on="1"/>
        <pt x="748" y="-373" on="1"/>
        <pt x="547" y="-373" on="1"/>
        <pt x="547" y="567" on="1"/>
      </contour>
    </TTGlyph>
    <TTGlyph name="SF450000" xMin="0" yMin="365" xMax="1118" yMax="1675">
      <contour>
        <pt x="0" y="737" on="1"/>
        <pt x="0" y="940" on="1"/>
        <pt x="365" y="940" on="1"/>
        <pt x="365" y="1675" on="1"/>
        <pt x="567" y="1675" on="1"/>
        <pt x="567" y="940" on="1"/>
        <pt x="1118" y="940" on="1"/>
        <pt x="1118" y="737" on="1"/>
      </contour>
      <contour>
        <pt x="1118" y="567" on="1"/>
        <pt x="1118" y="365" on="1"/>
        <pt x="0" y="365" on="1"/>
        <pt x="0" y="567" on="1"/>
      </contour>
    </TTGlyph>
    <TTGlyph name="SF460000" xMin="0" yMin="551" xMax="1118" yMax="1675">
      <contour>
        <pt x="0" y="551" on="1"/>
        <pt x="0" y="754" on="1"/>
        <pt x="178" y="754" on="1"/>
        <pt x="178" y="1675" on="1"/>
        <pt x="381" y="1675" on="1"/>
        <pt x="381" y="551" on="1"/>
      </contour>
      <contour>
        <pt x="551" y="551" on="1"/>
        <pt x="551" y="1675" on="1"/>
        <pt x="754" y="1675" on="1"/>
        <pt x="754" y="754" on="1"/>
        <pt x="1118" y="754" on="1"/>
        <pt x="1118" y="551" on="1"/>
      </contour>
    </TTGlyph>
    <TTGlyph name="SF470000" xMin="0" yMin="-373" xMax="1118" yMax="940">
      <contour>
        <pt x="0" y="365" on="1"/>
        <pt x="0" y="567" on="1"/>
        <pt x="1118" y="567" on="1"/>
        <pt x="1118" y="365" on="1"/>
        <pt x="567" y="365" on="1"/>
        <pt x="567" y="-373" on="1"/>
        <pt x="365" y="-373" on="1"/>
        <pt x="365" y="365" on="1"/>
      </contour>
      <contour>
        <pt x="1118" y="940" on="1"/>
        <pt x="1118" y="737" on="1"/>
        <pt x="0" y="737" on="1"/>
        <pt x="0" y="940" on="1"/>
      </contour>
    </TTGlyph>
    <TTGlyph name="SF480000" xMin="0" yMin="-373" xMax="1118" yMax="754">
      <contour>
        <pt x="381" y="754" on="1"/>
        <pt x="381" y="-373" on="1"/>
        <pt x="178" y="-373" on="1"/>
        <pt x="178" y="551" on="1"/>
        <pt x="0" y="551" on="1"/>
        <pt x="0" y="754" on="1"/>
      </contour>
      <contour>
        <pt x="1118" y="754" on="1"/>
        <pt x="1118" y="551" on="1"/>
        <pt x="754" y="551" on="1"/>
        <pt x="754" y="-373" on="1"/>
        <pt x="551" y="-373" on="1"/>
        <pt x="551" y="754" on="1"/>
      </contour>
    </TTGlyph>
    <TTGlyph name="SF490000" xMin="178" yMin="551" xMax="1118" yMax="1675">
      <contour>
        <pt x="551" y="551" on="1"/>
        <pt x="551" y="924" on="1"/>
        <pt x="178" y="924" on="1"/>
        <pt x="178" y="1675" on="1"/>
        <pt x="381" y="1675" on="1"/>
        <pt x="381" y="1126" on="1"/>
        <pt x="551" y="1126" on="1"/>
        <pt x="551" y="1675" on="1"/>
        <pt x="754" y="1675" on="1"/>
        <pt x="754" y="754" on="1"/>
        <pt x="1118" y="754" on="1"/>
        <pt x="1118" y="551" on="1"/>
      </contour>
    </TTGlyph>
    <TTGlyph name="SF500000" xMin="365" yMin="365" xMax="1118" yMax="1675">
      <contour>
        <pt x="737" y="365" on="1"/>
        <pt x="737" y="737" on="1"/>
        <pt x="365" y="737" on="1"/>
        <pt x="365" y="1675" on="1"/>
        <pt x="567" y="1675" on="1"/>
        <pt x="567" y="940" on="1"/>
        <pt x="1118" y="940" on="1"/>
        <pt x="1118" y="737" on="1"/>
        <pt x="940" y="737" on="1"/>
        <pt x="940" y="567" on="1"/>
        <pt x="1118" y="567" on="1"/>
        <pt x="1118" y="365" on="1"/>
      </contour>
    </TTGlyph>
    <TTGlyph name="SF510000" xMin="365" yMin="-373" xMax="1118" yMax="940">
      <contour>
        <pt x="1118" y="567" on="1"/>
        <pt x="1118" y="365" on="1"/>
        <pt x="567" y="365" on="1"/>
        <pt x="567" y="-373" on="1"/>
        <pt x="365" y="-373" on="1"/>
        <pt x="365" y="567" on="1"/>
        <pt x="737" y="567" on="1"/>
        <pt x="737" y="940" on="1"/>
        <pt x="1118" y="940" on="1"/>
        <pt x="1118" y="737" on="1"/>
        <pt x="940" y="737" on="1"/>
        <pt x="940" y="567" on="1"/>
      </contour>
    </TTGlyph>
    <TTGlyph name="SF520000" xMin="178" yMin="-373" xMax="1118" yMax="754">
      <contour>
        <pt x="1118" y="754" on="1"/>
        <pt x="1118" y="551" on="1"/>
        <pt x="754" y="551" on="1"/>
        <pt x="754" y="-373" on="1"/>
        <pt x="551" y="-373" on="1"/>
        <pt x="551" y="178" on="1"/>
        <pt x="381" y="178" on="1"/>
        <pt x="381" y="-373" on="1"/>
        <pt x="178" y="-373" on="1"/>
        <pt x="178" y="381" on="1"/>
        <pt x="551" y="381" on="1"/>
        <pt x="551" y="754" on="1"/>
      </contour>
    </TTGlyph>
    <TTGlyph name="SF530000" xMin="0" yMin="-373" xMax="1118" yMax="1675">
      <contour>
        <pt x="1118" y="754" on="1"/>
        <pt x="1118" y="551" on="1"/>
        <pt x="754" y="551" on="1"/>
        <pt x="754" y="-373" on="1"/>
        <pt x="551" y="-373" on="1"/>
        <pt x="551" y="1675" on="1"/>
        <pt x="754" y="1675" on="1"/>
        <pt x="754" y="754" on="1"/>
      </contour>
      <contour>
        <pt x="381" y="1675" on="1"/>
        <pt x="381" y="-373" on="1"/>
        <pt x="178" y="-373" on="1"/>
        <pt x="178" y="551" on="1"/>
        <pt x="0" y="551" on="1"/>
        <pt x="0" y="754" on="1"/>
        <pt x="178" y="754" on="1"/>
        <pt x="178" y="1675" on="1"/>
      </contour>
    </TTGlyph>
    <TTGlyph name="SF540000" xMin="0" yMin="-373" xMax="1118" yMax="1675">
      <contour>
        <pt x="0" y="737" on="1"/>
        <pt x="0" y="940" on="1"/>
        <pt x="365" y="940" on="1"/>
        <pt x="365" y="1675" on="1"/>
        <pt x="567" y="1675" on="1"/>
        <pt x="567" y="940" on="1"/>
        <pt x="1118" y="940" on="1"/>
        <pt x="1118" y="737" on="1"/>
      </contour>
      <contour>
        <pt x="1118" y="567" on="1"/>
        <pt x="1118" y="365" on="1"/>
        <pt x="567" y="365" on="1"/>
        <pt x="567" y="-373" on="1"/>
        <pt x="365" y="-373" on="1"/>
        <pt x="365" y="365" on="1"/>
        <pt x="0" y="365" on="1"/>
        <pt x="0" y="567" on="1"/>
      </contour>
    </TTGlyph>
    <TTGlyph name="Sacute" xMin="27" yMin="-23" xMax="899" yMax="1776">
      <component glyphName="S" x="0" y="0" flags="0x204"/>
      <component glyphName="acute" x="0" y="371" flags="0x4"/>
    </TTGlyph>
    <TTGlyph name="Scaron" xMin="27" yMin="-23" xMax="899" yMax="1770">
      <component glyphName="S" x="0" y="0" flags="0x204"/>
      <component glyphName="caron" x="0" y="371" flags="0x4"/>
    </TTGlyph>
    <TTGlyph name="Scedilla" xMin="27" yMin="-371" xMax="899" yMax="1327">
      <contour>
        <pt x="899" y="358" on="1"/>
        <pt x="899" y="281" on="0"/>
        <pt x="852" y="154" on="0"/>
        <pt x="770" y="57" on="0"/>
        <pt x="657" y="-2" on="0"/>
        <pt x="590" y="-14" on="1"/>
        <pt x="590" y="-41" on="1"/>
        <pt x="590" y="-111" on="0"/>
        <pt x="543" y="-231" on="0"/>
        <pt x="453" y="-319" on="0"/>
        <pt x="324" y="-371" on="0"/>
        <pt x="242" y="-371" on="1"/>
        <pt x="242" y="-193" on="1"/>
        <pt x="330" y="-193" on="0"/>
        <pt x="414" y="-113" on="0"/>
        <pt x="414" y="-41" on="1"/>
        <pt x="414" y="-14" on="1"/>
        <pt x="291" y="10" on="0"/>
        <pt x="213" y="119" on="1"/>
        <pt x="213" y="0" on="1"/>
        <pt x="27" y="0" on="1"/>
        <pt x="27" y="426" on="1"/>
        <pt x="213" y="426" on="1"/>
        <pt x="213" y="362" on="0"/>
        <pt x="258" y="264" on="0"/>
        <pt x="332" y="197" on="0"/>
        <pt x="430" y="162" on="0"/>
        <pt x="485" y="162" on="1"/>
        <pt x="578" y="162" on="0"/>
        <pt x="692" y="248" on="0"/>
        <pt x="692" y="342" on="1"/>
        <pt x="692" y="391" on="0"/>
        <pt x="657" y="461" on="0"/>
        <pt x="592" y="516" on="0"/>
        <pt x="498" y="557" on="0"/>
        <pt x="438" y="580" on="1"/>
        <pt x="367" y="604" on="0"/>
        <pt x="225" y="664" on="0"/>
        <pt x="113" y="752" on="0"/>
        <pt x="43" y="881" on="0"/>
        <pt x="43" y="979" on="1"/>
        <pt x="43" y="1065" on="0"/>
        <pt x="106" y="1194" on="0"/>
        <pt x="211" y="1282" on="0"/>
        <pt x="350" y="1327" on="0"/>
        <pt x="428" y="1327" on="1"/>
        <pt x="518" y="1327" on="0"/>
        <pt x="647" y="1251" on="0"/>
        <pt x="682" y="1188" on="1"/>
        <pt x="682" y="1305" on="1"/>
        <pt x="868" y="1305" on="1"/>
        <pt x="868" y="899" on="1"/>
        <pt x="682" y="899" on="1"/>
        <pt x="682" y="1014" on="0"/>
        <pt x="561" y="1143" on="0"/>
        <pt x="459" y="1143" on="1"/>
        <pt x="369" y="1143" on="0"/>
        <pt x="250" y="1059" on="0"/>
        <pt x="250" y="983" on="1"/>
        <pt x="250" y="944" on="0"/>
        <pt x="281" y="889" on="0"/>
        <pt x="340" y="844" on="0"/>
        <pt x="430" y="805" on="0"/>
        <pt x="489" y="782" on="1"/>
        <pt x="563" y="756" on="0"/>
        <pt x="709" y="690" on="0"/>
        <pt x="825" y="594" on="0"/>
        <pt x="899" y="457" on="0"/>
      </contour>
    </TTGlyph>
    <TTGlyph name="Scircumflex" xMin="27" yMin="-23" xMax="899" yMax="1770">
      <component glyphName="S" x="0" y="0" flags="0x204"/>
      <component glyphName="circumflex" x="0" y="371" flags="0x4"/>
    </TTGlyph>
    <TTGlyph name="Scommaaccent" xMin="27" yMin="-373" xMax="899" yMax="1327">
      <component glyphName="S" x="0" y="0" flags="0x204"/>
      <component glyphName="commaaccent" x="0" y="0" flags="0x4"/>
    </TTGlyph>
    <TTGlyph name="Sigma" xMin="43" yMin="0" xMax="883" yMax="1305">
      <contour>
        <pt x="883" y="0" on="1"/>
        <pt x="43" y="0" on="1"/>
        <pt x="43" y="186" on="1"/>
        <pt x="338" y="651" on="1"/>
        <pt x="43" y="1118" on="1"/>
        <pt x="43" y="1305" on="1"/>
        <pt x="883" y="1305" on="1"/>
        <pt x="883" y="864" on="1"/>
        <pt x="696" y="864" on="1"/>
        <pt x="696" y="1118" on="1"/>
        <pt x="295" y="1118" on="1"/>
        <pt x="582" y="651" on="1"/>
        <pt x="295" y="186" on="1"/>
        <pt x="696" y="186" on="1"/>
        <pt x="696" y="442" on="1"/>
        <pt x="883" y="442" on="1"/>
      </contour>
    </TTGlyph>
    <TTGlyph name="T" xMin="0" yMin="0" xMax="930" yMax="1305">
      <contour>
        <pt x="930" y="829" on="1"/>
        <pt x="745" y="829" on="1"/>
        <pt x="745" y="1118" on="1"/>
        <pt x="569" y="1118" on="1"/>
        <pt x="569" y="186" on="1"/>
        <pt x="776" y="186" on="1"/>
        <pt x="776" y="0" on="1"/>
        <pt x="156" y="0" on="1"/>
        <pt x="156" y="186" on="1"/>
        <pt x="362" y="186" on="1"/>
        <pt x="362" y="1118" on="1"/>
        <pt x="184" y="1118" on="1"/>
        <pt x="184" y="829" on="1"/>
        <pt x="0" y="829" on="1"/>
        <pt x="0" y="1305" on="1"/>
        <pt x="930" y="1305" on="1"/>
      </contour>
    </TTGlyph>
    <TTGlyph name="Tau" xMin="0" yMin="0" xMax="930" yMax="1305">
      <contour>
        <pt x="930" y="829" on="1"/>
        <pt x="745" y="829" on="1"/>
        <pt x="745" y="1118" on="1"/>
        <pt x="569" y="1118" on="1"/>
        <pt x="569" y="186" on="1"/>
        <pt x="776" y="186" on="1"/>
        <pt x="776" y="0" on="1"/>
        <pt x="156" y="0" on="1"/>
        <pt x="156" y="186" on="1"/>
        <pt x="362" y="186" on="1"/>
        <pt x="362" y="1118" on="1"/>
        <pt x="184" y="1118" on="1"/>
        <pt x="184" y="829" on="1"/>
        <pt x="0" y="829" on="1"/>
        <pt x="0" y="1305" on="1"/>
        <pt x="930" y="1305" on="1"/>
      </contour>
    </TTGlyph>
    <TTGlyph name="Tbar" xMin="0" yMin="0" xMax="930" yMax="1305">
      <contour>
        <pt x="745" y="571" on="1"/>
        <pt x="569" y="571" on="1"/>
        <pt x="569" y="186" on="1"/>
        <pt x="776" y="186" on="1"/>
        <pt x="776" y="0" on="1"/>
        <pt x="156" y="0" on="1"/>
        <pt x="156" y="186" on="1"/>
        <pt x="362" y="186" on="1"/>
        <pt x="362" y="571" on="1"/>
        <pt x="186" y="571" on="1"/>
        <pt x="186" y="745" on="1"/>
        <pt x="362" y="745" on="1"/>
        <pt x="362" y="1118" on="1"/>
        <pt x="184" y="1118" on="1"/>
        <pt x="184" y="829" on="1"/>
        <pt x="0" y="829" on="1"/>
        <pt x="0" y="1305" on="1"/>
        <pt x="930" y="1305" on="1"/>
        <pt x="930" y="829" on="1"/>
        <pt x="745" y="829" on="1"/>
        <pt x="745" y="1118" on="1"/>
        <pt x="569" y="1118" on="1"/>
        <pt x="569" y="745" on="1"/>
        <pt x="745" y="745" on="1"/>
      </contour>
    </TTGlyph>
    <TTGlyph name="Tcaron" xMin="0" yMin="0" xMax="930" yMax="1770">
      <component glyphName="T" x="0" y="0" flags="0x204"/>
      <component glyphName="caron" x="0" y="371" flags="0x4"/>
    </TTGlyph>
    <TTGlyph name="Tcommaaccent" xMin="0" yMin="-373" xMax="930" yMax="1305">
      <component glyphName="T" x="0" y="0" flags="0x204"/>
      <component glyphName="commaaccent" x="0" y="0" flags="0x4"/>
    </TTGlyph>
    <TTGlyph name="Theta" xMin="-33" yMin="-23" xMax="967" yMax="1327">
      <contour>
        <pt x="229" y="758" on="1"/>
        <pt x="700" y="758" on="1"/>
        <pt x="700" y="571" on="1"/>
        <pt x="229" y="571" on="1"/>
      </contour>
      <contour>
        <pt x="-33" y="653" on="1"/>
        <pt x="-33" y="784" on="0"/>
        <pt x="23" y="1028" on="0"/>
        <pt x="141" y="1214" on="0"/>
        <pt x="332" y="1327" on="0"/>
        <pt x="467" y="1327" on="1"/>
        <pt x="602" y="1327" on="0"/>
        <pt x="793" y="1214" on="0"/>
        <pt x="913" y="1028" on="0"/>
        <pt x="967" y="784" on="0"/>
        <pt x="967" y="653" on="1"/>
        <pt x="967" y="522" on="0"/>
        <pt x="913" y="279" on="0"/>
        <pt x="795" y="90" on="0"/>
        <pt x="604" y="-23" on="0"/>
        <pt x="467" y="-23" on="1"/>
        <pt x="330" y="-23" on="0"/>
        <pt x="139" y="90" on="0"/>
        <pt x="20" y="279" on="0"/>
        <pt x="-33" y="522" on="0"/>
      </contour>
      <contour>
        <pt x="174" y="653" on="1"/>
        <pt x="174" y="565" on="0"/>
        <pt x="201" y="389" on="0"/>
        <pt x="266" y="250" on="0"/>
        <pt x="379" y="164" on="0"/>
        <pt x="467" y="164" on="1"/>
        <pt x="555" y="164" on="0"/>
        <pt x="668" y="250" on="0"/>
        <pt x="733" y="389" on="0"/>
        <pt x="760" y="565" on="0"/>
        <pt x="760" y="653" on="1"/>
        <pt x="760" y="741" on="0"/>
        <pt x="733" y="915" on="0"/>
        <pt x="668" y="1055" on="0"/>
        <pt x="553" y="1141" on="0"/>
        <pt x="467" y="1141" on="1"/>
        <pt x="324" y="1141" on="0"/>
        <pt x="174" y="883" on="0"/>
      </contour>
    </TTGlyph>
    <TTGlyph name="Thorn" xMin="49" yMin="0" xMax="932" yMax="1305">
      <contour>
        <pt x="932" y="664" on="1"/>
        <pt x="932" y="467" on="0"/>
        <pt x="694" y="279" on="0"/>
        <pt x="481" y="279" on="1"/>
        <pt x="256" y="279" on="1"/>
        <pt x="256" y="0" on="1"/>
        <pt x="49" y="0" on="1"/>
        <pt x="49" y="1305" on="1"/>
        <pt x="256" y="1305" on="1"/>
        <pt x="256" y="1049" on="1"/>
        <pt x="479" y="1049" on="1"/>
        <pt x="694" y="1049" on="0"/>
        <pt x="932" y="856" on="0"/>
      </contour>
      <contour>
        <pt x="727" y="664" on="1"/>
        <pt x="727" y="764" on="0"/>
        <pt x="594" y="862" on="0"/>
        <pt x="481" y="862" on="1"/>
        <pt x="256" y="862" on="1"/>
        <pt x="256" y="465" on="1"/>
        <pt x="481" y="465" on="1"/>
        <pt x="594" y="465" on="0"/>
        <pt x="727" y="561" on="0"/>
      </contour>
    </TTGlyph>
    <TTGlyph name="U" xMin="49" yMin="-23" xMax="883" yMax="1305">
      <contour>
        <pt x="883" y="465" on="1"/>
        <pt x="883" y="354" on="0"/>
        <pt x="834" y="174" on="0"/>
        <pt x="731" y="47" on="0"/>
        <pt x="573" y="-23" on="0"/>
        <pt x="465" y="-23" on="1"/>
        <pt x="356" y="-23" on="0"/>
        <pt x="201" y="47" on="0"/>
        <pt x="98" y="174" on="0"/>
        <pt x="49" y="356" on="0"/>
        <pt x="49" y="467" on="1"/>
        <pt x="49" y="1305" on="1"/>
        <pt x="256" y="1305" on="1"/>
        <pt x="256" y="465" on="1"/>
        <pt x="256" y="416" on="0"/>
        <pt x="270" y="311" on="0"/>
        <pt x="313" y="221" on="0"/>
        <pt x="397" y="164" on="0"/>
        <pt x="465" y="164" on="1"/>
        <pt x="532" y="164" on="0"/>
        <pt x="616" y="221" on="0"/>
        <pt x="662" y="309" on="0"/>
        <pt x="676" y="416" on="0"/>
        <pt x="676" y="465" on="1"/>
        <pt x="676" y="1305" on="1"/>
        <pt x="883" y="1305" on="1"/>
      </contour>
    </TTGlyph>
    <TTGlyph name="Uacute" xMin="49" yMin="-23" xMax="883" yMax="1776">
      <component glyphName="U" x="0" y="0" flags="0x204"/>
      <component glyphName="acute" x="0" y="371" flags="0x4"/>
    </TTGlyph>
    <TTGlyph name="Ubreve" xMin="49" yMin="-23" xMax="883" yMax="1657">
      <component glyphName="U" x="0" y="0" flags="0x204"/>
      <component glyphName="breve" x="0" y="371" flags="0x4"/>
    </TTGlyph>
    <TTGlyph name="Ucircumflex" xMin="49" yMin="-23" xMax="883" yMax="1770">
      <component glyphName="U" x="0" y="0" flags="0x204"/>
      <component glyphName="circumflex" x="0" y="371" flags="0x4"/>
    </TTGlyph>
    <TTGlyph name="Udieresis" xMin="49" yMin="-23" xMax="883" yMax="1676">
      <component glyphName="U" x="0" y="0" flags="0x204"/>
      <component glyphName="dieresis" x="0" y="371" flags="0x4"/>
    </TTGlyph>
    <TTGlyph name="Ugrave" xMin="49" yMin="-23" xMax="883" yMax="1776">
      <component glyphName="U" x="0" y="0" flags="0x204"/>
      <component glyphName="grave" x="0" y="371" flags="0x4"/>
    </TTGlyph>
    <TTGlyph name="Uhungarumlaut" xMin="49" yMin="-23" xMax="885" yMax="1770">
      <component glyphName="U" x="0" y="0" flags="0x204"/>
      <component glyphName="hungarumlaut" x="0" y="371" flags="0x4"/>
    </TTGlyph>
    <TTGlyph name="Umacron" xMin="49" yMin="-23" xMax="883" yMax="1590">
      <component glyphName="U" x="0" y="0" flags="0x204"/>
      <component glyphName="macron" x="0" y="371" flags="0x4"/>
    </TTGlyph>
    <TTGlyph name="Uogonek" xMin="49" yMin="-379" xMax="883" yMax="1305">
      <contour>
        <pt x="731" y="-379" on="1"/>
        <pt x="596" y="-379" on="0"/>
        <pt x="438" y="-260" on="0"/>
        <pt x="438" y="-141" on="1"/>
        <pt x="438" y="-76" on="0"/>
        <pt x="475" y="-23" on="1"/>
        <pt x="465" y="-23" on="1"/>
        <pt x="356" y="-23" on="0"/>
        <pt x="201" y="47" on="0"/>
        <pt x="98" y="174" on="0"/>
        <pt x="49" y="356" on="0"/>
        <pt x="49" y="467" on="1"/>
        <pt x="49" y="1305" on="1"/>
        <pt x="256" y="1305" on="1"/>
        <pt x="256" y="465" on="1"/>
        <pt x="256" y="416" on="0"/>
        <pt x="270" y="311" on="0"/>
        <pt x="313" y="221" on="0"/>
        <pt x="397" y="164" on="0"/>
        <pt x="465" y="164" on="1"/>
        <pt x="532" y="164" on="0"/>
        <pt x="616" y="221" on="0"/>
        <pt x="662" y="309" on="0"/>
        <pt x="676" y="416" on="0"/>
        <pt x="676" y="465" on="1"/>
        <pt x="676" y="1305" on="1"/>
        <pt x="883" y="1305" on="1"/>
        <pt x="883" y="465" on="1"/>
        <pt x="883" y="285" on="0"/>
        <pt x="754" y="43" on="0"/>
        <pt x="618" y="0" on="1"/>
        <pt x="580" y="-43" on="0"/>
        <pt x="580" y="-104" on="1"/>
        <pt x="580" y="-168" on="0"/>
        <pt x="668" y="-231" on="0"/>
        <pt x="731" y="-231" on="1"/>
      </contour>
    </TTGlyph>
    <TTGlyph name="Upsilon" xMin="-20" yMin="0" xMax="952" yMax="1305">
      <contour>
        <pt x="952" y="1118" on="1"/>
        <pt x="858" y="1118" on="1"/>
        <pt x="569" y="532" on="1"/>
        <pt x="569" y="186" on="1"/>
        <pt x="778" y="186" on="1"/>
        <pt x="778" y="0" on="1"/>
        <pt x="154" y="0" on="1"/>
        <pt x="154" y="186" on="1"/>
        <pt x="362" y="186" on="1"/>
        <pt x="362" y="532" on="1"/>
        <pt x="74" y="1118" on="1"/>
        <pt x="-20" y="1118" on="1"/>
        <pt x="-20" y="1305" on="1"/>
        <pt x="391" y="1305" on="1"/>
        <pt x="391" y="1118" on="1"/>
        <pt x="301" y="1118" on="1"/>
        <pt x="467" y="735" on="1"/>
        <pt x="631" y="1118" on="1"/>
        <pt x="541" y="1118" on="1"/>
        <pt x="541" y="1305" on="1"/>
        <pt x="952" y="1305" on="1"/>
      </contour>
    </TTGlyph>
    <TTGlyph name="Upsilondieresis" xMin="-20" yMin="0" xMax="952" yMax="1676">
      <component glyphName="Upsilon" x="0" y="0" flags="0x204"/>
      <component glyphName="dieresis" x="0" y="371" flags="0x4"/>
    </TTGlyph>
    <TTGlyph name="Upsilontonos" xMin="-186" yMin="0" xMax="952" yMax="1675">
      <contour>
        <pt x="952" y="1118" on="1"/>
        <pt x="858" y="1118" on="1"/>
        <pt x="569" y="532" on="1"/>
        <pt x="569" y="186" on="1"/>
        <pt x="778" y="186" on="1"/>
        <pt x="778" y="0" on="1"/>
        <pt x="154" y="0" on="1"/>
        <pt x="154" y="186" on="1"/>
        <pt x="362" y="186" on="1"/>
        <pt x="362" y="532" on="1"/>
        <pt x="74" y="1118" on="1"/>
        <pt x="49" y="1118" on="1"/>
        <pt x="49" y="1305" on="1"/>
        <pt x="391" y="1305" on="1"/>
        <pt x="391" y="1118" on="1"/>
        <pt x="301" y="1118" on="1"/>
        <pt x="467" y="735" on="1"/>
        <pt x="631" y="1118" on="1"/>
        <pt x="541" y="1118" on="1"/>
        <pt x="541" y="1305" on="1"/>
        <pt x="952" y="1305" on="1"/>
      </contour>
      <contour>
        <pt x="59" y="1675" on="1"/>
        <pt x="-24" y="1118" on="1"/>
        <pt x="-186" y="1118" on="1"/>
        <pt x="-186" y="1675" on="1"/>
      </contour>
    </TTGlyph>
    <TTGlyph name="Uring" xMin="49" yMin="-23" xMax="883" yMax="1854">
      <component glyphName="U" x="0" y="0" flags="0x204"/>
      <component glyphName="ring" x="0" y="371" flags="0x4"/>
    </TTGlyph>
    <TTGlyph name="Utilde" xMin="49" yMin="-23" xMax="883" yMax="1686">
      <component glyphName="U" x="0" y="0" flags="0x204"/>
      <component glyphName="tilde" x="0" y="371" flags="0x4"/>
    </TTGlyph>
    <TTGlyph name="V" xMin="-59" yMin="0" xMax="991" yMax="1305">
      <contour>
        <pt x="991" y="1305" on="1"/>
        <pt x="584" y="0" on="1"/>
        <pt x="348" y="0" on="1"/>
        <pt x="-59" y="1305" on="1"/>
        <pt x="158" y="1305" on="1"/>
        <pt x="467" y="272" on="1"/>
        <pt x="774" y="1305" on="1"/>
      </contour>
    </TTGlyph>
    <TTGlyph name="W" xMin="-63" yMin="0" xMax="995" yMax="1305">
      <contour>
        <pt x="995" y="1305" on="1"/>
        <pt x="793" y="0" on="1"/>
        <pt x="580" y="0" on="1"/>
        <pt x="465" y="563" on="1"/>
        <pt x="352" y="0" on="1"/>
        <pt x="139" y="0" on="1"/>
        <pt x="-63" y="1305" on="1"/>
        <pt x="152" y="1305" on="1"/>
        <pt x="272" y="426" on="1"/>
        <pt x="367" y="932" on="1"/>
        <pt x="565" y="932" on="1"/>
        <pt x="657" y="426" on="1"/>
        <pt x="780" y="1305" on="1"/>
      </contour>
    </TTGlyph>
    <TTGlyph name="Wacute" xMin="-63" yMin="0" xMax="995" yMax="1776">
      <component glyphName="W" x="0" y="0" flags="0x204"/>
      <component glyphName="acute" x="0" y="371" flags="0x4"/>
    </TTGlyph>
    <TTGlyph name="Wcircumflex" xMin="-63" yMin="0" xMax="995" yMax="1770">
      <component glyphName="W" x="0" y="0" flags="0x204"/>
      <component glyphName="circumflex" x="0" y="371" flags="0x4"/>
    </TTGlyph>
    <TTGlyph name="Wdieresis" xMin="-63" yMin="0" xMax="995" yMax="1674">
      <component glyphName="W" x="0" y="0" flags="0x204"/>
      <component glyphName="dieresis" x="0" y="369" flags="0x4"/>
    </TTGlyph>
    <TTGlyph name="Wgrave" xMin="-63" yMin="0" xMax="995" yMax="1776">
      <component glyphName="W" x="0" y="0" flags="0x204"/>
      <component glyphName="grave" x="0" y="371" flags="0x4"/>
    </TTGlyph>
    <TTGlyph name="X" xMin="-23" yMin="0" xMax="952" yMax="1305">
      <contour>
        <pt x="952" y="0" on="1"/>
        <pt x="526" y="0" on="1"/>
        <pt x="526" y="186" on="1"/>
        <pt x="600" y="186" on="1"/>
        <pt x="463" y="481" on="1"/>
        <pt x="326" y="186" on="1"/>
        <pt x="399" y="186" on="1"/>
        <pt x="399" y="0" on="1"/>
        <pt x="-23" y="0" on="1"/>
        <pt x="-23" y="186" on="1"/>
        <pt x="90" y="186" on="1"/>
        <pt x="344" y="659" on="1"/>
        <pt x="94" y="1118" on="1"/>
        <pt x="0" y="1118" on="1"/>
        <pt x="0" y="1305" on="1"/>
        <pt x="414" y="1305" on="1"/>
        <pt x="414" y="1118" on="1"/>
        <pt x="330" y="1118" on="1"/>
        <pt x="463" y="829" on="1"/>
        <pt x="598" y="1118" on="1"/>
        <pt x="516" y="1118" on="1"/>
        <pt x="516" y="1305" on="1"/>
        <pt x="932" y="1305" on="1"/>
        <pt x="932" y="1118" on="1"/>
        <pt x="831" y="1118" on="1"/>
        <pt x="582" y="659" on="1"/>
        <pt x="836" y="186" on="1"/>
        <pt x="952" y="186" on="1"/>
      </contour>
    </TTGlyph>
    <TTGlyph name="Xi" xMin="0" yMin="0" xMax="932" yMax="1305">
      <contour>
        <pt x="0" y="334" on="1"/>
        <pt x="186" y="334" on="1"/>
        <pt x="186" y="186" on="1"/>
        <pt x="745" y="186" on="1"/>
        <pt x="745" y="334" on="1"/>
        <pt x="932" y="334" on="1"/>
        <pt x="932" y="0" on="1"/>
        <pt x="0" y="0" on="1"/>
      </contour>
      <contour>
        <pt x="745" y="1118" on="1"/>
        <pt x="186" y="1118" on="1"/>
        <pt x="186" y="969" on="1"/>
        <pt x="0" y="969" on="1"/>
        <pt x="0" y="1305" on="1"/>
        <pt x="932" y="1305" on="1"/>
        <pt x="932" y="969" on="1"/>
        <pt x="745" y="969" on="1"/>
      </contour>
      <contour>
        <pt x="186" y="758" on="1"/>
        <pt x="745" y="758" on="1"/>
        <pt x="745" y="571" on="1"/>
        <pt x="186" y="571" on="1"/>
      </contour>
    </TTGlyph>
    <TTGlyph name="Y" xMin="-20" yMin="0" xMax="952" yMax="1305">
      <contour>
        <pt x="952" y="1118" on="1"/>
        <pt x="858" y="1118" on="1"/>
        <pt x="569" y="532" on="1"/>
        <pt x="569" y="186" on="1"/>
        <pt x="778" y="186" on="1"/>
        <pt x="778" y="0" on="1"/>
        <pt x="154" y="0" on="1"/>
        <pt x="154" y="186" on="1"/>
        <pt x="362" y="186" on="1"/>
        <pt x="362" y="532" on="1"/>
        <pt x="74" y="1118" on="1"/>
        <pt x="-20" y="1118" on="1"/>
        <pt x="-20" y="1305" on="1"/>
        <pt x="391" y="1305" on="1"/>
        <pt x="391" y="1118" on="1"/>
        <pt x="301" y="1118" on="1"/>
        <pt x="467" y="735" on="1"/>
        <pt x="631" y="1118" on="1"/>
        <pt x="541" y="1118" on="1"/>
        <pt x="541" y="1305" on="1"/>
        <pt x="952" y="1305" on="1"/>
      </contour>
    </TTGlyph>
    <TTGlyph name="Yacute" xMin="-20" yMin="0" xMax="952" yMax="1776">
      <component glyphName="Y" x="0" y="0" flags="0x204"/>
      <component glyphName="acute" x="0" y="371" flags="0x4"/>
    </TTGlyph>
    <TTGlyph name="Ycircumflex" xMin="-20" yMin="0" xMax="952" yMax="1770">
      <component glyphName="Y" x="0" y="0" flags="0x204"/>
      <component glyphName="circumflex" x="0" y="371" flags="0x4"/>
    </TTGlyph>
    <TTGlyph name="Ydieresis" xMin="-20" yMin="0" xMax="952" yMax="1676">
      <component glyphName="Y" x="0" y="0" flags="0x204"/>
      <component glyphName="dieresis" x="0" y="371" flags="0x4"/>
    </TTGlyph>
    <TTGlyph name="Ygrave" xMin="-20" yMin="0" xMax="952" yMax="1776">
      <component glyphName="Y" x="0" y="0" flags="0x204"/>
      <component glyphName="grave" x="0" y="371" flags="0x4"/>
    </TTGlyph>
    <TTGlyph name="Z" xMin="49" yMin="0" xMax="883" yMax="1305">
      <contour>
        <pt x="883" y="0" on="1"/>
        <pt x="49" y="0" on="1"/>
        <pt x="49" y="184" on="1"/>
        <pt x="633" y="1118" on="1"/>
        <pt x="236" y="1118" on="1"/>
        <pt x="236" y="834" on="1"/>
        <pt x="49" y="834" on="1"/>
        <pt x="49" y="1305" on="1"/>
        <pt x="866" y="1305" on="1"/>
        <pt x="866" y="1118" on="1"/>
        <pt x="299" y="186" on="1"/>
        <pt x="700" y="186" on="1"/>
        <pt x="700" y="473" on="1"/>
        <pt x="883" y="473" on="1"/>
      </contour>
    </TTGlyph>
    <TTGlyph name="Zacute" xMin="49" yMin="0" xMax="883" yMax="1776">
      <component glyphName="Z" x="0" y="0" flags="0x204"/>
      <component glyphName="acute" x="0" y="371" flags="0x4"/>
    </TTGlyph>
    <TTGlyph name="Zcaron" xMin="49" yMin="0" xMax="883" yMax="1770">
      <component glyphName="Z" x="0" y="0" flags="0x204"/>
      <component glyphName="caron" x="0" y="371" flags="0x4"/>
    </TTGlyph>
    <TTGlyph name="Zdotaccent" xMin="49" yMin="0" xMax="883" yMax="1676">
      <component glyphName="Z" x="0" y="0" flags="0x204"/>
      <component glyphName="dotaccent" x="0" y="371" flags="0x4"/>
    </TTGlyph>
    <TTGlyph name="Zeta" xMin="49" yMin="0" xMax="883" yMax="1305">
      <contour>
        <pt x="883" y="0" on="1"/>
        <pt x="49" y="0" on="1"/>
        <pt x="49" y="184" on="1"/>
        <pt x="633" y="1118" on="1"/>
        <pt x="236" y="1118" on="1"/>
        <pt x="236" y="834" on="1"/>
        <pt x="49" y="834" on="1"/>
        <pt x="49" y="1305" on="1"/>
        <pt x="866" y="1305" on="1"/>
        <pt x="866" y="1118" on="1"/>
        <pt x="299" y="186" on="1"/>
        <pt x="700" y="186" on="1"/>
        <pt x="700" y="473" on="1"/>
        <pt x="883" y="473" on="1"/>
      </contour>
    </TTGlyph>
    <TTGlyph name="a" xMin="-4" yMin="-23" xMax="881" yMax="954">
      <contour>
        <pt x="-4" y="268" on="1"/>
        <pt x="-4" y="350" on="0"/>
        <pt x="84" y="473" on="0"/>
        <pt x="227" y="555" on="0"/>
        <pt x="412" y="596" on="0"/>
        <pt x="508" y="596" on="1"/>
        <pt x="561" y="596" on="0"/>
        <pt x="637" y="592" on="0"/>
        <pt x="676" y="588" on="1"/>
        <pt x="676" y="625" on="1"/>
        <pt x="676" y="698" on="0"/>
        <pt x="563" y="770" on="0"/>
        <pt x="471" y="770" on="1"/>
        <pt x="387" y="770" on="0"/>
        <pt x="213" y="723" on="0"/>
        <pt x="135" y="678" on="1"/>
        <pt x="51" y="840" on="1"/>
        <pt x="143" y="893" on="0"/>
        <pt x="354" y="954" on="0"/>
        <pt x="471" y="954" on="1"/>
        <pt x="547" y="954" on="0"/>
        <pt x="694" y="920" on="0"/>
        <pt x="811" y="842" on="0"/>
        <pt x="881" y="717" on="0"/>
        <pt x="881" y="625" on="1"/>
        <pt x="881" y="0" on="1"/>
        <pt x="676" y="0" on="1"/>
        <pt x="676" y="137" on="1"/>
        <pt x="627" y="61" on="0"/>
        <pt x="436" y="-23" on="0"/>
        <pt x="326" y="-23" on="1"/>
        <pt x="258" y="-23" on="0"/>
        <pt x="137" y="14" on="0"/>
        <pt x="49" y="88" on="0"/>
        <pt x="-4" y="197" on="0"/>
      </contour>
      <contour>
        <pt x="379" y="162" on="1"/>
        <pt x="440" y="162" on="0"/>
        <pt x="547" y="193" on="0"/>
        <pt x="629" y="248" on="0"/>
        <pt x="676" y="326" on="0"/>
        <pt x="676" y="373" on="1"/>
        <pt x="676" y="408" on="1"/>
        <pt x="627" y="416" on="0"/>
        <pt x="541" y="418" on="0"/>
        <pt x="508" y="418" on="1"/>
        <pt x="356" y="418" on="0"/>
        <pt x="201" y="338" on="0"/>
        <pt x="201" y="279" on="1"/>
        <pt x="201" y="162" on="0"/>
      </contour>
    </TTGlyph>
    <TTGlyph name="aacute" xMin="-4" yMin="-23" xMax="881" yMax="1405">
      <component glyphName="a" x="0" y="0" flags="0x204"/>
      <component glyphName="acute" x="0" y="0" flags="0x4"/>
    </TTGlyph>
    <TTGlyph name="abreve" xMin="-4" yMin="-23" xMax="881" yMax="1286">
      <component glyphName="a" x="0" y="0" flags="0x204"/>
      <component glyphName="breve" x="0" y="0" flags="0x4"/>
    </TTGlyph>
    <TTGlyph name="acircumflex" xMin="-4" yMin="-23" xMax="881" yMax="1399">
      <component glyphName="a" x="0" y="0" flags="0x204"/>
      <component glyphName="circumflex" x="0" y="0" flags="0x4"/>
    </TTGlyph>
    <TTGlyph name="acute" xMin="190" yMin="981" xMax="711" yMax="1405">
      <contour>
        <pt x="711" y="1225" on="1"/>
        <pt x="279" y="981" on="1"/>
        <pt x="190" y="1118" on="1"/>
        <pt x="594" y="1405" on="1"/>
      </contour>
    </TTGlyph>
    <TTGlyph name="adieresis" xMin="-4" yMin="-23" xMax="881" yMax="1305">
      <component glyphName="a" x="0" y="0" flags="0x204"/>
      <component glyphName="dieresis" x="0" y="0" flags="0x4"/>
    </TTGlyph>
    <TTGlyph name="ae" xMin="-20" yMin="-23" xMax="946" yMax="954">
      <contour>
        <pt x="451" y="131" on="1"/>
        <pt x="412" y="66" on="0"/>
        <pt x="309" y="-23" on="0"/>
        <pt x="229" y="-23" on="1"/>
        <pt x="168" y="-23" on="0"/>
        <pt x="76" y="23" on="0"/>
        <pt x="12" y="98" on="0"/>
        <pt x="-20" y="199" on="0"/>
        <pt x="-20" y="254" on="1"/>
        <pt x="-20" y="334" on="0"/>
        <pt x="31" y="457" on="0"/>
        <pt x="119" y="539" on="0"/>
        <pt x="233" y="580" on="0"/>
        <pt x="297" y="580" on="1"/>
        <pt x="319" y="580" on="0"/>
        <pt x="350" y="578" on="0"/>
        <pt x="373" y="573" on="1"/>
        <pt x="373" y="633" on="1"/>
        <pt x="373" y="707" on="0"/>
        <pt x="317" y="770" on="0"/>
        <pt x="272" y="770" on="1"/>
        <pt x="238" y="770" on="0"/>
        <pt x="152" y="733" on="0"/>
        <pt x="117" y="674" on="1"/>
        <pt x="-8" y="793" on="1"/>
        <pt x="47" y="879" on="0"/>
        <pt x="201" y="954" on="0"/>
        <pt x="262" y="954" on="1"/>
        <pt x="334" y="954" on="0"/>
        <pt x="446" y="897" on="0"/>
        <pt x="471" y="825" on="1"/>
        <pt x="506" y="893" on="0"/>
        <pt x="606" y="954" on="0"/>
        <pt x="676" y="954" on="1"/>
        <pt x="770" y="954" on="0"/>
        <pt x="877" y="854" on="0"/>
        <pt x="932" y="694" on="0"/>
        <pt x="946" y="492" on="0"/>
        <pt x="946" y="387" on="1"/>
        <pt x="559" y="387" on="1"/>
        <pt x="559" y="262" on="0"/>
        <pt x="629" y="168" on="0"/>
        <pt x="674" y="168" on="1"/>
        <pt x="707" y="168" on="0"/>
        <pt x="752" y="205" on="0"/>
        <pt x="762" y="248" on="1"/>
        <pt x="936" y="190" on="1"/>
        <pt x="901" y="82" on="0"/>
        <pt x="776" y="-23" on="0"/>
        <pt x="674" y="-23" on="1"/>
        <pt x="645" y="-23" on="0"/>
        <pt x="582" y="-8" on="0"/>
        <pt x="522" y="27" on="0"/>
        <pt x="469" y="86" on="0"/>
      </contour>
      <contour>
        <pt x="739" y="569" on="1"/>
        <pt x="735" y="688" on="0"/>
        <pt x="692" y="770" on="0"/>
        <pt x="653" y="770" on="1"/>
        <pt x="610" y="770" on="0"/>
        <pt x="563" y="680" on="0"/>
        <pt x="559" y="569" on="1"/>
      </contour>
      <contour>
        <pt x="373" y="391" on="1"/>
        <pt x="360" y="393" on="0"/>
        <pt x="332" y="395" on="0"/>
        <pt x="309" y="395" on="1"/>
        <pt x="260" y="395" on="0"/>
        <pt x="184" y="326" on="0"/>
        <pt x="184" y="264" on="1"/>
        <pt x="184" y="213" on="0"/>
        <pt x="225" y="166" on="0"/>
        <pt x="258" y="166" on="1"/>
        <pt x="313" y="166" on="0"/>
        <pt x="373" y="264" on="0"/>
        <pt x="373" y="330" on="1"/>
      </contour>
    </TTGlyph>
    <TTGlyph name="aeacute" xMin="-20" yMin="-23" xMax="946" yMax="1407">
      <component glyphName="ae" x="0" y="0" flags="0x204"/>
      <component glyphName="acute" x="0" y="2" flags="0x4"/>
    </TTGlyph>
    <TTGlyph name="afii00208" xMin="0" yMin="385" xMax="932" yMax="572">
      <contour>
        <pt x="932" y="385" on="1"/>
        <pt x="0" y="385" on="1"/>
        <pt x="0" y="572" on="1"/>
        <pt x="932" y="572" on="1"/>
      </contour>
    </TTGlyph>
    <TTGlyph name="afii10017" xMin="-59" yMin="0" xMax="993" yMax="1305">
      <contour>
        <pt x="776" y="0" on="1"/>
        <pt x="682" y="311" on="1"/>
        <pt x="250" y="311" on="1"/>
        <pt x="158" y="0" on="1"/>
        <pt x="-59" y="0" on="1"/>
        <pt x="348" y="1305" on="1"/>
        <pt x="586" y="1305" on="1"/>
        <pt x="993" y="0" on="1"/>
      </contour>
      <contour>
        <pt x="305" y="494" on="1"/>
        <pt x="627" y="494" on="1"/>
        <pt x="467" y="1032" on="1"/>
      </contour>
    </TTGlyph>
    <TTGlyph name="afii10018" xMin="49" yMin="0" xMax="932" yMax="1305">
      <contour>
        <pt x="883" y="1118" on="1"/>
        <pt x="256" y="1118" on="1"/>
        <pt x="256" y="776" on="1"/>
        <pt x="481" y="776" on="1"/>
        <pt x="694" y="776" on="0"/>
        <pt x="932" y="586" on="0"/>
        <pt x="932" y="389" on="1"/>
        <pt x="932" y="197" on="0"/>
        <pt x="694" y="0" on="0"/>
        <pt x="479" y="0" on="1"/>
        <pt x="49" y="0" on="1"/>
        <pt x="49" y="1305" on="1"/>
        <pt x="883" y="1305" on="1"/>
      </contour>
      <contour>
        <pt x="725" y="387" on="1"/>
        <pt x="725" y="489" on="0"/>
        <pt x="594" y="590" on="0"/>
        <pt x="481" y="590" on="1"/>
        <pt x="256" y="590" on="1"/>
        <pt x="256" y="186" on="1"/>
        <pt x="481" y="186" on="1"/>
        <pt x="594" y="186" on="0"/>
        <pt x="725" y="287" on="0"/>
      </contour>
    </TTGlyph>
    <TTGlyph name="afii10019" xMin="49" yMin="0" xMax="930" yMax="1305">
      <contour>
        <pt x="930" y="358" on="1"/>
        <pt x="930" y="180" on="0"/>
        <pt x="688" y="0" on="0"/>
        <pt x="465" y="0" on="1"/>
        <pt x="49" y="0" on="1"/>
        <pt x="49" y="1305" on="1"/>
        <pt x="442" y="1305" on="1"/>
        <pt x="524" y="1305" on="0"/>
        <pt x="682" y="1278" on="0"/>
        <pt x="807" y="1204" on="0"/>
        <pt x="885" y="1071" on="0"/>
        <pt x="885" y="965" on="1"/>
        <pt x="885" y="866" on="0"/>
        <pt x="784" y="702" on="0"/>
        <pt x="682" y="666" on="1"/>
        <pt x="807" y="627" on="0"/>
        <pt x="930" y="487" on="0"/>
      </contour>
      <contour>
        <pt x="680" y="938" on="1"/>
        <pt x="680" y="995" on="0"/>
        <pt x="637" y="1067" on="0"/>
        <pt x="569" y="1106" on="0"/>
        <pt x="485" y="1118" on="0"/>
        <pt x="442" y="1118" on="1"/>
        <pt x="256" y="1118" on="1"/>
        <pt x="256" y="758" on="1"/>
        <pt x="442" y="758" on="1"/>
        <pt x="485" y="758" on="0"/>
        <pt x="569" y="770" on="0"/>
        <pt x="637" y="809" on="0"/>
        <pt x="680" y="881" on="0"/>
      </contour>
      <contour>
        <pt x="725" y="379" on="1"/>
        <pt x="725" y="477" on="0"/>
        <pt x="588" y="571" on="0"/>
        <pt x="465" y="571" on="1"/>
        <pt x="256" y="571" on="1"/>
        <pt x="256" y="186" on="1"/>
        <pt x="465" y="186" on="1"/>
        <pt x="588" y="186" on="0"/>
        <pt x="725" y="281" on="0"/>
      </contour>
    </TTGlyph>
    <TTGlyph name="afii10020" xMin="49" yMin="0" xMax="883" yMax="1305">
      <contour>
        <pt x="883" y="1118" on="1"/>
        <pt x="256" y="1118" on="1"/>
        <pt x="256" y="0" on="1"/>
        <pt x="49" y="0" on="1"/>
        <pt x="49" y="1305" on="1"/>
        <pt x="883" y="1305" on="1"/>
      </contour>
    </TTGlyph>
    <TTGlyph name="afii10021" xMin="0" yMin="-319" xMax="932" yMax="1305">
      <contour>
        <pt x="0" y="186" on="1"/>
        <pt x="57" y="231" on="0"/>
        <pt x="129" y="322" on="0"/>
        <pt x="170" y="485" on="0"/>
        <pt x="186" y="758" on="0"/>
        <pt x="186" y="983" on="1"/>
        <pt x="186" y="1305" on="1"/>
        <pt x="780" y="1305" on="1"/>
        <pt x="780" y="186" on="1"/>
        <pt x="932" y="186" on="1"/>
        <pt x="932" y="-319" on="1"/>
        <pt x="745" y="-319" on="1"/>
        <pt x="745" y="0" on="1"/>
        <pt x="186" y="0" on="1"/>
        <pt x="186" y="-319" on="1"/>
        <pt x="0" y="-319" on="1"/>
      </contour>
      <contour>
        <pt x="393" y="983" on="1"/>
        <pt x="393" y="807" on="0"/>
        <pt x="385" y="555" on="0"/>
        <pt x="354" y="371" on="0"/>
        <pt x="291" y="240" on="0"/>
        <pt x="233" y="186" on="1"/>
        <pt x="573" y="186" on="1"/>
        <pt x="573" y="1118" on="1"/>
        <pt x="393" y="1118" on="1"/>
      </contour>
    </TTGlyph>
    <TTGlyph name="afii10022" xMin="49" yMin="0" xMax="883" yMax="1305">
      <contour>
        <pt x="883" y="0" on="1"/>
        <pt x="49" y="0" on="1"/>
        <pt x="49" y="1305" on="1"/>
        <pt x="883" y="1305" on="1"/>
        <pt x="883" y="1118" on="1"/>
        <pt x="256" y="1118" on="1"/>
        <pt x="256" y="758" on="1"/>
        <pt x="745" y="758" on="1"/>
        <pt x="745" y="571" on="1"/>
        <pt x="256" y="571" on="1"/>
        <pt x="256" y="186" on="1"/>
        <pt x="883" y="186" on="1"/>
      </contour>
    </TTGlyph>
    <TTGlyph name="afii10023" xMin="49" yMin="0" xMax="883" yMax="1676">
      <component glyphName="afii10022" x="0" y="0" flags="0x204"/>
      <component glyphName="dieresis" x="0" y="371" flags="0x4"/>
    </TTGlyph>
    <TTGlyph name="afii10024" xMin="-109" yMin="0" xMax="1040" yMax="1305">
      <contour>
        <pt x="362" y="0" on="1"/>
        <pt x="362" y="518" on="1"/>
        <pt x="328" y="578" on="1"/>
        <pt x="92" y="0" on="1"/>
        <pt x="-109" y="0" on="1"/>
        <pt x="221" y="737" on="1"/>
        <pt x="-109" y="1305" on="1"/>
        <pt x="98" y="1305" on="1"/>
        <pt x="362" y="786" on="1"/>
        <pt x="362" y="1305" on="1"/>
        <pt x="569" y="1305" on="1"/>
        <pt x="569" y="786" on="1"/>
        <pt x="834" y="1305" on="1"/>
        <pt x="1040" y="1305" on="1"/>
        <pt x="711" y="737" on="1"/>
        <pt x="1040" y="0" on="1"/>
        <pt x="840" y="0" on="1"/>
        <pt x="604" y="578" on="1"/>
        <pt x="569" y="518" on="1"/>
        <pt x="569" y="0" on="1"/>
      </contour>
    </TTGlyph>
    <TTGlyph name="afii10025" xMin="27" yMin="-23" xMax="920" yMax="1327">
      <contour>
        <pt x="920" y="354" on="1"/>
        <pt x="920" y="268" on="0"/>
        <pt x="850" y="129" on="0"/>
        <pt x="733" y="31" on="0"/>
        <pt x="580" y="-23" on="0"/>
        <pt x="496" y="-23" on="1"/>
        <pt x="402" y="-23" on="0"/>
        <pt x="238" y="28" on="0"/>
        <pt x="113" y="134" on="0"/>
        <pt x="35" y="297" on="0"/>
        <pt x="27" y="410" on="1"/>
        <pt x="221" y="442" on="1"/>
        <pt x="231" y="313" on="0"/>
        <pt x="305" y="238" on="1"/>
        <pt x="379" y="164" on="0"/>
        <pt x="496" y="164" on="1"/>
        <pt x="595" y="164" on="0"/>
        <pt x="653" y="216" on="1"/>
        <pt x="713" y="268" on="0"/>
        <pt x="713" y="354" on="1"/>
        <pt x="713" y="461" on="0"/>
        <pt x="554" y="571" on="0"/>
        <pt x="401" y="571" on="1"/>
        <pt x="401" y="758" on="1"/>
        <pt x="468" y="758" on="0"/>
        <pt x="574" y="785" on="0"/>
        <pt x="648" y="838" on="0"/>
        <pt x="688" y="917" on="0"/>
        <pt x="688" y="970" on="1"/>
        <pt x="688" y="1006" on="0"/>
        <pt x="663" y="1069" on="0"/>
        <pt x="615" y="1115" on="0"/>
        <pt x="543" y="1141" on="0"/>
        <pt x="496" y="1141" on="1"/>
        <pt x="434" y="1141" on="0"/>
        <pt x="340" y="1098" on="0"/>
        <pt x="275" y="1022" on="0"/>
        <pt x="242" y="920" on="0"/>
        <pt x="242" y="862" on="1"/>
        <pt x="55" y="862" on="1"/>
        <pt x="55" y="1305" on="1"/>
        <pt x="242" y="1305" on="1"/>
        <pt x="242" y="1151" on="1"/>
        <pt x="254" y="1194" on="0"/>
        <pt x="311" y="1260" on="0"/>
        <pt x="387" y="1305" on="0"/>
        <pt x="475" y="1327" on="0"/>
        <pt x="518" y="1327" on="1"/>
        <pt x="594" y="1327" on="0"/>
        <pt x="730" y="1276" on="0"/>
        <pt x="834" y="1183" on="0"/>
        <pt x="895" y="1051" on="0"/>
        <pt x="895" y="970" on="1"/>
        <pt x="895" y="910" on="0"/>
        <pt x="860" y="807" on="0"/>
        <pt x="794" y="730" on="0"/>
        <pt x="699" y="682" on="0"/>
        <pt x="639" y="678" on="1"/>
        <pt x="706" y="672" on="0"/>
        <pt x="811" y="614" on="0"/>
        <pt x="883" y="526" on="0"/>
        <pt x="920" y="414" on="0"/>
      </contour>
    </TTGlyph>
    <TTGlyph name="afii10026" xMin="49" yMin="0" xMax="883" yMax="1305">
      <contour>
        <pt x="49" y="1305" on="1"/>
        <pt x="256" y="1305" on="1"/>
        <pt x="256" y="406" on="1"/>
        <pt x="623" y="1305" on="1"/>
        <pt x="883" y="1305" on="1"/>
        <pt x="883" y="0" on="1"/>
        <pt x="676" y="0" on="1"/>
        <pt x="676" y="946" on="1"/>
        <pt x="289" y="0" on="1"/>
        <pt x="49" y="0" on="1"/>
      </contour>
    </TTGlyph>
    <TTGlyph name="afii10027" xMin="49" yMin="0" xMax="883" yMax="1657">
      <component glyphName="afii10026" x="0" y="0" flags="0x204"/>
      <component glyphName="breve" x="0" y="371" flags="0x4"/>
    </TTGlyph>
    <TTGlyph name="afii10028" xMin="49" yMin="0" xMax="928" yMax="1305">
      <contour>
        <pt x="926" y="0" on="1"/>
        <pt x="684" y="0" on="1"/>
        <pt x="342" y="608" on="1"/>
        <pt x="256" y="506" on="1"/>
        <pt x="256" y="0" on="1"/>
        <pt x="49" y="0" on="1"/>
        <pt x="49" y="1305" on="1"/>
        <pt x="256" y="1305" on="1"/>
        <pt x="256" y="793" on="1"/>
        <pt x="662" y="1305" on="1"/>
        <pt x="928" y="1305" on="1"/>
        <pt x="473" y="764" on="1"/>
      </contour>
    </TTGlyph>
    <TTGlyph name="afii10029" xMin="-94" yMin="-23" xMax="883" yMax="1305">
      <contour>
        <pt x="883" y="1305" on="1"/>
        <pt x="883" y="0" on="1"/>
        <pt x="676" y="0" on="1"/>
        <pt x="676" y="1118" on="1"/>
        <pt x="324" y="1118" on="1"/>
        <pt x="324" y="276" on="1"/>
        <pt x="324" y="195" on="0"/>
        <pt x="276" y="80" on="0"/>
        <pt x="197" y="10" on="0"/>
        <pt x="90" y="-23" on="0"/>
        <pt x="29" y="-23" on="1"/>
        <pt x="-55" y="-23" on="0"/>
        <pt x="-94" y="2" on="1"/>
        <pt x="-68" y="180" on="1"/>
        <pt x="-53" y="172" on="0"/>
        <pt x="-18" y="164" on="0"/>
        <pt x="10" y="164" on="1"/>
        <pt x="117" y="164" on="0"/>
        <pt x="117" y="276" on="1"/>
        <pt x="117" y="1305" on="1"/>
      </contour>
    </TTGlyph>
    <TTGlyph name="afii10030" xMin="49" yMin="0" xMax="883" yMax="1305">
      <contour>
        <pt x="883" y="0" on="1"/>
        <pt x="676" y="0" on="1"/>
        <pt x="676" y="883" on="1"/>
        <pt x="545" y="414" on="1"/>
        <pt x="385" y="414" on="1"/>
        <pt x="256" y="883" on="1"/>
        <pt x="256" y="0" on="1"/>
        <pt x="49" y="0" on="1"/>
        <pt x="49" y="1305" on="1"/>
        <pt x="295" y="1305" on="1"/>
        <pt x="465" y="715" on="1"/>
        <pt x="635" y="1305" on="1"/>
        <pt x="883" y="1305" on="1"/>
      </contour>
    </TTGlyph>
    <TTGlyph name="afii10031" xMin="49" yMin="0" xMax="883" yMax="1305">
      <contour>
        <pt x="883" y="0" on="1"/>
        <pt x="676" y="0" on="1"/>
        <pt x="676" y="571" on="1"/>
        <pt x="256" y="571" on="1"/>
        <pt x="256" y="0" on="1"/>
        <pt x="49" y="0" on="1"/>
        <pt x="49" y="1305" on="1"/>
        <pt x="256" y="1305" on="1"/>
        <pt x="256" y="758" on="1"/>
        <pt x="676" y="758" on="1"/>
        <pt x="676" y="1305" on="1"/>
        <pt x="883" y="1305" on="1"/>
      </contour>
    </TTGlyph>
    <TTGlyph name="afii10032" xMin="-33" yMin="-23" xMax="967" yMax="1327">
      <contour>
        <pt x="-33" y="653" on="1"/>
        <pt x="-33" y="784" on="0"/>
        <pt x="23" y="1028" on="0"/>
        <pt x="141" y="1214" on="0"/>
        <pt x="332" y="1327" on="0"/>
        <pt x="467" y="1327" on="1"/>
        <pt x="602" y="1327" on="0"/>
        <pt x="793" y="1214" on="0"/>
        <pt x="913" y="1028" on="0"/>
        <pt x="967" y="784" on="0"/>
        <pt x="967" y="653" on="1"/>
        <pt x="967" y="522" on="0"/>
        <pt x="913" y="279" on="0"/>
        <pt x="795" y="90" on="0"/>
        <pt x="604" y="-23" on="0"/>
        <pt x="467" y="-23" on="1"/>
        <pt x="330" y="-23" on="0"/>
        <pt x="139" y="90" on="0"/>
        <pt x="20" y="279" on="0"/>
        <pt x="-33" y="522" on="0"/>
      </contour>
      <contour>
        <pt x="174" y="653" on="1"/>
        <pt x="174" y="565" on="0"/>
        <pt x="201" y="389" on="0"/>
        <pt x="266" y="250" on="0"/>
        <pt x="379" y="164" on="0"/>
        <pt x="467" y="164" on="1"/>
        <pt x="555" y="164" on="0"/>
        <pt x="668" y="250" on="0"/>
        <pt x="733" y="389" on="0"/>
        <pt x="760" y="565" on="0"/>
        <pt x="760" y="653" on="1"/>
        <pt x="760" y="741" on="0"/>
        <pt x="733" y="915" on="0"/>
        <pt x="668" y="1055" on="0"/>
        <pt x="553" y="1141" on="0"/>
        <pt x="467" y="1141" on="1"/>
        <pt x="324" y="1141" on="0"/>
        <pt x="174" y="883" on="0"/>
      </contour>
    </TTGlyph>
    <TTGlyph name="afii10033" xMin="49" yMin="0" xMax="883" yMax="1305">
      <contour>
        <pt x="883" y="0" on="1"/>
        <pt x="676" y="0" on="1"/>
        <pt x="676" y="1118" on="1"/>
        <pt x="256" y="1118" on="1"/>
        <pt x="256" y="0" on="1"/>
        <pt x="49" y="0" on="1"/>
        <pt x="49" y="1305" on="1"/>
        <pt x="883" y="1305" on="1"/>
      </contour>
    </TTGlyph>
    <TTGlyph name="afii10034" xMin="49" yMin="0" xMax="932" yMax="1305">
      <contour>
        <pt x="932" y="915" on="1"/>
        <pt x="932" y="719" on="0"/>
        <pt x="694" y="528" on="0"/>
        <pt x="481" y="528" on="1"/>
        <pt x="256" y="528" on="1"/>
        <pt x="256" y="0" on="1"/>
        <pt x="49" y="0" on="1"/>
        <pt x="49" y="1305" on="1"/>
        <pt x="479" y="1305" on="1"/>
        <pt x="694" y="1305" on="0"/>
        <pt x="932" y="1108" on="0"/>
      </contour>
      <contour>
        <pt x="725" y="918" on="1"/>
        <pt x="725" y="1018" on="0"/>
        <pt x="594" y="1118" on="0"/>
        <pt x="481" y="1118" on="1"/>
        <pt x="256" y="1118" on="1"/>
        <pt x="256" y="715" on="1"/>
        <pt x="481" y="715" on="1"/>
        <pt x="594" y="715" on="0"/>
        <pt x="725" y="815" on="0"/>
      </contour>
    </TTGlyph>
    <TTGlyph name="afii10035" xMin="-20" yMin="-23" xMax="952" yMax="1327">
      <contour>
        <pt x="952" y="399" on="1"/>
        <pt x="928" y="303" on="0"/>
        <pt x="848" y="147" on="0"/>
        <pt x="733" y="37" on="0"/>
        <pt x="580" y="-23" on="0"/>
        <pt x="481" y="-23" on="1"/>
        <pt x="344" y="-23" on="0"/>
        <pt x="154" y="90" on="0"/>
        <pt x="33" y="279" on="0"/>
        <pt x="-20" y="522" on="0"/>
        <pt x="-20" y="653" on="1"/>
        <pt x="-20" y="784" on="0"/>
        <pt x="33" y="1028" on="0"/>
        <pt x="152" y="1214" on="0"/>
        <pt x="336" y="1327" on="0"/>
        <pt x="469" y="1327" on="1"/>
        <pt x="512" y="1327" on="0"/>
        <pt x="600" y="1305" on="0"/>
        <pt x="676" y="1260" on="0"/>
        <pt x="733" y="1194" on="0"/>
        <pt x="745" y="1151" on="1"/>
        <pt x="745" y="1305" on="1"/>
        <pt x="932" y="1305" on="1"/>
        <pt x="932" y="811" on="1"/>
        <pt x="745" y="811" on="1"/>
        <pt x="745" y="872" on="0"/>
        <pt x="715" y="991" on="0"/>
        <pt x="649" y="1083" on="0"/>
        <pt x="549" y="1141" on="0"/>
        <pt x="481" y="1141" on="1"/>
        <pt x="393" y="1141" on="0"/>
        <pt x="281" y="1055" on="0"/>
        <pt x="213" y="915" on="0"/>
        <pt x="186" y="741" on="0"/>
        <pt x="186" y="653" on="1"/>
        <pt x="186" y="565" on="0"/>
        <pt x="213" y="389" on="0"/>
        <pt x="279" y="250" on="0"/>
        <pt x="393" y="164" on="0"/>
        <pt x="481" y="164" on="1"/>
        <pt x="608" y="164" on="0"/>
        <pt x="745" y="326" on="0"/>
        <pt x="786" y="463" on="1"/>
      </contour>
    </TTGlyph>
    <TTGlyph name="afii10036" xMin="0" yMin="0" xMax="930" yMax="1305">
      <contour>
        <pt x="930" y="829" on="1"/>
        <pt x="745" y="829" on="1"/>
        <pt x="745" y="1118" on="1"/>
        <pt x="569" y="1118" on="1"/>
        <pt x="569" y="186" on="1"/>
        <pt x="776" y="186" on="1"/>
        <pt x="776" y="0" on="1"/>
        <pt x="156" y="0" on="1"/>
        <pt x="156" y="186" on="1"/>
        <pt x="362" y="186" on="1"/>
        <pt x="362" y="1118" on="1"/>
        <pt x="184" y="1118" on="1"/>
        <pt x="184" y="829" on="1"/>
        <pt x="0" y="829" on="1"/>
        <pt x="0" y="1305" on="1"/>
        <pt x="930" y="1305" on="1"/>
      </contour>
    </TTGlyph>
    <TTGlyph name="afii10037" xMin="-6" yMin="-23" xMax="924" yMax="1305">
      <contour>
        <pt x="924" y="1305" on="1"/>
        <pt x="522" y="190" on="1"/>
        <pt x="477" y="70" on="0"/>
        <pt x="305" y="-23" on="0"/>
        <pt x="186" y="-23" on="1"/>
        <pt x="145" y="-23" on="0"/>
        <pt x="51" y="-6" on="0"/>
        <pt x="0" y="12" on="1"/>
        <pt x="43" y="203" on="1"/>
        <pt x="86" y="186" on="0"/>
        <pt x="158" y="174" on="0"/>
        <pt x="186" y="174" on="1"/>
        <pt x="279" y="174" on="0"/>
        <pt x="313" y="258" on="1"/>
        <pt x="350" y="348" on="1"/>
        <pt x="-6" y="1305" on="1"/>
        <pt x="209" y="1305" on="1"/>
        <pt x="465" y="600" on="1"/>
        <pt x="702" y="1305" on="1"/>
      </contour>
    </TTGlyph>
    <TTGlyph name="afii10038" xMin="-20" yMin="0" xMax="956" yMax="1305">
      <contour>
        <pt x="956" y="666" on="1"/>
        <pt x="956" y="569" on="0"/>
        <pt x="901" y="408" on="0"/>
        <pt x="799" y="285" on="0"/>
        <pt x="655" y="201" on="0"/>
        <pt x="567" y="186" on="1"/>
        <pt x="567" y="0" on="1"/>
        <pt x="362" y="0" on="1"/>
        <pt x="362" y="186" on="1"/>
        <pt x="186" y="219" on="0"/>
        <pt x="-20" y="475" on="0"/>
        <pt x="-20" y="666" on="1"/>
        <pt x="-20" y="760" on="0"/>
        <pt x="33" y="920" on="0"/>
        <pt x="133" y="1044" on="0"/>
        <pt x="274" y="1128" on="0"/>
        <pt x="362" y="1145" on="1"/>
        <pt x="362" y="1305" on="1"/>
        <pt x="567" y="1305" on="1"/>
        <pt x="567" y="1147" on="1"/>
        <pt x="655" y="1130" on="0"/>
        <pt x="799" y="1049" on="0"/>
        <pt x="901" y="922" on="0"/>
        <pt x="956" y="760" on="0"/>
      </contour>
      <contour>
        <pt x="750" y="666" on="1"/>
        <pt x="750" y="768" on="0"/>
        <pt x="653" y="922" on="0"/>
        <pt x="567" y="952" on="1"/>
        <pt x="567" y="379" on="1"/>
        <pt x="653" y="410" on="0"/>
        <pt x="750" y="561" on="0"/>
      </contour>
      <contour>
        <pt x="186" y="666" on="1"/>
        <pt x="186" y="563" on="0"/>
        <pt x="276" y="412" on="0"/>
        <pt x="362" y="381" on="1"/>
        <pt x="362" y="950" on="1"/>
        <pt x="276" y="920" on="0"/>
        <pt x="186" y="766" on="0"/>
      </contour>
    </TTGlyph>
    <TTGlyph name="afii10039" xMin="-23" yMin="0" xMax="952" yMax="1305">
      <contour>
        <pt x="952" y="0" on="1"/>
        <pt x="526" y="0" on="1"/>
        <pt x="526" y="186" on="1"/>
        <pt x="600" y="186" on="1"/>
        <pt x="463" y="481" on="1"/>
        <pt x="326" y="186" on="1"/>
        <pt x="399" y="186" on="1"/>
        <pt x="399" y="0" on="1"/>
        <pt x="-23" y="0" on="1"/>
        <pt x="-23" y="186" on="1"/>
        <pt x="90" y="186" on="1"/>
        <pt x="344" y="659" on="1"/>
        <pt x="94" y="1118" on="1"/>
        <pt x="0" y="1118" on="1"/>
        <pt x="0" y="1305" on="1"/>
        <pt x="414" y="1305" on="1"/>
        <pt x="414" y="1118" on="1"/>
        <pt x="330" y="1118" on="1"/>
        <pt x="463" y="829" on="1"/>
        <pt x="598" y="1118" on="1"/>
        <pt x="516" y="1118" on="1"/>
        <pt x="516" y="1305" on="1"/>
        <pt x="932" y="1305" on="1"/>
        <pt x="932" y="1118" on="1"/>
        <pt x="831" y="1118" on="1"/>
        <pt x="582" y="659" on="1"/>
        <pt x="836" y="186" on="1"/>
        <pt x="952" y="186" on="1"/>
      </contour>
    </TTGlyph>
    <TTGlyph name="afii10040" xMin="49" yMin="-319" xMax="1055" yMax="1305">
      <contour>
        <pt x="1055" y="186" on="1"/>
        <pt x="1055" y="-319" on="1"/>
        <pt x="868" y="-319" on="1"/>
        <pt x="868" y="0" on="1"/>
        <pt x="49" y="0" on="1"/>
        <pt x="49" y="1305" on="1"/>
        <pt x="256" y="1305" on="1"/>
        <pt x="256" y="186" on="1"/>
        <pt x="676" y="186" on="1"/>
        <pt x="676" y="1305" on="1"/>
        <pt x="883" y="1305" on="1"/>
        <pt x="883" y="186" on="1"/>
      </contour>
    </TTGlyph>
    <TTGlyph name="afii10041" xMin="49" yMin="0" xMax="883" yMax="1305">
      <contour>
        <pt x="49" y="1305" on="1"/>
        <pt x="256" y="1305" on="1"/>
        <pt x="256" y="729" on="1"/>
        <pt x="256" y="621" on="0"/>
        <pt x="338" y="537" on="0"/>
        <pt x="416" y="537" on="1"/>
        <pt x="530" y="537" on="0"/>
        <pt x="676" y="723" on="0"/>
        <pt x="676" y="887" on="1"/>
        <pt x="676" y="1305" on="1"/>
        <pt x="883" y="1305" on="1"/>
        <pt x="883" y="0" on="1"/>
        <pt x="676" y="0" on="1"/>
        <pt x="676" y="606" on="1"/>
        <pt x="645" y="485" on="0"/>
        <pt x="477" y="350" on="0"/>
        <pt x="354" y="350" on="1"/>
        <pt x="211" y="350" on="0"/>
        <pt x="49" y="537" on="0"/>
        <pt x="49" y="729" on="1"/>
      </contour>
    </TTGlyph>
    <TTGlyph name="afii10042" xMin="-20" yMin="0" xMax="952" yMax="1305">
      <contour>
        <pt x="362" y="1305" on="1"/>
        <pt x="569" y="1305" on="1"/>
        <pt x="569" y="186" on="1"/>
        <pt x="745" y="186" on="1"/>
        <pt x="745" y="1305" on="1"/>
        <pt x="952" y="1305" on="1"/>
        <pt x="952" y="0" on="1"/>
        <pt x="-20" y="0" on="1"/>
        <pt x="-20" y="1305" on="1"/>
        <pt x="186" y="1305" on="1"/>
        <pt x="186" y="186" on="1"/>
        <pt x="362" y="186" on="1"/>
      </contour>
    </TTGlyph>
    <TTGlyph name="afii10043" xMin="-20" yMin="-319" xMax="1118" yMax="1305">
      <contour>
        <pt x="-20" y="0" on="1"/>
        <pt x="-20" y="1305" on="1"/>
        <pt x="186" y="1305" on="1"/>
        <pt x="186" y="186" on="1"/>
        <pt x="362" y="186" on="1"/>
        <pt x="362" y="1305" on="1"/>
        <pt x="569" y="1305" on="1"/>
        <pt x="569" y="186" on="1"/>
        <pt x="745" y="186" on="1"/>
        <pt x="745" y="1305" on="1"/>
        <pt x="952" y="1305" on="1"/>
        <pt x="952" y="186" on="1"/>
        <pt x="1118" y="186" on="1"/>
        <pt x="1118" y="-319" on="1"/>
        <pt x="932" y="-319" on="1"/>
        <pt x="932" y="0" on="1"/>
      </contour>
    </TTGlyph>
    <TTGlyph name="afii10044" xMin="0" yMin="0" xMax="932" yMax="1305">
      <contour>
        <pt x="0" y="1305" on="1"/>
        <pt x="373" y="1305" on="1"/>
        <pt x="373" y="776" on="1"/>
        <pt x="530" y="776" on="1"/>
        <pt x="721" y="776" on="0"/>
        <pt x="932" y="586" on="0"/>
        <pt x="932" y="389" on="1"/>
        <pt x="932" y="197" on="0"/>
        <pt x="721" y="0" on="0"/>
        <pt x="528" y="0" on="1"/>
        <pt x="166" y="0" on="1"/>
        <pt x="166" y="1118" on="1"/>
        <pt x="0" y="1118" on="1"/>
      </contour>
      <contour>
        <pt x="725" y="387" on="1"/>
        <pt x="725" y="489" on="0"/>
        <pt x="621" y="590" on="0"/>
        <pt x="535" y="590" on="1"/>
        <pt x="373" y="590" on="1"/>
        <pt x="373" y="186" on="1"/>
        <pt x="535" y="186" on="1"/>
        <pt x="621" y="186" on="0"/>
        <pt x="725" y="287" on="0"/>
      </contour>
    </TTGlyph>
    <TTGlyph name="afii10045" xMin="-20" yMin="0" xMax="952" yMax="1305">
      <contour>
        <pt x="633" y="389" on="1"/>
        <pt x="633" y="197" on="0"/>
        <pt x="424" y="0" on="0"/>
        <pt x="236" y="0" on="1"/>
        <pt x="-20" y="0" on="1"/>
        <pt x="-20" y="1305" on="1"/>
        <pt x="186" y="1305" on="1"/>
        <pt x="186" y="776" on="1"/>
        <pt x="236" y="776" on="1"/>
        <pt x="424" y="776" on="0"/>
        <pt x="633" y="586" on="0"/>
      </contour>
      <contour>
        <pt x="426" y="387" on="1"/>
        <pt x="426" y="489" on="0"/>
        <pt x="324" y="590" on="0"/>
        <pt x="238" y="590" on="1"/>
        <pt x="186" y="590" on="1"/>
        <pt x="186" y="186" on="1"/>
        <pt x="238" y="186" on="1"/>
        <pt x="324" y="186" on="0"/>
        <pt x="426" y="287" on="0"/>
      </contour>
      <contour>
        <pt x="745" y="1305" on="1"/>
        <pt x="952" y="1305" on="1"/>
        <pt x="952" y="0" on="1"/>
        <pt x="745" y="0" on="1"/>
      </contour>
    </TTGlyph>
    <TTGlyph name="afii10046" xMin="49" yMin="0" xMax="932" yMax="1305">
      <contour>
        <pt x="932" y="389" on="1"/>
        <pt x="932" y="197" on="0"/>
        <pt x="694" y="0" on="0"/>
        <pt x="479" y="0" on="1"/>
        <pt x="49" y="0" on="1"/>
        <pt x="49" y="1305" on="1"/>
        <pt x="256" y="1305" on="1"/>
        <pt x="256" y="776" on="1"/>
        <pt x="481" y="776" on="1"/>
        <pt x="694" y="776" on="0"/>
        <pt x="932" y="586" on="0"/>
      </contour>
      <contour>
        <pt x="725" y="387" on="1"/>
        <pt x="725" y="489" on="0"/>
        <pt x="594" y="590" on="0"/>
        <pt x="481" y="590" on="1"/>
        <pt x="256" y="590" on="1"/>
        <pt x="256" y="186" on="1"/>
        <pt x="481" y="186" on="1"/>
        <pt x="594" y="186" on="0"/>
        <pt x="725" y="287" on="0"/>
      </contour>
    </TTGlyph>
    <TTGlyph name="afii10047" xMin="-20" yMin="-23" xMax="952" yMax="1327">
      <contour>
        <pt x="146" y="463" on="1"/>
        <pt x="186" y="327" on="0"/>
        <pt x="256" y="245" on="1"/>
        <pt x="324" y="164" on="0"/>
        <pt x="451" y="164" on="1"/>
        <pt x="529" y="164" on="0"/>
        <pt x="636" y="232" on="0"/>
        <pt x="704" y="345" on="0"/>
        <pt x="738" y="492" on="0"/>
        <pt x="743" y="571" on="1"/>
        <pt x="232" y="571" on="1"/>
        <pt x="232" y="758" on="1"/>
        <pt x="742" y="758" on="1"/>
        <pt x="735" y="833" on="0"/>
        <pt x="698" y="971" on="0"/>
        <pt x="630" y="1078" on="0"/>
        <pt x="525" y="1141" on="0"/>
        <pt x="451" y="1141" on="1"/>
        <pt x="382" y="1141" on="0"/>
        <pt x="283" y="1084" on="0"/>
        <pt x="250" y="1039" on="1"/>
        <pt x="217" y="996" on="0"/>
        <pt x="187" y="897" on="0"/>
        <pt x="187" y="861" on="1"/>
        <pt x="0" y="861" on="1"/>
        <pt x="0" y="1305" on="1"/>
        <pt x="187" y="1305" on="1"/>
        <pt x="187" y="1151" on="1"/>
        <pt x="199" y="1194" on="0"/>
        <pt x="256" y="1260" on="0"/>
        <pt x="332" y="1305" on="0"/>
        <pt x="420" y="1327" on="0"/>
        <pt x="463" y="1327" on="1"/>
        <pt x="551" y="1327" on="0"/>
        <pt x="692" y="1275" on="0"/>
        <pt x="801" y="1184" on="0"/>
        <pt x="879" y="1058" on="0"/>
        <pt x="929" y="908" on="0"/>
        <pt x="952" y="740" on="0"/>
        <pt x="952" y="653" on="1"/>
        <pt x="952" y="522" on="0"/>
        <pt x="898" y="279" on="0"/>
        <pt x="779" y="90" on="0"/>
        <pt x="588" y="-23" on="0"/>
        <pt x="451" y="-23" on="1"/>
        <pt x="353" y="-23" on="0"/>
        <pt x="199" y="37" on="0"/>
        <pt x="84" y="147" on="0"/>
        <pt x="4" y="303" on="0"/>
        <pt x="-20" y="399" on="1"/>
      </contour>
    </TTGlyph>
    <TTGlyph name="afii10048" xMin="-20" yMin="-23" xMax="961" yMax="1327">
      <contour>
        <pt x="-20" y="1305" on="1"/>
        <pt x="186" y="1305" on="1"/>
        <pt x="186" y="758" on="1"/>
        <pt x="352" y="758" on="1"/>
        <pt x="375" y="1327" on="0"/>
        <pt x="655" y="1327" on="1"/>
        <pt x="961" y="1327" on="0"/>
        <pt x="961" y="651" on="1"/>
        <pt x="961" y="-23" on="0"/>
        <pt x="655" y="-23" on="1"/>
        <pt x="369" y="-23" on="0"/>
        <pt x="350" y="571" on="1"/>
        <pt x="186" y="571" on="1"/>
        <pt x="186" y="0" on="1"/>
        <pt x="-20" y="0" on="1"/>
      </contour>
      <contour>
        <pt x="557" y="651" on="1"/>
        <pt x="557" y="543" on="0"/>
        <pt x="565" y="362" on="0"/>
        <pt x="586" y="233" on="0"/>
        <pt x="625" y="164" on="0"/>
        <pt x="655" y="164" on="1"/>
        <pt x="684" y="164" on="0"/>
        <pt x="723" y="233" on="0"/>
        <pt x="745" y="362" on="0"/>
        <pt x="754" y="543" on="0"/>
        <pt x="754" y="651" on="1"/>
        <pt x="754" y="760" on="0"/>
        <pt x="745" y="940" on="0"/>
        <pt x="723" y="1069" on="0"/>
        <pt x="684" y="1141" on="0"/>
        <pt x="655" y="1141" on="1"/>
        <pt x="625" y="1141" on="0"/>
        <pt x="586" y="1069" on="0"/>
        <pt x="565" y="940" on="0"/>
        <pt x="557" y="760" on="0"/>
      </contour>
    </TTGlyph>
    <TTGlyph name="afii10049" xMin="-18" yMin="0" xMax="883" yMax="1305">
      <contour>
        <pt x="354" y="539" on="1"/>
        <pt x="279" y="549" on="0"/>
        <pt x="150" y="604" on="0"/>
        <pt x="53" y="698" on="0"/>
        <pt x="0" y="829" on="0"/>
        <pt x="0" y="915" on="1"/>
        <pt x="0" y="1108" on="0"/>
        <pt x="238" y="1305" on="0"/>
        <pt x="453" y="1305" on="1"/>
        <pt x="883" y="1305" on="1"/>
        <pt x="883" y="0" on="1"/>
        <pt x="676" y="0" on="1"/>
        <pt x="676" y="528" on="1"/>
        <pt x="582" y="528" on="1"/>
        <pt x="244" y="0" on="1"/>
        <pt x="-18" y="0" on="1"/>
      </contour>
      <contour>
        <pt x="207" y="918" on="1"/>
        <pt x="207" y="815" on="0"/>
        <pt x="338" y="715" on="0"/>
        <pt x="453" y="715" on="1"/>
        <pt x="676" y="715" on="1"/>
        <pt x="676" y="1118" on="1"/>
        <pt x="453" y="1118" on="1"/>
        <pt x="338" y="1118" on="0"/>
        <pt x="207" y="1018" on="0"/>
      </contour>
    </TTGlyph>
    <TTGlyph name="afii10050" xMin="49" yMin="0" xMax="932" yMax="1491">
      <contour>
        <pt x="745" y="1491" on="1"/>
        <pt x="932" y="1491" on="1"/>
        <pt x="932" y="1118" on="1"/>
        <pt x="256" y="1118" on="1"/>
        <pt x="256" y="0" on="1"/>
        <pt x="49" y="0" on="1"/>
        <pt x="49" y="1305" on="1"/>
        <pt x="745" y="1305" on="1"/>
      </contour>
    </TTGlyph>
    <TTGlyph name="afii10051" xMin="-137" yMin="-23" xMax="883" yMax="1305">
      <contour>
        <pt x="-137" y="1305" on="1"/>
        <pt x="442" y="1305" on="1"/>
        <pt x="442" y="1118" on="1"/>
        <pt x="256" y="1118" on="1"/>
        <pt x="256" y="698" on="1"/>
        <pt x="287" y="819" on="0"/>
        <pt x="455" y="954" on="0"/>
        <pt x="578" y="954" on="1"/>
        <pt x="721" y="954" on="0"/>
        <pt x="883" y="768" on="0"/>
        <pt x="883" y="575" on="1"/>
        <pt x="883" y="276" on="1"/>
        <pt x="883" y="195" on="0"/>
        <pt x="836" y="80" on="0"/>
        <pt x="756" y="10" on="0"/>
        <pt x="649" y="-23" on="0"/>
        <pt x="588" y="-23" on="1"/>
        <pt x="504" y="-23" on="0"/>
        <pt x="465" y="2" on="1"/>
        <pt x="492" y="180" on="1"/>
        <pt x="506" y="172" on="0"/>
        <pt x="541" y="164" on="0"/>
        <pt x="569" y="164" on="1"/>
        <pt x="676" y="164" on="0"/>
        <pt x="676" y="276" on="1"/>
        <pt x="676" y="575" on="1"/>
        <pt x="676" y="684" on="0"/>
        <pt x="594" y="768" on="0"/>
        <pt x="516" y="768" on="1"/>
        <pt x="401" y="768" on="0"/>
        <pt x="256" y="582" on="0"/>
        <pt x="256" y="418" on="1"/>
        <pt x="256" y="0" on="1"/>
        <pt x="49" y="0" on="1"/>
        <pt x="49" y="1118" on="1"/>
        <pt x="-137" y="1118" on="1"/>
      </contour>
    </TTGlyph>
    <TTGlyph name="afii10052" xMin="49" yMin="0" xMax="883" yMax="1778">
      <component glyphName="afii10020" x="0" y="0" flags="0x204"/>
      <component glyphName="acute" x="0" y="373" flags="0x4"/>
    </TTGlyph>
    <TTGlyph name="afii10053" xMin="-20" yMin="-23" xMax="952" yMax="1327">
      <contour>
        <pt x="952" y="399" on="1"/>
        <pt x="928" y="303" on="0"/>
        <pt x="848" y="147" on="0"/>
        <pt x="733" y="37" on="0"/>
        <pt x="579" y="-23" on="0"/>
        <pt x="481" y="-23" on="1"/>
        <pt x="344" y="-23" on="0"/>
        <pt x="153" y="90" on="0"/>
        <pt x="34" y="279" on="0"/>
        <pt x="-20" y="522" on="0"/>
        <pt x="-20" y="653" on="1"/>
        <pt x="-20" y="740" on="0"/>
        <pt x="3" y="908" on="0"/>
        <pt x="53" y="1058" on="0"/>
        <pt x="131" y="1184" on="0"/>
        <pt x="240" y="1275" on="0"/>
        <pt x="381" y="1327" on="0"/>
        <pt x="469" y="1327" on="1"/>
        <pt x="512" y="1327" on="0"/>
        <pt x="600" y="1305" on="0"/>
        <pt x="676" y="1260" on="0"/>
        <pt x="733" y="1194" on="0"/>
        <pt x="745" y="1151" on="1"/>
        <pt x="745" y="1305" on="1"/>
        <pt x="932" y="1305" on="1"/>
        <pt x="932" y="861" on="1"/>
        <pt x="745" y="861" on="1"/>
        <pt x="745" y="897" on="0"/>
        <pt x="715" y="996" on="0"/>
        <pt x="682" y="1039" on="1"/>
        <pt x="649" y="1084" on="0"/>
        <pt x="550" y="1141" on="0"/>
        <pt x="481" y="1141" on="1"/>
        <pt x="407" y="1141" on="0"/>
        <pt x="302" y="1078" on="0"/>
        <pt x="234" y="971" on="0"/>
        <pt x="197" y="833" on="0"/>
        <pt x="190" y="758" on="1"/>
        <pt x="700" y="758" on="1"/>
        <pt x="700" y="571" on="1"/>
        <pt x="189" y="571" on="1"/>
        <pt x="194" y="492" on="0"/>
        <pt x="228" y="345" on="0"/>
        <pt x="296" y="232" on="0"/>
        <pt x="403" y="164" on="0"/>
        <pt x="481" y="164" on="1"/>
        <pt x="608" y="164" on="0"/>
        <pt x="676" y="245" on="1"/>
        <pt x="746" y="327" on="0"/>
        <pt x="786" y="463" on="1"/>
      </contour>
    </TTGlyph>
    <TTGlyph name="afii10054" xMin="27" yMin="-23" xMax="899" yMax="1327">
      <contour>
        <pt x="899" y="358" on="1"/>
        <pt x="899" y="268" on="0"/>
        <pt x="838" y="127" on="0"/>
        <pt x="733" y="29" on="0"/>
        <pt x="588" y="-23" on="0"/>
        <pt x="506" y="-23" on="1"/>
        <pt x="414" y="-23" on="0"/>
        <pt x="266" y="43" on="0"/>
        <pt x="213" y="119" on="1"/>
        <pt x="213" y="0" on="1"/>
        <pt x="27" y="0" on="1"/>
        <pt x="27" y="426" on="1"/>
        <pt x="213" y="426" on="1"/>
        <pt x="213" y="362" on="0"/>
        <pt x="258" y="264" on="0"/>
        <pt x="332" y="197" on="0"/>
        <pt x="430" y="162" on="0"/>
        <pt x="485" y="162" on="1"/>
        <pt x="578" y="162" on="0"/>
        <pt x="692" y="248" on="0"/>
        <pt x="692" y="342" on="1"/>
        <pt x="692" y="391" on="0"/>
        <pt x="657" y="461" on="0"/>
        <pt x="592" y="516" on="0"/>
        <pt x="498" y="557" on="0"/>
        <pt x="438" y="580" on="1"/>
        <pt x="367" y="604" on="0"/>
        <pt x="225" y="664" on="0"/>
        <pt x="113" y="752" on="0"/>
        <pt x="43" y="881" on="0"/>
        <pt x="43" y="979" on="1"/>
        <pt x="43" y="1065" on="0"/>
        <pt x="106" y="1194" on="0"/>
        <pt x="211" y="1282" on="0"/>
        <pt x="350" y="1327" on="0"/>
        <pt x="428" y="1327" on="1"/>
        <pt x="518" y="1327" on="0"/>
        <pt x="647" y="1251" on="0"/>
        <pt x="682" y="1188" on="1"/>
        <pt x="682" y="1305" on="1"/>
        <pt x="868" y="1305" on="1"/>
        <pt x="868" y="899" on="1"/>
        <pt x="682" y="899" on="1"/>
        <pt x="682" y="1014" on="0"/>
        <pt x="561" y="1143" on="0"/>
        <pt x="459" y="1143" on="1"/>
        <pt x="369" y="1143" on="0"/>
        <pt x="250" y="1059" on="0"/>
        <pt x="250" y="983" on="1"/>
        <pt x="250" y="944" on="0"/>
        <pt x="281" y="889" on="0"/>
        <pt x="340" y="844" on="0"/>
        <pt x="430" y="805" on="0"/>
        <pt x="489" y="782" on="1"/>
        <pt x="563" y="756" on="0"/>
        <pt x="709" y="690" on="0"/>
        <pt x="825" y="594" on="0"/>
        <pt x="899" y="457" on="0"/>
      </contour>
    </TTGlyph>
    <TTGlyph name="afii10055" xMin="156" yMin="0" xMax="782" yMax="1305">
      <contour>
        <pt x="782" y="0" on="1"/>
        <pt x="156" y="0" on="1"/>
        <pt x="156" y="186" on="1"/>
        <pt x="362" y="186" on="1"/>
        <pt x="362" y="1118" on="1"/>
        <pt x="156" y="1118" on="1"/>
        <pt x="156" y="1305" on="1"/>
        <pt x="782" y="1305" on="1"/>
        <pt x="782" y="1118" on="1"/>
        <pt x="569" y="1118" on="1"/>
        <pt x="569" y="186" on="1"/>
        <pt x="782" y="186" on="1"/>
      </contour>
    </TTGlyph>
    <TTGlyph name="afii10056" xMin="154" yMin="0" xMax="782" yMax="1676">
      <component glyphName="I" x="0" y="0" flags="0x204"/>
      <component glyphName="dieresis" x="0" y="371" flags="0x4"/>
    </TTGlyph>
    <TTGlyph name="afii10057" xMin="-2" yMin="-23" xMax="883" yMax="1305">
      <contour>
        <pt x="883" y="498" on="1"/>
        <pt x="883" y="250" on="0"/>
        <pt x="672" y="-23" on="0"/>
        <pt x="455" y="-23" on="1"/>
        <pt x="281" y="-23" on="0"/>
        <pt x="45" y="160" on="0"/>
        <pt x="-2" y="342" on="1"/>
        <pt x="184" y="412" on="1"/>
        <pt x="213" y="295" on="0"/>
        <pt x="344" y="164" on="0"/>
        <pt x="455" y="164" on="1"/>
        <pt x="522" y="164" on="0"/>
        <pt x="608" y="219" on="0"/>
        <pt x="657" y="311" on="0"/>
        <pt x="676" y="432" on="0"/>
        <pt x="676" y="498" on="1"/>
        <pt x="676" y="1305" on="1"/>
        <pt x="883" y="1305" on="1"/>
      </contour>
    </TTGlyph>
    <TTGlyph name="afii10058" xMin="-184" yMin="-23" xMax="1026" yMax="1305">
      <contour>
        <pt x="819" y="387" on="1"/>
        <pt x="819" y="489" on="0"/>
        <pt x="717" y="590" on="0"/>
        <pt x="631" y="590" on="1"/>
        <pt x="580" y="590" on="1"/>
        <pt x="580" y="186" on="1"/>
        <pt x="631" y="186" on="1"/>
        <pt x="717" y="186" on="0"/>
        <pt x="819" y="287" on="0"/>
      </contour>
      <contour>
        <pt x="580" y="776" on="1"/>
        <pt x="629" y="776" on="1"/>
        <pt x="817" y="776" on="0"/>
        <pt x="1026" y="586" on="0"/>
        <pt x="1026" y="389" on="1"/>
        <pt x="1026" y="197" on="0"/>
        <pt x="817" y="0" on="0"/>
        <pt x="629" y="0" on="1"/>
        <pt x="373" y="0" on="1"/>
        <pt x="373" y="1118" on="1"/>
        <pt x="207" y="1118" on="1"/>
        <pt x="207" y="276" on="1"/>
        <pt x="207" y="195" on="0"/>
        <pt x="164" y="80" on="0"/>
        <pt x="92" y="10" on="0"/>
        <pt x="-2" y="-23" on="0"/>
        <pt x="-53" y="-23" on="1"/>
        <pt x="-102" y="-23" on="0"/>
        <pt x="-162" y="-8" on="0"/>
        <pt x="-184" y="2" on="1"/>
        <pt x="-152" y="172" on="1"/>
        <pt x="-141" y="168" on="0"/>
        <pt x="-111" y="164" on="0"/>
        <pt x="-98" y="164" on="1"/>
        <pt x="0" y="164" on="0"/>
        <pt x="0" y="276" on="1"/>
        <pt x="0" y="1305" on="1"/>
        <pt x="580" y="1305" on="1"/>
      </contour>
    </TTGlyph>
    <TTGlyph name="afii10059" xMin="0" yMin="0" xMax="1026" yMax="1305">
      <contour>
        <pt x="0" y="0" on="1"/>
        <pt x="0" y="1305" on="1"/>
        <pt x="207" y="1305" on="1"/>
        <pt x="207" y="776" on="1"/>
        <pt x="373" y="776" on="1"/>
        <pt x="373" y="1305" on="1"/>
        <pt x="580" y="1305" on="1"/>
        <pt x="580" y="776" on="1"/>
        <pt x="629" y="776" on="1"/>
        <pt x="817" y="776" on="0"/>
        <pt x="1026" y="586" on="0"/>
        <pt x="1026" y="389" on="1"/>
        <pt x="1026" y="197" on="0"/>
        <pt x="817" y="0" on="0"/>
        <pt x="629" y="0" on="1"/>
        <pt x="373" y="0" on="1"/>
        <pt x="373" y="590" on="1"/>
        <pt x="207" y="590" on="1"/>
        <pt x="207" y="0" on="1"/>
      </contour>
      <contour>
        <pt x="819" y="387" on="1"/>
        <pt x="819" y="489" on="0"/>
        <pt x="717" y="590" on="0"/>
        <pt x="631" y="590" on="1"/>
        <pt x="580" y="590" on="1"/>
        <pt x="580" y="186" on="1"/>
        <pt x="631" y="186" on="1"/>
        <pt x="717" y="186" on="0"/>
        <pt x="819" y="287" on="0"/>
      </contour>
    </TTGlyph>
    <TTGlyph name="afii10060" xMin="-137" yMin="0" xMax="883" yMax="1305">
      <contour>
        <pt x="-137" y="1305" on="1"/>
        <pt x="442" y="1305" on="1"/>
        <pt x="442" y="1118" on="1"/>
        <pt x="256" y="1118" on="1"/>
        <pt x="256" y="698" on="1"/>
        <pt x="287" y="819" on="0"/>
        <pt x="455" y="954" on="0"/>
        <pt x="578" y="954" on="1"/>
        <pt x="721" y="954" on="0"/>
        <pt x="883" y="768" on="0"/>
        <pt x="883" y="575" on="1"/>
        <pt x="883" y="0" on="1"/>
        <pt x="676" y="0" on="1"/>
        <pt x="676" y="575" on="1"/>
        <pt x="676" y="684" on="0"/>
        <pt x="594" y="768" on="0"/>
        <pt x="516" y="768" on="1"/>
        <pt x="401" y="768" on="0"/>
        <pt x="256" y="582" on="0"/>
        <pt x="256" y="418" on="1"/>
        <pt x="256" y="0" on="1"/>
        <pt x="49" y="0" on="1"/>
        <pt x="49" y="1118" on="1"/>
        <pt x="-137" y="1118" on="1"/>
      </contour>
    </TTGlyph>
    <TTGlyph name="afii10061" xMin="49" yMin="0" xMax="928" yMax="1778">
      <component glyphName="afii10028" x="0" y="0" flags="0x204"/>
      <component glyphName="acute" x="0" y="373" flags="0x4"/>
    </TTGlyph>
    <TTGlyph name="afii10062" xMin="-6" yMin="-23" xMax="924" yMax="1659">
      <component glyphName="afii10037" x="0" y="0" flags="0x204"/>
      <component glyphName="breve" x="0" y="373" flags="0x4"/>
    </TTGlyph>
    <TTGlyph name="afii10065" xMin="-4" yMin="-23" xMax="881" yMax="954">
      <contour>
        <pt x="-4" y="268" on="1"/>
        <pt x="-4" y="350" on="0"/>
        <pt x="84" y="473" on="0"/>
        <pt x="227" y="555" on="0"/>
        <pt x="412" y="596" on="0"/>
        <pt x="508" y="596" on="1"/>
        <pt x="561" y="596" on="0"/>
        <pt x="637" y="592" on="0"/>
        <pt x="676" y="588" on="1"/>
        <pt x="676" y="625" on="1"/>
        <pt x="676" y="698" on="0"/>
        <pt x="563" y="770" on="0"/>
        <pt x="471" y="770" on="1"/>
        <pt x="387" y="770" on="0"/>
        <pt x="213" y="723" on="0"/>
        <pt x="135" y="678" on="1"/>
        <pt x="51" y="840" on="1"/>
        <pt x="143" y="893" on="0"/>
        <pt x="354" y="954" on="0"/>
        <pt x="471" y="954" on="1"/>
        <pt x="547" y="954" on="0"/>
        <pt x="694" y="920" on="0"/>
        <pt x="811" y="842" on="0"/>
        <pt x="881" y="717" on="0"/>
        <pt x="881" y="625" on="1"/>
        <pt x="881" y="0" on="1"/>
        <pt x="676" y="0" on="1"/>
        <pt x="676" y="137" on="1"/>
        <pt x="627" y="61" on="0"/>
        <pt x="436" y="-23" on="0"/>
        <pt x="326" y="-23" on="1"/>
        <pt x="258" y="-23" on="0"/>
        <pt x="137" y="14" on="0"/>
        <pt x="49" y="88" on="0"/>
        <pt x="-4" y="197" on="0"/>
      </contour>
      <contour>
        <pt x="379" y="162" on="1"/>
        <pt x="440" y="162" on="0"/>
        <pt x="547" y="193" on="0"/>
        <pt x="629" y="248" on="0"/>
        <pt x="676" y="326" on="0"/>
        <pt x="676" y="373" on="1"/>
        <pt x="676" y="408" on="1"/>
        <pt x="627" y="416" on="0"/>
        <pt x="541" y="418" on="0"/>
        <pt x="508" y="418" on="1"/>
        <pt x="356" y="418" on="0"/>
        <pt x="201" y="338" on="0"/>
        <pt x="201" y="279" on="1"/>
        <pt x="201" y="162" on="0"/>
      </contour>
    </TTGlyph>
    <TTGlyph name="afii10066" xMin="0" yMin="-23" xMax="932" yMax="1327">
      <contour>
        <pt x="219" y="444" on="1"/>
        <pt x="219" y="317" on="0"/>
        <pt x="354" y="164" on="0"/>
        <pt x="471" y="164" on="1"/>
        <pt x="582" y="164" on="0"/>
        <pt x="725" y="317" on="0"/>
        <pt x="725" y="444" on="1"/>
        <pt x="725" y="573" on="0"/>
        <pt x="590" y="725" on="0"/>
        <pt x="471" y="725" on="1"/>
        <pt x="344" y="725" on="0"/>
        <pt x="219" y="573" on="0"/>
      </contour>
      <contour>
        <pt x="0" y="651" on="1"/>
        <pt x="0" y="801" on="0"/>
        <pt x="63" y="1049" on="0"/>
        <pt x="178" y="1227" on="0"/>
        <pt x="336" y="1327" on="0"/>
        <pt x="432" y="1327" on="1"/>
        <pt x="479" y="1327" on="0"/>
        <pt x="541" y="1309" on="0"/>
        <pt x="590" y="1284" on="0"/>
        <pt x="633" y="1266" on="0"/>
        <pt x="664" y="1266" on="1"/>
        <pt x="705" y="1266" on="0"/>
        <pt x="762" y="1294" on="0"/>
        <pt x="803" y="1327" on="1"/>
        <pt x="897" y="1190" on="1"/>
        <pt x="860" y="1145" on="0"/>
        <pt x="735" y="1079" on="0"/>
        <pt x="664" y="1079" on="1"/>
        <pt x="616" y="1079" on="0"/>
        <pt x="559" y="1098" on="0"/>
        <pt x="512" y="1122" on="0"/>
        <pt x="467" y="1141" on="0"/>
        <pt x="432" y="1141" on="1"/>
        <pt x="385" y="1141" on="0"/>
        <pt x="305" y="1094" on="0"/>
        <pt x="244" y="993" on="0"/>
        <pt x="209" y="836" on="0"/>
        <pt x="209" y="723" on="1"/>
        <pt x="248" y="815" on="0"/>
        <pt x="389" y="911" on="0"/>
        <pt x="473" y="911" on="1"/>
        <pt x="571" y="911" on="0"/>
        <pt x="739" y="852" on="0"/>
        <pt x="862" y="735" on="0"/>
        <pt x="932" y="561" on="0"/>
        <pt x="932" y="444" on="1"/>
        <pt x="932" y="346" on="0"/>
        <pt x="862" y="174" on="0"/>
        <pt x="739" y="49" on="0"/>
        <pt x="571" y="-23" on="0"/>
        <pt x="473" y="-23" on="1"/>
        <pt x="238" y="-23" on="0"/>
        <pt x="0" y="305" on="0"/>
      </contour>
    </TTGlyph>
    <TTGlyph name="afii10067" xMin="49" yMin="0" xMax="930" yMax="932">
      <contour>
        <pt x="930" y="256" on="1"/>
        <pt x="930" y="129" on="0"/>
        <pt x="743" y="0" on="0"/>
        <pt x="569" y="0" on="1"/>
        <pt x="49" y="0" on="1"/>
        <pt x="49" y="932" on="1"/>
        <pt x="532" y="932" on="1"/>
        <pt x="596" y="932" on="0"/>
        <pt x="723" y="913" on="0"/>
        <pt x="823" y="860" on="0"/>
        <pt x="885" y="764" on="0"/>
        <pt x="885" y="688" on="1"/>
        <pt x="885" y="618" on="0"/>
        <pt x="797" y="506" on="0"/>
        <pt x="705" y="479" on="1"/>
        <pt x="819" y="463" on="0"/>
        <pt x="930" y="348" on="0"/>
      </contour>
      <contour>
        <pt x="680" y="664" on="1"/>
        <pt x="680" y="694" on="0"/>
        <pt x="655" y="731" on="0"/>
        <pt x="614" y="752" on="0"/>
        <pt x="561" y="758" on="0"/>
        <pt x="535" y="758" on="1"/>
        <pt x="256" y="758" on="1"/>
        <pt x="256" y="571" on="1"/>
        <pt x="535" y="571" on="1"/>
        <pt x="561" y="571" on="0"/>
        <pt x="614" y="578" on="0"/>
        <pt x="655" y="598" on="0"/>
        <pt x="680" y="635" on="0"/>
      </contour>
      <contour>
        <pt x="725" y="287" on="1"/>
        <pt x="725" y="336" on="0"/>
        <pt x="643" y="385" on="0"/>
        <pt x="569" y="385" on="1"/>
        <pt x="256" y="385" on="1"/>
        <pt x="256" y="186" on="1"/>
        <pt x="569" y="186" on="1"/>
        <pt x="643" y="186" on="0"/>
        <pt x="725" y="236" on="0"/>
      </contour>
    </TTGlyph>
    <TTGlyph name="afii10068" xMin="49" yMin="0" xMax="932" yMax="932">
      <contour>
        <pt x="49" y="932" on="1"/>
        <pt x="932" y="932" on="1"/>
        <pt x="932" y="758" on="1"/>
        <pt x="256" y="758" on="1"/>
        <pt x="256" y="0" on="1"/>
        <pt x="49" y="0" on="1"/>
      </contour>
    </TTGlyph>
    <TTGlyph name="afii10069" xMin="0" yMin="-319" xMax="932" yMax="932">
      <contour>
        <pt x="0" y="186" on="1"/>
        <pt x="57" y="217" on="0"/>
        <pt x="129" y="297" on="0"/>
        <pt x="170" y="420" on="0"/>
        <pt x="186" y="596" on="0"/>
        <pt x="186" y="719" on="1"/>
        <pt x="186" y="932" on="1"/>
        <pt x="780" y="932" on="1"/>
        <pt x="780" y="186" on="1"/>
        <pt x="932" y="186" on="1"/>
        <pt x="932" y="-319" on="1"/>
        <pt x="745" y="-319" on="1"/>
        <pt x="745" y="0" on="1"/>
        <pt x="186" y="0" on="1"/>
        <pt x="186" y="-319" on="1"/>
        <pt x="0" y="-319" on="1"/>
      </contour>
      <contour>
        <pt x="393" y="678" on="1"/>
        <pt x="393" y="621" on="0"/>
        <pt x="385" y="477" on="0"/>
        <pt x="354" y="338" on="0"/>
        <pt x="291" y="219" on="0"/>
        <pt x="233" y="186" on="1"/>
        <pt x="573" y="186" on="1"/>
        <pt x="573" y="758" on="1"/>
        <pt x="393" y="758" on="1"/>
      </contour>
    </TTGlyph>
    <TTGlyph name="afii10070" xMin="-20" yMin="-23" xMax="971" yMax="954">
      <contour>
        <pt x="190" y="387" on="1"/>
        <pt x="205" y="291" on="0"/>
        <pt x="358" y="164" on="0"/>
        <pt x="487" y="164" on="1"/>
        <pt x="588" y="164" on="0"/>
        <pt x="737" y="227" on="0"/>
        <pt x="791" y="279" on="1"/>
        <pt x="897" y="133" on="1"/>
        <pt x="807" y="43" on="0"/>
        <pt x="606" y="-23" on="0"/>
        <pt x="487" y="-23" on="1"/>
        <pt x="379" y="-23" on="0"/>
        <pt x="193" y="49" on="0"/>
        <pt x="57" y="178" on="0"/>
        <pt x="-20" y="356" on="0"/>
        <pt x="-20" y="465" on="1"/>
        <pt x="-20" y="571" on="0"/>
        <pt x="51" y="750" on="0"/>
        <pt x="180" y="881" on="0"/>
        <pt x="360" y="954" on="0"/>
        <pt x="469" y="954" on="1"/>
        <pt x="582" y="954" on="0"/>
        <pt x="766" y="877" on="0"/>
        <pt x="897" y="731" on="0"/>
        <pt x="971" y="520" on="0"/>
        <pt x="971" y="387" on="1"/>
      </contour>
      <contour>
        <pt x="737" y="569" on="1"/>
        <pt x="721" y="659" on="0"/>
        <pt x="567" y="768" on="0"/>
        <pt x="469" y="768" on="1"/>
        <pt x="371" y="768" on="0"/>
        <pt x="215" y="659" on="0"/>
        <pt x="199" y="569" on="1"/>
      </contour>
    </TTGlyph>
    <TTGlyph name="afii10071" xMin="-20" yMin="-23" xMax="971" yMax="1305">
      <component glyphName="afii10070" x="0" y="0" flags="0x204"/>
      <component glyphName="dieresis" x="0" y="0" flags="0x4"/>
    </TTGlyph>
    <TTGlyph name="afii10072" xMin="-109" yMin="0" xMax="1040" yMax="932">
      <contour>
        <pt x="362" y="0" on="1"/>
        <pt x="362" y="342" on="1"/>
        <pt x="328" y="385" on="1"/>
        <pt x="113" y="0" on="1"/>
        <pt x="-109" y="0" on="1"/>
        <pt x="201" y="524" on="1"/>
        <pt x="-109" y="932" on="1"/>
        <pt x="119" y="932" on="1"/>
        <pt x="362" y="584" on="1"/>
        <pt x="362" y="932" on="1"/>
        <pt x="569" y="932" on="1"/>
        <pt x="569" y="584" on="1"/>
        <pt x="823" y="932" on="1"/>
        <pt x="1040" y="932" on="1"/>
        <pt x="731" y="524" on="1"/>
        <pt x="1040" y="0" on="1"/>
        <pt x="829" y="0" on="1"/>
        <pt x="604" y="385" on="1"/>
        <pt x="569" y="342" on="1"/>
        <pt x="569" y="0" on="1"/>
      </contour>
    </TTGlyph>
    <TTGlyph name="afii10073" xMin="-2" yMin="-23" xMax="895" yMax="954">
      <contour>
        <pt x="893" y="676" on="1"/>
        <pt x="893" y="608" on="0"/>
        <pt x="788" y="489" on="0"/>
        <pt x="690" y="473" on="1"/>
        <pt x="782" y="455" on="0"/>
        <pt x="895" y="336" on="0"/>
        <pt x="895" y="264" on="1"/>
        <pt x="895" y="197" on="0"/>
        <pt x="823" y="90" on="0"/>
        <pt x="698" y="16" on="0"/>
        <pt x="528" y="-23" on="0"/>
        <pt x="428" y="-23" on="1"/>
        <pt x="268" y="-23" on="0"/>
        <pt x="61" y="76" on="0"/>
        <pt x="-2" y="176" on="1"/>
        <pt x="160" y="285" on="1"/>
        <pt x="188" y="231" on="0"/>
        <pt x="334" y="164" on="0"/>
        <pt x="432" y="164" on="1"/>
        <pt x="547" y="164" on="0"/>
        <pt x="688" y="227" on="0"/>
        <pt x="688" y="281" on="1"/>
        <pt x="688" y="319" on="0"/>
        <pt x="584" y="385" on="0"/>
        <pt x="479" y="385" on="1"/>
        <pt x="331" y="385" on="1"/>
        <pt x="331" y="571" on="1"/>
        <pt x="477" y="571" on="1"/>
        <pt x="582" y="571" on="0"/>
        <pt x="686" y="625" on="0"/>
        <pt x="686" y="659" on="1"/>
        <pt x="686" y="709" on="0"/>
        <pt x="553" y="768" on="0"/>
        <pt x="442" y="768" on="1"/>
        <pt x="252" y="768" on="0"/>
        <pt x="176" y="649" on="1"/>
        <pt x="25" y="754" on="1"/>
        <pt x="86" y="854" on="0"/>
        <pt x="287" y="954" on="0"/>
        <pt x="440" y="954" on="1"/>
        <pt x="537" y="954" on="0"/>
        <pt x="702" y="915" on="0"/>
        <pt x="823" y="844" on="0"/>
        <pt x="893" y="739" on="0"/>
      </contour>
    </TTGlyph>
    <TTGlyph name="afii10074" xMin="49" yMin="0" xMax="883" yMax="932">
      <contour>
        <pt x="49" y="932" on="1"/>
        <pt x="256" y="932" on="1"/>
        <pt x="256" y="291" on="1"/>
        <pt x="623" y="932" on="1"/>
        <pt x="883" y="932" on="1"/>
        <pt x="883" y="0" on="1"/>
        <pt x="676" y="0" on="1"/>
        <pt x="676" y="678" on="1"/>
        <pt x="289" y="0" on="1"/>
        <pt x="49" y="0" on="1"/>
      </contour>
    </TTGlyph>
    <TTGlyph name="afii10075" xMin="49" yMin="0" xMax="883" yMax="1286">
      <component glyphName="afii10074" x="0" y="0" flags="0x204"/>
      <component glyphName="breve" x="0" y="0" flags="0x4"/>
    </TTGlyph>
    <TTGlyph name="afii10076" xMin="49" yMin="0" xMax="930" yMax="932">
      <contour>
        <pt x="930" y="0" on="1"/>
        <pt x="662" y="0" on="1"/>
        <pt x="350" y="377" on="1"/>
        <pt x="256" y="281" on="1"/>
        <pt x="256" y="0" on="1"/>
        <pt x="49" y="0" on="1"/>
        <pt x="49" y="932" on="1"/>
        <pt x="256" y="932" on="1"/>
        <pt x="256" y="537" on="1"/>
        <pt x="629" y="932" on="1"/>
        <pt x="913" y="932" on="1"/>
        <pt x="483" y="504" on="1"/>
      </contour>
    </TTGlyph>
    <TTGlyph name="afii10077" xMin="-94" yMin="-23" xMax="883" yMax="932">
      <contour>
        <pt x="883" y="932" on="1"/>
        <pt x="883" y="0" on="1"/>
        <pt x="676" y="0" on="1"/>
        <pt x="676" y="745" on="1"/>
        <pt x="324" y="745" on="1"/>
        <pt x="324" y="276" on="1"/>
        <pt x="324" y="195" on="0"/>
        <pt x="276" y="80" on="0"/>
        <pt x="197" y="10" on="0"/>
        <pt x="90" y="-23" on="0"/>
        <pt x="29" y="-23" on="1"/>
        <pt x="-55" y="-23" on="0"/>
        <pt x="-94" y="2" on="1"/>
        <pt x="-68" y="180" on="1"/>
        <pt x="-53" y="172" on="0"/>
        <pt x="-18" y="164" on="0"/>
        <pt x="10" y="164" on="1"/>
        <pt x="117" y="164" on="0"/>
        <pt x="117" y="276" on="1"/>
        <pt x="117" y="932" on="1"/>
      </contour>
    </TTGlyph>
    <TTGlyph name="afii10078" xMin="49" yMin="0" xMax="883" yMax="932">
      <contour>
        <pt x="883" y="0" on="1"/>
        <pt x="676" y="0" on="1"/>
        <pt x="676" y="631" on="1"/>
        <pt x="545" y="295" on="1"/>
        <pt x="385" y="295" on="1"/>
        <pt x="256" y="631" on="1"/>
        <pt x="256" y="0" on="1"/>
        <pt x="49" y="0" on="1"/>
        <pt x="49" y="932" on="1"/>
        <pt x="295" y="932" on="1"/>
        <pt x="465" y="510" on="1"/>
        <pt x="635" y="932" on="1"/>
        <pt x="883" y="932" on="1"/>
      </contour>
    </TTGlyph>
    <TTGlyph name="afii10079" xMin="49" yMin="0" xMax="883" yMax="932">
      <contour>
        <pt x="883" y="0" on="1"/>
        <pt x="676" y="0" on="1"/>
        <pt x="676" y="385" on="1"/>
        <pt x="256" y="385" on="1"/>
        <pt x="256" y="0" on="1"/>
        <pt x="49" y="0" on="1"/>
        <pt x="49" y="932" on="1"/>
        <pt x="256" y="932" on="1"/>
        <pt x="256" y="571" on="1"/>
        <pt x="676" y="571" on="1"/>
        <pt x="676" y="932" on="1"/>
        <pt x="883" y="932" on="1"/>
      </contour>
    </TTGlyph>
    <TTGlyph name="afii10080" xMin="-20" yMin="-23" xMax="956" yMax="954">
      <contour>
        <pt x="956" y="465" on="1"/>
        <pt x="956" y="356" on="0"/>
        <pt x="887" y="178" on="0"/>
        <pt x="758" y="49" on="0"/>
        <pt x="578" y="-23" on="0"/>
        <pt x="467" y="-23" on="1"/>
        <pt x="358" y="-23" on="0"/>
        <pt x="178" y="49" on="0"/>
        <pt x="49" y="178" on="0"/>
        <pt x="-20" y="356" on="0"/>
        <pt x="-20" y="465" on="1"/>
        <pt x="-20" y="571" on="0"/>
        <pt x="49" y="752" on="0"/>
        <pt x="178" y="883" on="0"/>
        <pt x="358" y="954" on="0"/>
        <pt x="467" y="954" on="1"/>
        <pt x="578" y="954" on="0"/>
        <pt x="758" y="883" on="0"/>
        <pt x="887" y="752" on="0"/>
        <pt x="956" y="571" on="0"/>
      </contour>
      <contour>
        <pt x="750" y="465" on="1"/>
        <pt x="750" y="528" on="0"/>
        <pt x="711" y="641" on="0"/>
        <pt x="637" y="721" on="0"/>
        <pt x="532" y="768" on="0"/>
        <pt x="467" y="768" on="1"/>
        <pt x="401" y="768" on="0"/>
        <pt x="297" y="721" on="0"/>
        <pt x="225" y="641" on="0"/>
        <pt x="186" y="528" on="0"/>
        <pt x="186" y="465" on="1"/>
        <pt x="186" y="399" on="0"/>
        <pt x="225" y="291" on="0"/>
        <pt x="297" y="209" on="0"/>
        <pt x="401" y="164" on="0"/>
        <pt x="467" y="164" on="1"/>
        <pt x="532" y="164" on="0"/>
        <pt x="637" y="209" on="0"/>
        <pt x="711" y="291" on="0"/>
        <pt x="750" y="399" on="0"/>
      </contour>
    </TTGlyph>
    <TTGlyph name="afii10081" xMin="49" yMin="0" xMax="883" yMax="932">
      <contour>
        <pt x="883" y="0" on="1"/>
        <pt x="676" y="0" on="1"/>
        <pt x="676" y="745" on="1"/>
        <pt x="256" y="745" on="1"/>
        <pt x="256" y="0" on="1"/>
        <pt x="49" y="0" on="1"/>
        <pt x="49" y="932" on="1"/>
        <pt x="883" y="932" on="1"/>
      </contour>
    </TTGlyph>
    <TTGlyph name="afii10082" xMin="49" yMin="-373" xMax="932" yMax="954">
      <contour>
        <pt x="49" y="932" on="1"/>
        <pt x="256" y="932" on="1"/>
        <pt x="256" y="848" on="1"/>
        <pt x="315" y="901" on="0"/>
        <pt x="436" y="954" on="0"/>
        <pt x="514" y="954" on="1"/>
        <pt x="604" y="954" on="0"/>
        <pt x="758" y="881" on="0"/>
        <pt x="868" y="752" on="0"/>
        <pt x="932" y="571" on="0"/>
        <pt x="932" y="465" on="1"/>
        <pt x="932" y="358" on="0"/>
        <pt x="868" y="178" on="0"/>
        <pt x="758" y="49" on="0"/>
        <pt x="604" y="-23" on="0"/>
        <pt x="514" y="-23" on="1"/>
        <pt x="436" y="-23" on="0"/>
        <pt x="315" y="33" on="0"/>
        <pt x="256" y="86" on="1"/>
        <pt x="256" y="-373" on="1"/>
        <pt x="49" y="-373" on="1"/>
      </contour>
      <contour>
        <pt x="256" y="250" on="1"/>
        <pt x="293" y="209" on="0"/>
        <pt x="408" y="164" on="0"/>
        <pt x="461" y="164" on="1"/>
        <pt x="578" y="164" on="0"/>
        <pt x="725" y="330" on="0"/>
        <pt x="725" y="465" on="1"/>
        <pt x="725" y="600" on="0"/>
        <pt x="578" y="768" on="0"/>
        <pt x="461" y="768" on="1"/>
        <pt x="408" y="768" on="0"/>
        <pt x="293" y="725" on="0"/>
        <pt x="256" y="684" on="1"/>
      </contour>
    </TTGlyph>
    <TTGlyph name="afii10083" xMin="-20" yMin="-23" xMax="897" yMax="954">
      <contour>
        <pt x="897" y="133" on="1"/>
        <pt x="807" y="43" on="0"/>
        <pt x="608" y="-23" on="0"/>
        <pt x="492" y="-23" on="1"/>
        <pt x="375" y="-23" on="0"/>
        <pt x="184" y="47" on="0"/>
        <pt x="51" y="174" on="0"/>
        <pt x="-20" y="354" on="0"/>
        <pt x="-20" y="465" on="1"/>
        <pt x="-20" y="571" on="0"/>
        <pt x="51" y="752" on="0"/>
        <pt x="172" y="881" on="0"/>
        <pt x="336" y="954" on="0"/>
        <pt x="428" y="954" on="1"/>
        <pt x="524" y="954" on="0"/>
        <pt x="666" y="874" on="0"/>
        <pt x="698" y="797" on="1"/>
        <pt x="698" y="932" on="1"/>
        <pt x="883" y="932" on="1"/>
        <pt x="883" y="498" on="1"/>
        <pt x="698" y="498" on="1"/>
        <pt x="698" y="621" on="0"/>
        <pt x="563" y="768" on="0"/>
        <pt x="455" y="768" on="1"/>
        <pt x="412" y="768" on="0"/>
        <pt x="317" y="733" on="0"/>
        <pt x="238" y="659" on="0"/>
        <pt x="186" y="545" on="0"/>
        <pt x="186" y="465" on="1"/>
        <pt x="186" y="387" on="0"/>
        <pt x="236" y="274" on="0"/>
        <pt x="317" y="201" on="0"/>
        <pt x="428" y="164" on="0"/>
        <pt x="487" y="164" on="1"/>
        <pt x="588" y="164" on="0"/>
        <pt x="737" y="227" on="0"/>
        <pt x="791" y="279" on="1"/>
      </contour>
    </TTGlyph>
    <TTGlyph name="afii10084" xMin="0" yMin="0" xMax="930" yMax="932">
      <contour>
        <pt x="930" y="457" on="1"/>
        <pt x="745" y="457" on="1"/>
        <pt x="745" y="745" on="1"/>
        <pt x="569" y="745" on="1"/>
        <pt x="569" y="186" on="1"/>
        <pt x="776" y="186" on="1"/>
        <pt x="776" y="0" on="1"/>
        <pt x="156" y="0" on="1"/>
        <pt x="156" y="186" on="1"/>
        <pt x="362" y="186" on="1"/>
        <pt x="362" y="745" on="1"/>
        <pt x="184" y="745" on="1"/>
        <pt x="184" y="457" on="1"/>
        <pt x="0" y="457" on="1"/>
        <pt x="0" y="932" on="1"/>
        <pt x="930" y="932" on="1"/>
      </contour>
    </TTGlyph>
    <TTGlyph name="afii10085" xMin="-6" yMin="-395" xMax="924" yMax="932">
      <contour>
        <pt x="924" y="932" on="1"/>
        <pt x="522" y="-182" on="1"/>
        <pt x="477" y="-303" on="0"/>
        <pt x="305" y="-395" on="0"/>
        <pt x="186" y="-395" on="1"/>
        <pt x="145" y="-395" on="0"/>
        <pt x="51" y="-379" on="0"/>
        <pt x="0" y="-360" on="1"/>
        <pt x="43" y="-170" on="1"/>
        <pt x="86" y="-186" on="0"/>
        <pt x="158" y="-199" on="0"/>
        <pt x="186" y="-199" on="1"/>
        <pt x="279" y="-199" on="0"/>
        <pt x="313" y="-115" on="1"/>
        <pt x="350" y="-25" on="1"/>
        <pt x="-6" y="932" on="1"/>
        <pt x="209" y="932" on="1"/>
        <pt x="465" y="227" on="1"/>
        <pt x="702" y="932" on="1"/>
      </contour>
    </TTGlyph>
    <TTGlyph name="afii10086" xMin="-31" yMin="-373" xMax="963" yMax="1305">
      <contour>
        <pt x="362" y="715" on="1"/>
        <pt x="346" y="752" on="0"/>
        <pt x="307" y="778" on="0"/>
        <pt x="285" y="778" on="1"/>
        <pt x="262" y="778" on="0"/>
        <pt x="221" y="748" on="0"/>
        <pt x="193" y="676" on="0"/>
        <pt x="176" y="555" on="0"/>
        <pt x="176" y="467" on="1"/>
        <pt x="176" y="377" on="0"/>
        <pt x="193" y="258" on="0"/>
        <pt x="221" y="184" on="0"/>
        <pt x="262" y="154" on="0"/>
        <pt x="285" y="154" on="1"/>
        <pt x="307" y="154" on="0"/>
        <pt x="346" y="180" on="0"/>
        <pt x="362" y="217" on="1"/>
      </contour>
      <contour>
        <pt x="362" y="-373" on="1"/>
        <pt x="362" y="63" on="1"/>
        <pt x="346" y="20" on="0"/>
        <pt x="272" y="-23" on="0"/>
        <pt x="231" y="-23" on="1"/>
        <pt x="176" y="-23" on="0"/>
        <pt x="82" y="39" on="0"/>
        <pt x="10" y="162" on="0"/>
        <pt x="-31" y="344" on="0"/>
        <pt x="-31" y="467" on="1"/>
        <pt x="-31" y="590" on="0"/>
        <pt x="10" y="772" on="0"/>
        <pt x="82" y="893" on="0"/>
        <pt x="176" y="954" on="0"/>
        <pt x="231" y="954" on="1"/>
        <pt x="272" y="954" on="0"/>
        <pt x="346" y="911" on="0"/>
        <pt x="362" y="868" on="1"/>
        <pt x="362" y="1305" on="1"/>
        <pt x="569" y="1305" on="1"/>
        <pt x="569" y="868" on="1"/>
        <pt x="586" y="911" on="0"/>
        <pt x="659" y="954" on="0"/>
        <pt x="700" y="954" on="1"/>
        <pt x="756" y="954" on="0"/>
        <pt x="850" y="893" on="0"/>
        <pt x="922" y="772" on="0"/>
        <pt x="963" y="590" on="0"/>
        <pt x="963" y="467" on="1"/>
        <pt x="963" y="344" on="0"/>
        <pt x="922" y="162" on="0"/>
        <pt x="850" y="39" on="0"/>
        <pt x="756" y="-23" on="0"/>
        <pt x="700" y="-23" on="1"/>
        <pt x="659" y="-23" on="0"/>
        <pt x="586" y="20" on="0"/>
        <pt x="569" y="63" on="1"/>
        <pt x="569" y="-373" on="1"/>
      </contour>
      <contour>
        <pt x="569" y="217" on="1"/>
        <pt x="586" y="180" on="0"/>
        <pt x="625" y="154" on="0"/>
        <pt x="647" y="154" on="1"/>
        <pt x="670" y="154" on="0"/>
        <pt x="711" y="184" on="0"/>
        <pt x="739" y="258" on="0"/>
        <pt x="756" y="377" on="0"/>
        <pt x="756" y="467" on="1"/>
        <pt x="756" y="555" on="0"/>
        <pt x="739" y="676" on="0"/>
        <pt x="711" y="748" on="0"/>
        <pt x="670" y="778" on="0"/>
        <pt x="647" y="778" on="1"/>
        <pt x="625" y="778" on="0"/>
        <pt x="586" y="752" on="0"/>
        <pt x="569" y="715" on="1"/>
      </contour>
    </TTGlyph>
    <TTGlyph name="afii10087" xMin="-20" yMin="0" xMax="954" yMax="932">
      <contour>
        <pt x="954" y="0" on="1"/>
        <pt x="512" y="0" on="1"/>
        <pt x="512" y="186" on="1"/>
        <pt x="594" y="186" on="1"/>
        <pt x="467" y="381" on="1"/>
        <pt x="342" y="186" on="1"/>
        <pt x="418" y="186" on="1"/>
        <pt x="418" y="0" on="1"/>
        <pt x="-20" y="0" on="1"/>
        <pt x="-20" y="186" on="1"/>
        <pt x="115" y="186" on="1"/>
        <pt x="324" y="473" on="1"/>
        <pt x="125" y="745" on="1"/>
        <pt x="0" y="745" on="1"/>
        <pt x="0" y="932" on="1"/>
        <pt x="420" y="932" on="1"/>
        <pt x="420" y="745" on="1"/>
        <pt x="354" y="745" on="1"/>
        <pt x="467" y="565" on="1"/>
        <pt x="582" y="745" on="1"/>
        <pt x="508" y="745" on="1"/>
        <pt x="508" y="932" on="1"/>
        <pt x="932" y="932" on="1"/>
        <pt x="932" y="745" on="1"/>
        <pt x="811" y="745" on="1"/>
        <pt x="612" y="473" on="1"/>
        <pt x="821" y="186" on="1"/>
        <pt x="954" y="186" on="1"/>
      </contour>
    </TTGlyph>
    <TTGlyph name="afii10088" xMin="49" yMin="-319" xMax="1055" yMax="932">
      <contour>
        <pt x="1055" y="186" on="1"/>
        <pt x="1055" y="-319" on="1"/>
        <pt x="868" y="-319" on="1"/>
        <pt x="868" y="0" on="1"/>
        <pt x="49" y="0" on="1"/>
        <pt x="49" y="932" on="1"/>
        <pt x="256" y="932" on="1"/>
        <pt x="256" y="186" on="1"/>
        <pt x="676" y="186" on="1"/>
        <pt x="676" y="932" on="1"/>
        <pt x="883" y="932" on="1"/>
        <pt x="883" y="186" on="1"/>
      </contour>
    </TTGlyph>
    <TTGlyph name="afii10089" xMin="49" yMin="0" xMax="883" yMax="932">
      <contour>
        <pt x="49" y="932" on="1"/>
        <pt x="256" y="932" on="1"/>
        <pt x="256" y="543" on="1"/>
        <pt x="256" y="434" on="0"/>
        <pt x="338" y="350" on="0"/>
        <pt x="416" y="350" on="1"/>
        <pt x="530" y="350" on="0"/>
        <pt x="676" y="537" on="0"/>
        <pt x="676" y="700" on="1"/>
        <pt x="676" y="932" on="1"/>
        <pt x="883" y="932" on="1"/>
        <pt x="883" y="0" on="1"/>
        <pt x="676" y="0" on="1"/>
        <pt x="676" y="420" on="1"/>
        <pt x="645" y="299" on="0"/>
        <pt x="477" y="164" on="0"/>
        <pt x="354" y="164" on="1"/>
        <pt x="211" y="164" on="0"/>
        <pt x="49" y="350" on="0"/>
        <pt x="49" y="543" on="1"/>
      </contour>
    </TTGlyph>
    <TTGlyph name="afii10090" xMin="0" yMin="0" xMax="932" yMax="932">
      <contour>
        <pt x="362" y="932" on="1"/>
        <pt x="569" y="932" on="1"/>
        <pt x="569" y="186" on="1"/>
        <pt x="725" y="186" on="1"/>
        <pt x="725" y="932" on="1"/>
        <pt x="932" y="932" on="1"/>
        <pt x="932" y="0" on="1"/>
        <pt x="0" y="0" on="1"/>
        <pt x="0" y="932" on="1"/>
        <pt x="207" y="932" on="1"/>
        <pt x="207" y="186" on="1"/>
        <pt x="362" y="186" on="1"/>
      </contour>
    </TTGlyph>
    <TTGlyph name="afii10091" xMin="0" yMin="-319" xMax="1118" yMax="932">
      <contour>
        <pt x="0" y="0" on="1"/>
        <pt x="0" y="932" on="1"/>
        <pt x="207" y="932" on="1"/>
        <pt x="207" y="186" on="1"/>
        <pt x="362" y="186" on="1"/>
        <pt x="362" y="932" on="1"/>
        <pt x="569" y="932" on="1"/>
        <pt x="569" y="186" on="1"/>
        <pt x="725" y="186" on="1"/>
        <pt x="725" y="932" on="1"/>
        <pt x="932" y="932" on="1"/>
        <pt x="932" y="186" on="1"/>
        <pt x="1118" y="186" on="1"/>
        <pt x="1118" y="-319" on="1"/>
        <pt x="932" y="-319" on="1"/>
        <pt x="932" y="0" on="1"/>
      </contour>
    </TTGlyph>
    <TTGlyph name="afii10092" xMin="0" yMin="0" xMax="932" yMax="932">
      <contour>
        <pt x="0" y="932" on="1"/>
        <pt x="373" y="932" on="1"/>
        <pt x="373" y="571" on="1"/>
        <pt x="592" y="571" on="1"/>
        <pt x="752" y="571" on="0"/>
        <pt x="932" y="430" on="0"/>
        <pt x="932" y="287" on="1"/>
        <pt x="932" y="145" on="0"/>
        <pt x="752" y="0" on="0"/>
        <pt x="590" y="0" on="1"/>
        <pt x="166" y="0" on="1"/>
        <pt x="166" y="745" on="1"/>
        <pt x="0" y="745" on="1"/>
      </contour>
      <contour>
        <pt x="725" y="285" on="1"/>
        <pt x="725" y="336" on="0"/>
        <pt x="653" y="385" on="0"/>
        <pt x="592" y="385" on="1"/>
        <pt x="373" y="385" on="1"/>
        <pt x="373" y="186" on="1"/>
        <pt x="592" y="186" on="1"/>
        <pt x="653" y="186" on="0"/>
        <pt x="725" y="236" on="0"/>
      </contour>
    </TTGlyph>
    <TTGlyph name="afii10093" xMin="-20" yMin="0" xMax="952" yMax="932">
      <contour>
        <pt x="633" y="287" on="1"/>
        <pt x="633" y="145" on="0"/>
        <pt x="453" y="0" on="0"/>
        <pt x="291" y="0" on="1"/>
        <pt x="-20" y="0" on="1"/>
        <pt x="-20" y="932" on="1"/>
        <pt x="186" y="932" on="1"/>
        <pt x="186" y="571" on="1"/>
        <pt x="293" y="571" on="1"/>
        <pt x="453" y="571" on="0"/>
        <pt x="633" y="430" on="0"/>
      </contour>
      <contour>
        <pt x="426" y="285" on="1"/>
        <pt x="426" y="336" on="0"/>
        <pt x="354" y="385" on="0"/>
        <pt x="293" y="385" on="1"/>
        <pt x="186" y="385" on="1"/>
        <pt x="186" y="186" on="1"/>
        <pt x="293" y="186" on="1"/>
        <pt x="354" y="186" on="0"/>
        <pt x="426" y="236" on="0"/>
      </contour>
      <contour>
        <pt x="745" y="932" on="1"/>
        <pt x="952" y="932" on="1"/>
        <pt x="952" y="0" on="1"/>
        <pt x="745" y="0" on="1"/>
      </contour>
    </TTGlyph>
    <TTGlyph name="afii10094" xMin="49" yMin="0" xMax="932" yMax="932">
      <contour>
        <pt x="932" y="287" on="1"/>
        <pt x="932" y="145" on="0"/>
        <pt x="752" y="0" on="0"/>
        <pt x="590" y="0" on="1"/>
        <pt x="49" y="0" on="1"/>
        <pt x="49" y="932" on="1"/>
        <pt x="256" y="932" on="1"/>
        <pt x="256" y="571" on="1"/>
        <pt x="592" y="571" on="1"/>
        <pt x="752" y="571" on="0"/>
        <pt x="932" y="430" on="0"/>
      </contour>
      <contour>
        <pt x="725" y="285" on="1"/>
        <pt x="725" y="336" on="0"/>
        <pt x="653" y="385" on="0"/>
        <pt x="592" y="385" on="1"/>
        <pt x="256" y="385" on="1"/>
        <pt x="256" y="186" on="1"/>
        <pt x="592" y="186" on="1"/>
        <pt x="653" y="186" on="0"/>
        <pt x="725" y="236" on="0"/>
      </contour>
    </TTGlyph>
    <TTGlyph name="afii10095" xMin="14" yMin="-23" xMax="932" yMax="954">
      <contour>
        <pt x="932" y="465" on="1"/>
        <pt x="932" y="354" on="0"/>
        <pt x="860" y="174" on="0"/>
        <pt x="727" y="47" on="0"/>
        <pt x="537" y="-23" on="0"/>
        <pt x="420" y="-23" on="1"/>
        <pt x="303" y="-23" on="0"/>
        <pt x="104" y="43" on="0"/>
        <pt x="14" y="133" on="1"/>
        <pt x="121" y="279" on="1"/>
        <pt x="174" y="227" on="0"/>
        <pt x="324" y="164" on="0"/>
        <pt x="424" y="164" on="1"/>
        <pt x="526" y="164" on="0"/>
        <pt x="692" y="270" on="0"/>
        <pt x="717" y="385" on="1"/>
        <pt x="272" y="385" on="1"/>
        <pt x="272" y="571" on="1"/>
        <pt x="709" y="571" on="1"/>
        <pt x="680" y="670" on="0"/>
        <pt x="522" y="768" on="0"/>
        <pt x="424" y="768" on="1"/>
        <pt x="324" y="768" on="0"/>
        <pt x="174" y="705" on="0"/>
        <pt x="121" y="653" on="1"/>
        <pt x="14" y="799" on="1"/>
        <pt x="104" y="889" on="0"/>
        <pt x="303" y="954" on="0"/>
        <pt x="420" y="954" on="1"/>
        <pt x="537" y="954" on="0"/>
        <pt x="727" y="885" on="0"/>
        <pt x="860" y="756" on="0"/>
        <pt x="932" y="575" on="0"/>
      </contour>
    </TTGlyph>
    <TTGlyph name="afii10096" xMin="-20" yMin="-23" xMax="961" yMax="954">
      <contour>
        <pt x="-20" y="932" on="1"/>
        <pt x="186" y="932" on="1"/>
        <pt x="186" y="571" on="1"/>
        <pt x="354" y="571" on="1"/>
        <pt x="385" y="954" on="0"/>
        <pt x="655" y="954" on="1"/>
        <pt x="961" y="954" on="0"/>
        <pt x="961" y="465" on="1"/>
        <pt x="961" y="-23" on="0"/>
        <pt x="655" y="-23" on="1"/>
        <pt x="377" y="-23" on="0"/>
        <pt x="352" y="385" on="1"/>
        <pt x="186" y="385" on="1"/>
        <pt x="186" y="0" on="1"/>
        <pt x="-20" y="0" on="1"/>
      </contour>
      <contour>
        <pt x="557" y="465" on="1"/>
        <pt x="557" y="330" on="0"/>
        <pt x="594" y="164" on="0"/>
        <pt x="655" y="164" on="1"/>
        <pt x="715" y="164" on="0"/>
        <pt x="754" y="330" on="0"/>
        <pt x="754" y="465" on="1"/>
        <pt x="754" y="532" on="0"/>
        <pt x="745" y="643" on="0"/>
        <pt x="723" y="723" on="0"/>
        <pt x="684" y="768" on="0"/>
        <pt x="655" y="768" on="1"/>
        <pt x="625" y="768" on="0"/>
        <pt x="586" y="723" on="0"/>
        <pt x="565" y="643" on="0"/>
        <pt x="557" y="532" on="0"/>
      </contour>
    </TTGlyph>
    <TTGlyph name="afii10097" xMin="-12" yMin="0" xMax="883" yMax="932">
      <contour>
        <pt x="334" y="360" on="1"/>
        <pt x="176" y="362" on="0"/>
        <pt x="0" y="504" on="0"/>
        <pt x="0" y="645" on="1"/>
        <pt x="0" y="786" on="0"/>
        <pt x="180" y="932" on="0"/>
        <pt x="342" y="932" on="1"/>
        <pt x="883" y="932" on="1"/>
        <pt x="883" y="0" on="1"/>
        <pt x="676" y="0" on="1"/>
        <pt x="676" y="360" on="1"/>
        <pt x="592" y="360" on="1"/>
        <pt x="264" y="0" on="1"/>
        <pt x="-12" y="0" on="1"/>
      </contour>
      <contour>
        <pt x="207" y="647" on="1"/>
        <pt x="207" y="596" on="0"/>
        <pt x="279" y="547" on="0"/>
        <pt x="340" y="547" on="1"/>
        <pt x="676" y="547" on="1"/>
        <pt x="676" y="745" on="1"/>
        <pt x="340" y="745" on="1"/>
        <pt x="279" y="745" on="0"/>
        <pt x="207" y="696" on="0"/>
      </contour>
    </TTGlyph>
    <TTGlyph name="afii10098" xMin="49" yMin="0" xMax="932" yMax="1118">
      <contour>
        <pt x="745" y="1118" on="1"/>
        <pt x="932" y="1118" on="1"/>
        <pt x="932" y="745" on="1"/>
        <pt x="256" y="745" on="1"/>
        <pt x="256" y="0" on="1"/>
        <pt x="49" y="0" on="1"/>
        <pt x="49" y="932" on="1"/>
        <pt x="745" y="932" on="1"/>
      </contour>
    </TTGlyph>
    <TTGlyph name="afii10099" xMin="-137" yMin="-395" xMax="883" yMax="1305">
      <contour>
        <pt x="-137" y="1118" on="1"/>
        <pt x="49" y="1118" on="1"/>
        <pt x="49" y="1305" on="1"/>
        <pt x="256" y="1305" on="1"/>
        <pt x="256" y="1118" on="1"/>
        <pt x="373" y="1118" on="1"/>
        <pt x="373" y="932" on="1"/>
        <pt x="256" y="932" on="1"/>
        <pt x="256" y="698" on="1"/>
        <pt x="287" y="819" on="0"/>
        <pt x="455" y="954" on="0"/>
        <pt x="578" y="954" on="1"/>
        <pt x="721" y="954" on="0"/>
        <pt x="883" y="768" on="0"/>
        <pt x="883" y="575" on="1"/>
        <pt x="883" y="-96" on="1"/>
        <pt x="883" y="-178" on="0"/>
        <pt x="836" y="-293" on="0"/>
        <pt x="756" y="-362" on="0"/>
        <pt x="649" y="-395" on="0"/>
        <pt x="588" y="-395" on="1"/>
        <pt x="504" y="-395" on="0"/>
        <pt x="465" y="-371" on="1"/>
        <pt x="492" y="-193" on="1"/>
        <pt x="506" y="-201" on="0"/>
        <pt x="541" y="-209" on="0"/>
        <pt x="569" y="-209" on="1"/>
        <pt x="676" y="-209" on="0"/>
        <pt x="676" y="-96" on="1"/>
        <pt x="676" y="575" on="1"/>
        <pt x="676" y="684" on="0"/>
        <pt x="594" y="768" on="0"/>
        <pt x="516" y="768" on="1"/>
        <pt x="401" y="768" on="0"/>
        <pt x="256" y="582" on="0"/>
        <pt x="256" y="418" on="1"/>
        <pt x="256" y="0" on="1"/>
        <pt x="49" y="0" on="1"/>
        <pt x="49" y="932" on="1"/>
        <pt x="-137" y="932" on="1"/>
      </contour>
    </TTGlyph>
</ttFont>
